<?xml version="1.0" encoding="iso-8859-1"?>
<!-- Generator: Adobe Illustrator 16.0.0, SVG Export Plug-In . SVG Version: 6.00 Build 0)  -->
<!DOCTYPE svg PUBLIC "-//W3C//DTD SVG 1.1//EN" "http://www.w3.org/Graphics/SVG/1.1/DTD/svg11.dtd">
<svg version="1.1" id="Layer_1" xmlns="http://www.w3.org/2000/svg" xmlns:xlink="http://www.w3.org/1999/xlink" x="0px" y="0px"
	 width="30px" height="30px" viewBox="1235 1235 30 30" style="enable-background:new 1235 1235 30 30;" xml:space="preserve">
<path style="fill:#757575;" d="M1242.68,1259.59l0.004,0.001l-1.42,2.461c-0.519,0.898-1.667,1.206-2.565,0.688
	c-0.898-0.519-1.206-1.667-0.688-2.565l1.046-1.813l0.101-0.175c0.179-0.258,0.622-0.702,1.507-0.619c0,0,2.084,0.227,2.235,1.31
	C1242.899,1258.877,1242.92,1259.233,1242.68,1259.59L1242.68,1259.59z M1262.831,1253.305h-4.431
	c-0.302-0.021-0.434-0.128-0.485-0.19l-0.003-0.006l-4.742-8.214l-0.007,0.004l-0.284-0.408c-0.467-0.713-1.206,1.11-1.206,1.11
	c-0.884,2.031,0.125,4.341,0.478,5.039l6.587,11.409c0.519,0.898,1.667,1.206,2.565,0.688c0.897-0.519,1.206-1.667,0.688-2.565
	l-1.647-2.853c-0.032-0.069-0.088-0.257,0.25-0.258h2.238c1.037,0,1.878-0.841,1.878-1.878S1263.868,1253.305,1262.831,1253.305
	L1262.831,1253.305z M1254.226,1255.857c0,0,0.236,1.203-0.679,1.203h-0.914l0,0h-15.464c-1.037,0-1.878-0.841-1.878-1.878
	s0.841-1.878,1.878-1.878h4.211c0.68-0.039,0.841-0.432,0.841-0.432l0.003,0.002l5.497-9.52l-0.002,0
	c0.101-0.184,0.017-0.358,0.002-0.385l-1.815-3.144c-0.519-0.898-0.211-2.047,0.687-2.565c0.898-0.519,2.047-0.21,2.565,0.688
	l0.842,1.458l0.841-1.456c0.518-0.898,1.666-1.206,2.564-0.687s1.206,1.667,0.688,2.565l-7.648,13.247
	c-0.033,0.08-0.043,0.207,0.205,0.229h4.572l0.001,0.044C1251.224,1253.349,1253.865,1253.39,1254.226,1255.857z"/>
</svg>
