<?xml version="1.0" encoding="utf-8"?>
<!-- Generator: Adobe Illustrator 21.0.0, SVG Export Plug-In . SVG Version: 6.00 Build 0)  -->
<svg xmlns="http://www.w3.org/2000/svg" xmlns:xlink="http://www.w3.org/1999/xlink" version="1.1" id="Layer_2" x="0px" y="0px" viewBox="0 0 64 64" style="enable-background:new 0 0 64 64;" xml:space="preserve" width="60" height="60">
<style type="text/css">
	.st0{fill:#F4C734;}
	.st1{fill:#E0B730;}
	.st2{fill:#F9F2CC;}
	.st3{fill:#F49E34;}
	.st4{fill:#A3740C;}
</style>
<g>
	<path class="st0" d="M61,60V21c-3.3,0-6-2.7-6-6V4c0-0.6-0.4-1-1-1H10C9.4,3,9,3.4,9,4v11c0,3.3-2.7,6-6,6v39c0,0.6,0.4,1,1,1h56   C60.6,61,61,60.6,61,60z M40,13H24V7h16V13z"/>
	<path class="st1" d="M59,32h-1.4c-0.3-1.5-1.3-2.8-2.6-3.6c-2-4.9-3-10.1-3-15.4h1v-3c0-0.6-0.4-1-1-1h-5c-0.6,0-1,0.4-1,1v3h1   c0,5.3-1,10.5-3,15.4c-1.3,0.8-2.3,2.1-2.6,3.6H26.6c-0.3-1.5-1.3-2.8-2.6-3.6c-2-4.9-3-10.1-3-15.4h1v-3c0-0.6-0.4-1-1-1h-5   c-0.6,0-1,0.4-1,1v3h1c0,5.3-1,10.5-3,15.4c-1.3,0.8-2.3,2.1-2.6,3.6H7c-1.7,0-3,1.3-3,3h57C61,33.3,60.7,32,59,32z"/>
	<path class="st2" d="M32,39c-3.8,0-7.2,2.4-8.5,6H3v6h20.5c1.6,4.7,6.8,7.1,11.5,5.5c2.6-0.9,4.6-2.9,5.5-5.5H61v-6H40.5   C39.2,41.4,35.8,39,32,39z"/>
	<circle class="st3" cx="32" cy="48" r="6"/>
	<path class="st4" d="M22,28.4c-2-4.9-3-10.1-3-15.4h1v-3c0-0.6-0.4-1-1-1h-5c-0.6,0-1,0.4-1,1v3h1c0,5.3-1,10.5-3,15.4   c0,0-3,1.3-3,6.6h17C25,29.7,22,28.4,22,28.4z"/>
	<path class="st4" d="M53,28.4c-2-4.9-3-10.1-3-15.4h1v-3c0-0.6-0.4-1-1-1h-5c-0.6,0-1,0.4-1,1v3h1c0,5.3-1,10.5-3,15.4   c0,0-3,1.3-3,6.6h17C56,29.7,53,28.4,53,28.4z"/>
	<path d="M61,20c-2.8,0-5-2.2-5-5V3c0-0.6-0.4-1-1-1H9C8.4,2,8,2.4,8,3v12c0,2.8-2.2,5-5,5c-0.6,0-1,0.4-1,1v40c0,0.6,0.4,1,1,1h58   c0.6,0,1-0.4,1-1V21C62,20.4,61.6,20,61,20z M10,15V4h44v11c0,3.5,2.6,6.4,6,6.9V34h-3c-0.3-4-2.3-5.7-3.2-6.3   c-1.7-4.4-2.6-9-2.7-13.7c0.5,0,1-0.5,1-1V9c0-0.6-0.4-1-1-1h-7c-0.6,0-1,0.4-1,1v4c0,0.5,0.4,1,1,1c-0.1,4.7-1,9.4-2.7,13.7   C40.3,28.3,38.3,30,38,34H26c-0.3-4-2.3-5.7-3.2-6.3c-1.7-4.4-2.6-9-2.7-13.7c0.5,0,1-0.5,1-1V9c0-0.6-0.4-1-1-1h-7   c-0.6,0-1,0.4-1,1v4c0,0.5,0.4,1,1,1c-0.1,4.7-1,9.4-2.7,13.7C9.3,28.3,7.3,30,7,34H4V21.9C7.4,21.4,10,18.5,10,15z M60,44H41.2   c-2.2-5.1-8.1-7.4-13.1-5.2c-2.3,1-4.2,2.9-5.2,5.2H4v-8h56V44z M4,46h19.5c0.4,0,0.8-0.3,0.9-0.7c1.5-4.2,6-6.3,10.2-4.9   c2.3,0.8,4.1,2.6,4.9,4.9c0.1,0.4,0.5,0.7,0.9,0.7H60v4H40.5c-0.4,0-0.8,0.3-0.9,0.7c-1.5,4.2-6,6.3-10.2,4.9   c-2.3-0.8-4.1-2.6-4.9-4.9c-0.1-0.4-0.5-0.7-0.9-0.7H4V46z M19,12h-5v-2h5V12z M15,14h3c0.1,5.1,1.1,10.1,3,14.8   c0.1,0.2,0.3,0.4,0.5,0.5c0,0,2.1,1,2.4,4.7H9c0.3-3.6,2.3-4.6,2.4-4.7c0.2-0.1,0.4-0.3,0.5-0.5C13.8,24.1,14.9,19.1,15,14z M50,12   h-5v-2h5V12z M46,14h3c0.1,5.1,1.1,10.1,3,14.8c0.1,0.2,0.3,0.4,0.5,0.5c0,0,2.1,1,2.4,4.7H40c0.3-3.6,2.3-4.6,2.4-4.7   c0.2-0.1,0.4-0.3,0.5-0.5C44.8,24.1,45.9,19.1,46,14z M4,60v-8h18.8c2.2,5.1,8.1,7.4,13.1,5.2c2.3-1,4.2-2.9,5.2-5.2H60v8H4z"/>
	<path d="M24,14h16c0.6,0,1-0.4,1-1V7c0-0.6-0.4-1-1-1H24c-0.6,0-1,0.4-1,1v6C23,13.6,23.4,14,24,14z M25,8h14v4H25V8z"/>
</g>
</svg>
