<svg height="25px" viewBox="-121 0 512 512.00015" width="25px" xmlns="http://www.w3.org/2000/svg"><path d="m209.71875 69.359375 7.0625-9.265625c11.148438-14.625 8.328125-35.519531-6.296875-46.667969-14.625-11.148437-35.519531-8.332031-46.667969 6.292969l-37.742187 49.511719.171875.128906zm-29.714844-35.984375c4.066406-5.332031 11.6875-6.359375 17.023438-2.292969 5.335937 4.066407 6.363281 11.6875 2.296875 17.019531-4.066407 5.335938-11.6875 6.363282-17.023438 2.296876-5.335937-4.066407-6.363281-11.6875-2.296875-17.023438zm0 0" fill="#b9acac"/><path d="m210.484375 13.425781c-7.898437-6.023437-17.628906-7.960937-26.664063-6.171875 4.8125.957032 9.488282 2.996094 13.652344 6.171875 14.628906 11.148438 17.445313 32.042969 6.296875 46.667969l-7.066406 9.265625h13.011719l7.0625-9.265625c11.152344-14.625 8.332031-35.519531-6.292969-46.667969zm0 0" fill="#9e9797"/><path d="m257.269531 126.808594-25.128906-42.070313c-2.050781-3.433593-5.753906-5.535156-9.753906-5.535156h-174.695313c-4 0-7.707031 2.101563-9.757812 5.535156l-25.125 42.070313c-3.46875 5.808594-5.300782 12.445312-5.300782 19.210937v276.148438c0 6.851562 1.878907 13.578125 5.4375 19.4375l24.976563 41.152343c2.058594 3.394532 5.746094 5.46875 9.714844 5.46875h174.804687c3.96875 0 7.652344-2.074218 9.714844-5.46875l24.976562-41.152343c3.558594-5.859375 5.4375-12.585938 5.4375-19.4375v-276.148438c0-6.765625-1.832031-13.402343-5.300781-19.210937zm0 0" fill="#9c5e5e"/><path d="m257.269531 126.808594-25.128906-42.070313c-2.050781-3.433593-5.753906-5.535156-9.753906-5.535156h-41.464844l12.292969 20.585937c3.46875 5.804688 5.300781 12.445313 5.300781 19.207032v276.148437c0 6.855469-1.878906 13.578125-5.4375 19.4375l-24.976563 41.152344c-2.058593 3.394531-5.746093 5.46875-9.714843 5.46875h-133.546875l13.082031 21.554687c2.058594 3.394532 5.746094 5.46875 9.714844 5.46875h174.804687c3.96875 0 7.652344-2.074218 9.714844-5.46875l24.976562-41.152343c3.558594-5.859375 5.4375-12.582031 5.4375-19.4375v-276.148438c0-6.765625-1.832031-13.402343-5.300781-19.210937zm0 0" fill="#855151"/><path d="m241.15625 91.890625h-212.074219c-7.082031 0-12.820312-5.742187-12.820312-12.824219v-.019531c0-7.082031 5.738281-12.820313 12.820312-12.820313h212.074219c7.082031 0 12.820312 5.738282 12.820312 12.820313v.019531c0 7.082032-5.738281 12.824219-12.820312 12.824219zm0 0" fill="#efe2dd"/><path d="m241.15625 504.492188h-212.074219c-7.082031 0-12.820312-5.738282-12.820312-12.820313v-.023437c0-7.078126 5.738281-12.820313 12.820312-12.820313h212.074219c7.082031 0 12.820312 5.742187 12.820312 12.820313v.023437c0 7.082031-5.738281 12.820313-12.820312 12.820313zm0 0" fill="#efe2dd"/><path d="m241.148438 66.226562h-14.515626c.207032.910157.324219 1.851563.324219 2.824219 0 7.085938-5.746093 12.828125-12.832031 12.828125h-197.542969c1.289063 5.726563 6.394531 10.007813 12.511719 10.007813h212.054688c7.085937 0 12.828124-5.742188 12.828124-12.828125 0-7.085938-5.742187-12.832032-12.828124-12.832032zm0 0" fill="#e1d3ce"/><path d="m241.148438 478.832031h-14.515626c.207032.90625.324219 1.851563.324219 2.820313 0 7.085937-5.746093 12.832031-12.832031 12.832031h-197.542969c1.289063 5.726563 6.394531 10.007813 12.511719 10.007813h212.054688c7.085937 0 12.828124-5.746094 12.828124-12.832032 0-7.085937-5.742187-12.828125-12.828124-12.828125zm0 0" fill="#e1d3ce"/><path d="m235.367188 225.207031-150.507813 150.507813c-2.054687 2.054687-5.550781 1.300781-6.578125-1.421875l-12.140625-32.222657c-.40625-1.074218-1.257813-1.925781-2.335937-2.332031l-32.21875-12.144531c-2.722657-1.023438-3.476563-4.519531-1.421876-6.574219l150.570313-150.570312c2.050781-2.050781 5.527344-1.3125 6.570313 1.394531l12.59375 32.765625c.414062 1.074219 1.269531 1.921875 2.351562 2.320313l31.671875 11.691406c2.738281 1.011718 3.507813 4.519531 1.445313 6.585937zm0 0" fill="#ff6930"/><path d="m233.921875 218.621094-31.671875-11.691406c-1.082031-.398438-1.9375-1.246094-2.351562-2.320313l-1.382813-3.589844v61.039063l36.851563-36.851563c2.0625-2.066406 1.292968-5.574219-1.445313-6.585937zm0 0" fill="#ff5426"/><path d="m262.570312 325.78125c4.144532 0 7.503907-3.359375 7.503907-7.507812v-172.253907c0-8.117187-2.199219-16.089843-6.359375-23.058593l-14.964844-25.054688c7.457031-3.019531 12.734375-10.324219 12.734375-18.847656 0-11.214844-9.125-20.335938-20.335937-20.335938h-14.648438c8.984375-17.273437 4.535156-39.070312-11.464844-51.265625-8.667968-6.609375-19.390625-8.449219-30.191406-6.988281-10.800781 1.457031-20.390625 6.035156-26.996094 14.703125l-33.199218 43.550781h-95.554688c-11.214844 0-20.339844 9.121094-20.339844 20.335938 0 8.476562 5.214844 15.75 12.601563 18.800781l-14.992188 25.101563c-4.164062 6.96875-6.363281 14.941406-6.363281 23.058593v276.148438c0 8.226562 2.257812 16.296875 6.527344 23.332031l16.285156 26.828125c-8.148438 2.65625-14.058594 10.3125-14.058594 19.335937 0 11.210938 9.125 20.335938 20.339844 20.335938h212.054688c11.210937 0 20.335937-9.125 20.335937-20.335938 0-9.074218-5.972656-16.773437-14.1875-19.382812l16.253906-26.78125c4.269531-7.035156 6.527344-15.101562 6.527344-23.332031v-69.863281c0-4.148438-3.359375-7.507813-7.507813-7.507813-4.144531 0-7.503906 3.359375-7.503906 7.507813v69.863281c0 5.480469-1.503906 10.855469-4.347656 15.542969l-20.402344 33.613281h-190.554687l-20.402344-33.613281c-2.84375-4.6875-4.347656-10.0625-4.347656-15.542969v-276.148438c0-5.40625 1.464843-10.71875 4.238281-15.363281l18.675781-31.261719h34.0625c4.144531 0 7.503907-3.359375 7.503907-7.503906s-3.359376-7.507813-7.503907-7.507813h-42.894531c-2.9375 0-5.324219-2.386718-5.324219-5.324218s2.386719-5.324219 5.324219-5.324219h212.054688c2.9375 0 5.324218 2.386719 5.324218 5.324219s-2.386718 5.324218-5.324218 5.324218h-134.464844c-4.148438 0-7.507813 3.363282-7.507813 7.507813s3.359375 7.503906 7.507813 7.503906h125.46875l18.671875 31.261719c2.773437 4.644531 4.238281 9.957031 4.238281 15.363281v172.253907c0 4.148437 3.363281 7.507812 7.507812 7.507812zm-21.421874 171.207031h-212.054688c-2.9375 0-5.328125-2.390625-5.328125-5.328125 0-2.933594 2.390625-5.324218 5.328125-5.324218h212.054688c2.933593 0 5.324218 2.390624 5.324218 5.324218 0 2.9375-2.390625 5.328125-5.324218 5.328125zm-71.363282-472.71875c4.175782-5.476562 10.238282-9.003906 17.066406-9.921875 6.828126-.929687 13.605469.871094 19.082032 5.046875 11.3125 8.621094 13.5 24.839844 4.878906 36.148438l-2.425781 3.175781h-10.820313c2.957032-1.292969 5.636719-3.324219 7.726563-6.066406 6.570312-8.617188 4.902343-20.972656-3.714844-27.542969-8.617187-6.566406-20.972656-4.902344-27.542969 3.714844-3.183594 4.175781-4.550781 9.339843-3.847656 14.542969.703125 5.203124 3.386719 9.820312 7.5625 13 1.261719.964843 2.609375 1.742187 4 2.355468h-38.226562zm16.1875 13.65625c.914063-1.195312 2.296875-1.824219 3.695313-1.824219.980469 0 1.96875.308594 2.808593.949219 2.035157 1.550781 2.425782 4.46875.875 6.5-.75.984375-1.839843 1.621094-3.070312 1.785157-1.222656.167968-2.445312-.15625-3.429688-.90625-.988281-.753907-1.621093-1.839844-1.785156-3.070313-.167968-1.226563.15625-2.445313.90625-3.433594zm0 0"/><path d="m133.484375 217.699219c-2.933594-2.929688-7.683594-2.929688-10.617187 0l-98.011719 98.011719c-2.777344 2.777343-3.9375 6.726562-3.109375 10.5625.828125 3.839843 3.515625 6.960937 7.191406 8.347656l30.738281 11.578125 11.582031 30.738281c1.386719 3.675781 4.503907 6.367188 8.34375 7.195312.816407.175782 1.636719.261719 2.449219.261719 3.015625 0 5.929688-1.1875 8.117188-3.375l150.507812-150.503906c2.785157-2.789063 3.949219-6.753906 3.101563-10.605469-.84375-3.851562-3.558594-6.96875-7.257813-8.332031l-30.183593-11.140625-12.027344-31.289062c-1.40625-3.652344-4.527344-6.316407-8.355469-7.128907-3.828125-.808593-7.761719.355469-10.527344 3.121094l-29.457031 29.457031c-2.929688 2.929688-2.929688 7.683594 0 10.613282 2.933594 2.929687 7.683594 2.929687 10.617188 0l25.644531-25.644532 10.660156 27.738282c1.1875 3.089843 3.648437 5.519531 6.757813 6.667968l26.539062 9.796875-142.796875 142.796875-10.222656-27.136718c-1.167969-3.097657-3.613281-5.546876-6.714844-6.714844l-27.140625-10.226563 94.171875-94.171875c2.929687-2.933594 2.929687-7.683594 0-10.617187zm0 0"/></svg>