<svg height="25px" viewBox="-70 0 512 512.001" width="25px" xmlns="http://www.w3.org/2000/svg"><path d="m165.285156 480.996094-11.796875-38.882813c-2.535156-8.347656-3.550781-17.078125-3.007812-25.785156l24.867187-398.523437c.265625-4.246094-3.105468-7.839844-7.363281-7.839844h-153.070313c-4.246093 0-7.617187 3.578125-7.367187 7.816406l23.660156 398.660156c.511719 8.632813-.511719 17.289063-3.023437 25.5625l-11.828125 38.992188c-3.542969 11.683594 5.199219 23.472656 17.40625 23.472656h114.117187c12.207032 0 20.949219-11.789062 17.40625-23.472656zm0 0" fill="#efe2dd"/><path d="m175.347656 17.804688c.265625-4.246094-3.109375-7.839844-7.363281-7.839844h-41.648437l-24.132813 386.714844c-.542969 8.707031.472656 17.4375 3.007813 25.785156l11.796874 38.882812c3.542969 11.683594-5.199218 23.46875-17.40625 23.46875h-83.972656c-.855468 10.300782 7.257813 19.648438 18.132813 19.648438h114.117187c12.207032 0 20.949219-11.785156 17.40625-23.46875l-11.796875-38.882813c-2.535156-8.347656-3.550781-17.082031-3.007812-25.785156zm0 0" fill="#e1d3ce"/><path d="m11.761719 88.824219 18.445312 310.738281c16.59375 13.832031 37.945313 22.160156 61.242188 22.160156 22.726562 0 43.597656-7.925781 60.011719-21.15625l19.457031-311.742187zm0 0" fill="#ffa812"/><path d="m121.414062 88.824219-19.210937 307.855469c-.507813 8.128906.363281 16.273437 2.539063 24.113281 17.542968-2.441407 33.5625-9.625 46.722656-20.226563l19.453125-311.742187zm0 0" fill="#ff9a00"/><path d="m167.984375 2.433594h-153.070313c-4.089843 0-8.046874 1.707031-10.855468 4.683594-2.804688 2.976562-4.273438 7.027343-4.0312502 11.113281l23.6601562 398.65625c.460938 7.769531-.453125 15.484375-2.710938 22.933593l-11.832031 38.992188c-2.386719 7.875-.945312 16.179688 3.957031 22.789062 4.898438 6.609376 12.429688 10.398438 20.660157 10.398438h114.117187c8.226563 0 15.757813-3.789062 20.660156-10.398438 4.902344-6.609374 6.34375-14.914062 3.953126-22.789062l-11.796876-38.882812c-2.277343-7.511719-3.1875-15.296876-2.699218-23.128907l24.871094-398.527343c.253906-4.089844-1.207032-8.152344-4.015626-11.136719-2.808593-2.992188-6.769531-4.703125-10.867187-4.703125zm-.164063 15.066406-3.980468 63.789062h-144.976563l-3.785156-63.789062zm-9.746093 465.683594c.988281 3.261718.394531 6.703125-1.636719 9.441406s-5.148438 4.308594-8.558594 4.308594h-114.117187c-3.410157 0-6.53125-1.570313-8.558594-4.308594-2.03125-2.738281-2.628906-6.179688-1.640625-9.441406l11.832031-38.992188c2.777344-9.15625 3.898438-18.644531 3.332031-28.199218l-.074218-1.253907c1.867187 1.113281 3.769531 2.175781 5.699218 3.167969 1.101563.566406 2.277344.835938 3.4375.835938 2.730469 0 5.371094-1.496094 6.707032-4.09375 1.898437-3.703126.441406-8.242188-3.261719-10.144532-4.816406-2.472656-9.410156-5.40625-13.707031-8.730468l-17.769532-299.417969h143.140626l-18.742188 300.335937c-15.300781 11.453125-33.449219 17.5-52.707031 17.5-3.351563 0-6.722657-.191406-10.019531-.5625-4.136719-.46875-7.867188 2.503906-8.335938 6.636719-.464844 4.132813 2.503906 7.867187 6.640625 8.332031 3.859375.4375 7.800781.660156 11.714844.660156 18.125 0 35.945312-4.847656 51.535156-13.816406l-.023437.417969c-.601563 9.636719.515624 19.207031 3.316406 28.441406zm0 0"/><path d="m103.605469 285.792969c0 4.496093-3.644531 8.140625-8.140625 8.140625s-8.140625-3.644532-8.140625-8.140625c0-4.496094 3.644531-8.140625 8.140625-8.140625s8.140625 3.644531 8.140625 8.140625zm0 0"/><path d="m78.070312 114.027344c0 4.496094-3.644531 8.140625-8.140624 8.140625-4.496094 0-8.140626-3.644531-8.140626-8.140625s3.644532-8.140625 8.140626-8.140625c4.496093 0 8.140624 3.644531 8.140624 8.140625zm0 0"/><path d="m78.070312 227.53125c0 4.496094-3.644531 8.140625-8.140624 8.140625-4.496094 0-8.140626-3.644531-8.140626-8.140625s3.644532-8.140625 8.140626-8.140625c4.496093 0 8.140624 3.644531 8.140624 8.140625zm0 0"/><path d="m80.582031 318.179688c0 4.496093-3.644531 8.140624-8.140625 8.140624s-8.140625-3.644531-8.140625-8.140624c0-4.496094 3.644531-8.140626 8.140625-8.140626s8.140625 3.644532 8.140625 8.140626zm0 0"/><path d="m96.546875 342.789062c0 4.496094-3.644531 8.140626-8.140625 8.140626s-8.140625-3.644532-8.140625-8.140626c0-4.496093 3.644531-8.140624 8.140625-8.140624s8.140625 3.644531 8.140625 8.140624zm0 0"/><path d="m317.808594 93.835938v-30.535157h-76.460938v30.539063c0 37.417968-6.589844 74.542968-19.46875 109.679687l-17.207031 46.945313c-6.265625 17.089844-9.46875 35.152344-9.46875 53.355468v180.148438c0 10.933594 8.863281 19.800781 19.800781 19.800781h129.144532c10.9375 0 19.804687-8.867187 19.804687-19.800781v-180.152344c0-18.203125-3.207031-36.261718-9.472656-53.355468l-17.207031-46.945313c-12.875-35.132813-19.464844-72.257813-19.464844-109.679687zm0 0" fill="#9c5e5e"/><path d="m354.480469 250.460938-17.207031-46.945313c-12.878907-35.132813-19.464844-72.257813-19.464844-109.679687v-30.535157h-49.894532v8.1875c0 37.417969 6.589844 74.546875 19.46875 109.679688l17.207032 46.945312c6.265625 17.09375 9.46875 35.152344 9.46875 53.355469v148.039062c0 28.671876-23.242188 51.914063-51.914063 51.914063h-66.941406v2.546875c0 10.933594 8.863281 19.800781 19.800781 19.800781h129.144532c10.9375 0 19.804687-8.867187 19.804687-19.800781v-180.152344c0-18.203125-3.207031-36.261718-9.472656-53.355468zm0 0" fill="#855151"/><path d="m313.46875 71.347656h-67.785156c-5.558594 0-9.890625-4.824218-9.292969-10.351562l3.445313-31.953125h79.480468l3.445313 31.953125c.597656 5.527344-3.734375 10.351562-9.292969 10.351562zm0 0" fill="#9c5e5e"/><path d="m322.761719 60.996094-3.445313-31.953125h-21.199218l3.445312 31.953125c.597656 5.527344-3.734375 10.351562-9.296875 10.351562h21.203125c5.558594 0 9.890625-4.824218 9.292969-10.351562zm0 0" fill="#855151"/><path d="m313.539062 7.535156h-67.925781c-5.125 0-9.277343 4.152344-9.277343 9.277344v21.640625c0 1.585937 1.285156 2.871094 2.871093 2.871094h80.738281c1.585938 0 2.871094-1.285157 2.871094-2.871094v-21.640625c0-5.125-4.152344-9.277344-9.277344-9.277344zm0 0" fill="#eab765"/><path d="m313.5 7.535156h-15.457031v21.4375c0 1.589844-1.292969 2.882813-2.886719 2.882813h-58.820312v6.585937c0 1.59375 1.289062 2.882813 2.882812 2.882813h80.714844c1.59375 0 2.882812-1.289063 2.882812-2.882813v-21.585937c0-5.148438-4.171875-9.320313-9.316406-9.320313zm0 0" fill="#ca9d56"/><path d="m195.203125 322.125h168.75v104.113281h-168.75zm0 0" fill="#eab765"/><path d="m314.058594 322.125h49.894531v104.113281h-49.894531zm0 0" fill="#ca9d56"/><path d="m361.554688 247.867188-17.207032-46.941407c-12.613281-34.410156-19.007812-70.441406-19.007812-107.089843v-19.867188c.234375-.230469.472656-.449219.691406-.691406 3.195312-3.558594 4.734375-8.332032 4.222656-13.089844l-1.714844-15.882812c1.140626-1.671876 1.8125-3.691407 1.8125-5.863282v-21.585937c0-9.296875-7.558593-16.855469-16.851562-16.855469h-67.84375c-9.292969 0-16.855469 7.558594-16.855469 16.855469v21.585937c0 2.171875.671875 4.191406 1.8125 5.859375l-1.714843 15.886719c-.511719 4.757812 1.027343 9.53125 4.226562 13.089844.214844.242187.457031.460937.6875.691406v19.867188c0 36.648437-6.394531 72.675781-19.007812 107.085937-1.429688 3.90625.574218 8.234375 4.480468 9.667969.855469.3125 1.730469.460937 2.59375.460937 3.070313 0 5.957032-1.890625 7.074219-4.941406 13.222656-36.078125 19.925781-73.851563 19.925781-112.273437v-14.953126h23.394532c4.164062 0 7.535156-3.375 7.535156-7.535156s-3.371094-7.535156-7.535156-7.535156h-26.585938c-.289062 0-.527344-.066406-.730469-.15625-.058593-.03125-.121093-.058594-.179687-.089844-.183594-.105468-.335938-.234375-.441406-.355468-.246094-.273438-.527344-.742188-.457032-1.410157l1.398438-12.941406h68.601562l1.394532 12.941406c.070312.667969-.207032 1.132813-.457032 1.410157-.105468.121093-.257812.25-.445312.355468-.054688.03125-.117188.054688-.171875.085938-.207031.09375-.445313.160156-.734375.160156h-6.753906c-4.160157 0-7.535157 3.375-7.535157 7.535156s3.375 7.535156 7.535157 7.535156h3.5625v14.953126c0 38.421874 6.703124 76.195312 19.925781 112.273437l17.207031 46.945313c5.980469 16.308593 9.011719 33.390624 9.011719 50.761718v10.773438h-153.683594v-10.773438c0-17.371094 3.03125-34.453125 9.011719-50.761718l5.429687-14.8125c1.429688-3.90625-.574219-8.234376-4.484375-9.667969-3.90625-1.433594-8.234375.574219-9.664062 4.480469l-5.429688 14.8125c-6.589844 17.980468-9.929687 36.804687-9.929687 55.949218v180.148438c0 15.074218 12.261719 27.335937 27.335937 27.335937h129.144532c15.074218 0 27.335937-12.261719 27.335937-27.335937v-180.148438c0-19.144531-3.339844-37.96875-9.929687-55.949218zm-117.6875-231.011719c0-.988281.800781-1.789063 1.789062-1.789063h67.84375c.984375 0 1.785156.800782 1.785156 1.789063v16.9375h-71.414062v-16.9375zm112.550781 312.800781v89.046875h-153.683594v-89.046875zm-12.269531 166.578125h-129.144532c-6.765625 0-12.269531-5.503906-12.269531-12.269531v-50.195313h153.683594v50.195313c0 6.765625-5.503907 12.269531-12.269531 12.269531zm0 0"/></svg>