<?xml version="1.0" encoding="iso-8859-1"?>
<!-- Generator: Adobe Illustrator 19.0.0, SVG Export Plug-In . SVG Version: 6.00 Build 0)  -->
<svg version="1.1" id="Capa_1" xmlns="http://www.w3.org/2000/svg" xmlns:xlink="http://www.w3.org/1999/xlink" x="0px" y="0px"
     viewBox="0 0 512 512" style="enable-background:new 0 0 512 512;" xml:space="preserve" fill="#757575">
<g>
	<g>
		<path d="M127.586,302.395C125.099,301.738,122.618,301,120,301c-16.538,0-30,13.462-30,30c0,16.538,13.462,30,30,30
			c2.618,0,5.099-0.738,7.586-1.395C122.904,351.063,120,341.411,120,331S122.904,310.937,127.586,302.395z"/>
	</g>
</g>
<g>
	<g>
		<path d="M180,301c-16.538,0-30,13.462-30,30c0,16.538,13.462,30,30,30c16.538,0,30-13.462,30-30C210,314.462,196.538,301,180,301z
			"/>
	</g>
</g>
<g>
	<g>
		<rect y="151" width="512" height="30"/>
	</g>
</g>
<g>
	<g>
		<path d="M467,61H45C20.186,61,0,81.186,0,106v15h512v-15C512,81.186,491.814,61,467,61z"/>
	</g>
</g>
<g>
	<g>
		<path d="M0,211v195c0,24.814,20.186,45,45,45h422c24.814,0,45-20.186,45-45V211H0z M180,391c-10.902,0-20.995-3.142-29.813-8.242
			C141.079,388.074,130.717,391,120,391c-33.091,0-60-26.909-60-60s26.909-60,60-60c10.717,0,21.079,2.926,30.187,8.242
			c8.818-5.1,18.911-8.242,29.813-8.242c33.091,0,60,26.909,60,60S213.091,391,180,391z M315,361h-30c-8.291,0-15-6.709-15-15
			c0-8.291,6.709-15,15-15h30c8.291,0,15,6.709,15,15C330,354.291,323.291,361,315,361z M406,361h-30c-8.291,0-15-6.709-15-15
			c0-8.291,6.709-15,15-15h30c8.291,0,15,6.709,15,15C421,354.291,414.291,361,406,361z"/>
	</g>
</g>
</svg>