<?xml version="1.0" encoding="UTF-8"?>
<svg width="670px" height="471px" viewBox="0 0 670 471" version="1.1" xmlns="http://www.w3.org/2000/svg" xmlns:xlink="http://www.w3.org/1999/xlink">
    <!-- Generator: Sketch 54.1 (76490) - https://sketchapp.com -->
    <title>Fill 1</title>
    <desc>Created with Sketch.</desc>
    <g id="final" stroke="none" stroke-width="1" fill="none" fill-rule="evenodd">
        <g id="home-moduloregistros" transform="translate(-770.000000, -2379.000000)" fill="#FFFFFF">
            <g id="Group-16" transform="translate(-1.000000, 2379.000000)">
                <g id="Group-6">
                    <path d="M1205.01087,-303.426362 C1209.29794,-258.282006 1168.87826,-246.024819 1116.99329,-203.116421 C1092.02342,-182.466563 1079.98346,-128.74066 1051.60637,-98.7001752 C1017.49443,-62.588667 951.675866,-58.8370427 923.077562,-16.4424178 C851.786428,89.2408039 878.955266,171.273707 828.307927,229.608829 C764.332581,303.295023 718.416198,291.954385 692.40703,349.389655 C605.198759,541.979555 1175.28065,761.487602 1377.00243,575.770299 C1460.96452,498.469351 1527.59975,121.725468 1482.377,-94.6367792 C1468.21049,-162.414597 1375.75511,-232.011125 1205.01087,-303.426362 Z" id="Fill-1" transform="translate(1090.197594, 171.332352) rotate(-19.000000) translate(-1090.197594, -171.332352) "></path>
                </g>
            </g>
        </g>
    </g>
</svg>