<?xml version="1.0" encoding="iso-8859-1"?>
<!-- Generator: Adobe Illustrator 16.0.0, SVG Export Plug-In . SVG Version: 6.00 Build 0)  -->
<!DOCTYPE svg PUBLIC "-//W3C//DTD SVG 1.1//EN" "http://www.w3.org/Graphics/SVG/1.1/DTD/svg11.dtd">
<svg version="1.1" id="background" xmlns="http://www.w3.org/2000/svg" xmlns:xlink="http://www.w3.org/1999/xlink" x="0px" y="0px"
	 width="433px" height="365px" viewBox="0 0 433 365" style="enable-background:new 0 0 433 365;" xml:space="preserve">
<g style="opacity:0.5;">
	<g>
		<g>
			<path style="fill:#EFC5F9;" d="M9.804,268.617c2.787,10.096,8.548,18.888,16.058,26.138c8.878,8.585,20.202,15.016,31.952,18.936
				c21.686,7.229,44.993,7.373,67.844,7.979c27.415,0.724,54.94,2.208,82.402,2.777c1.219,0.026,2.441,0.053,3.66,0.068
				c28.956,0.521,57.833-0.058,86.45-3.701c2.085-0.267,4.164-0.543,6.244-0.847c3.383-0.483,6.766-1.01,10.144-1.59
				c30.153-5.159,61.552-15.377,80.679-39.249c1.149-1.437,2.245-2.909,3.282-4.415c13.111-18.951,17.558-43.015,17.968-66.211
				c0.426-24.096-3.691-49.712-19.457-67.94c-14.213-16.43-35.766-24.446-56.871-29.579c-21.111-5.133-42.999-8.117-62.689-17.292
				c-28.447-13.255-49.51-38.015-73.643-58.073c-24.133-20.063-55.936-36.297-86.057-27.5C95.402,14.649,78.68,34.08,69.457,55.479
				c-9.219,21.398-12.085,44.893-15.245,67.977c-0.031,0.213-0.058,0.426-0.09,0.638c-2.42,17.611-7.111,34.787-13.915,51.111
				c-4.048,9.712-8.84,19.127-14.346,28.154c-0.766,1.266-1.553,2.526-2.351,3.776c-2.83,4.431-5.431,9-7.681,13.766
				C8.841,235.714,5.447,252.83,9.804,268.617z"/>
		</g>
		<g>
			<g>
				
					<linearGradient id="SVGID_1_" gradientUnits="userSpaceOnUse" x1="321.0391" y1="324.4473" x2="321.0391" y2="103.2007" gradientTransform="matrix(-1 0 0 1 438 0)">
					<stop  offset="0" style="stop-color:#EFC5F9"/>
					<stop  offset="1" style="stop-color:#D4A0E0"/>
				</linearGradient>
				<path style="fill:url(#SVGID_1_);" d="M25.861,203.358v91.396c8.878,8.585,20.202,15.016,31.952,18.936
					c21.686,7.229,44.993,7.373,67.844,7.979c27.415,0.724,54.94,2.208,82.402,2.777v-169.3h-18.233v-51.946h-35.521v37.015h-35.425
					v22.452L90.478,134.27l-33.101,33.1l0.154,0.149v7.686H40.207C36.159,184.917,31.367,194.332,25.861,203.358z"/>
				
					<linearGradient id="SVGID_2_" gradientUnits="userSpaceOnUse" x1="132.8809" y1="324.6807" x2="132.8808" y2="117.9507" gradientTransform="matrix(-1 0 0 1 438 0)">
					<stop  offset="0" style="stop-color:#EFC5F9"/>
					<stop  offset="1" style="stop-color:#D4A0E0"/>
				</linearGradient>
				<path style="fill:url(#SVGID_2_);" d="M211.72,140.493v184.022c28.956,0.521,57.833-0.058,86.45-3.701V216.32h6.244v103.646
					c3.383-0.483,6.766-1.01,10.144-1.59c30.153-5.159,61.552-15.377,80.679-39.249c1.149-1.437,2.245-2.909,3.282-4.415v-56.334
					h-22.036v-45.653h-72.068v33.334h-6.244v-33.334h-6.463v-9.276h-7.181v-6.644h-13.798v-38.855h-1.957v38.855h-13.793v6.644
					h-7.186v9.276h-6.457v-32.233H211.72z"/>
			</g>
			<g>
				<rect x="141.938" y="151.819" style="fill:#FCF0FF;" width="6.528" height="15.542"/>
				<rect x="130.592" y="172.352" style="fill:#FCF0FF;" width="6.528" height="15.542"/>
				<rect x="130.592" y="151.819" style="fill:#FCF0FF;" width="6.528" height="15.542"/>
				<rect x="338.216" y="216.464" style="fill:#FCF0FF;" width="10.771" height="25.644"/>
				<rect x="356.936" y="182.589" style="fill:#FCF0FF;" width="10.77" height="25.644"/>
				<rect x="356.936" y="216.464" style="fill:#FCF0FF;" width="10.77" height="25.644"/>
				<rect x="94.438" y="164.551" style="fill:#FCF0FF;" width="6.527" height="15.543"/>
				<rect x="83.092" y="185.083" style="fill:#FCF0FF;" width="6.527" height="15.542"/>
				<rect x="83.092" y="164.551" style="fill:#FCF0FF;" width="6.527" height="15.543"/>
				<rect x="173.686" y="289.879" style="fill:#FCF0FF;" width="6.527" height="15.542"/>
				<rect x="185.031" y="269.347" style="fill:#FCF0FF;" width="6.528" height="15.542"/>
				<rect x="185.031" y="289.879" style="fill:#FCF0FF;" width="6.528" height="15.542"/>
				<rect x="278.676" y="180.094" style="fill:#FCF0FF;" width="4.896" height="36.301"/>
				<rect x="268.637" y="190.133" style="fill:#FCF0FF;" width="4.896" height="36.302"/>
				<rect x="258.598" y="200.172" style="fill:#FCF0FF;" width="4.896" height="36.301"/>
				<rect x="230.57" y="151.819" style="fill:#FCF0FF;" width="4.408" height="12.732"/>
				<rect x="217.743" y="151.819" style="fill:#FCF0FF;" width="4.407" height="12.732"/>
				<rect x="217.743" y="191.878" style="fill:#FCF0FF;" width="4.407" height="12.732"/>
				<rect x="230.57" y="173.728" style="fill:#FCF0FF;" width="4.408" height="12.732"/>
				<rect x="224.156" y="173.728" style="fill:#FCF0FF;" width="4.408" height="12.732"/>
				<rect x="35.33" y="237.543" style="fill:#FCF0FF;" width="25.77" height="2.141"/>
				<rect x="35.33" y="228.216" style="fill:#FCF0FF;" width="25.77" height="2.141"/>
				<rect x="35.33" y="218.889" style="fill:#FCF0FF;" width="25.77" height="2.14"/>
				<rect x="35.33" y="209.561" style="fill:#FCF0FF;" width="25.77" height="2.141"/>
			</g>
		</g>
	</g>
	<path style="fill:#FFFFFF;" d="M341.256,157.88c-1.699-1.676-2.754-4.005-2.754-6.582c0-5.106,4.139-9.245,9.245-9.245
		c0.829,0,1.632,0.111,2.397,0.316c-0.004-0.105-0.008-0.21-0.008-0.316c0-5.971,4.84-10.812,10.813-10.812
		c4.957,0,9.134,3.339,10.408,7.89c0.234-0.033,0.473-0.055,0.716-0.055c2.688,0,4.892,2.069,5.112,4.702
		c0.007,0,0.014-0.001,0.021-0.001c4.933,0,8.932,3.999,8.932,8.932c0,1.928-0.613,3.711-1.651,5.171H341.256z"/>
	<path style="fill:#FFFFFF;" d="M94.503,62.11c-0.128-0.542-0.197-1.105-0.197-1.686c0-4.052,3.285-7.337,7.338-7.337
		c0.968,0,1.891,0.189,2.736,0.53c0.784-2.334,2.988-4.016,5.587-4.016c0.255,0,0.505,0.018,0.751,0.05
		c0.584-6.634,6.151-11.837,12.938-11.837c7.083,0,12.839,5.671,12.983,12.721c3.136,1.519,5.299,4.731,5.299,8.449
		c0,1.097-0.189,2.148-0.536,3.127H94.503z"/>
	<path style="fill:#FFFFFF;" d="M382.702,205.003c-0.127-0.541-0.196-1.105-0.196-1.686c0-4.052,3.285-7.337,7.337-7.337
		c0.968,0,1.891,0.189,2.737,0.53c0.783-2.333,2.988-4.016,5.586-4.016c0.255,0,0.506,0.018,0.752,0.049
		c0.584-6.634,6.15-11.837,12.937-11.837c7.084,0,12.839,5.671,12.983,12.721c3.137,1.519,5.3,4.731,5.3,8.449
		c0,1.097-0.19,2.148-0.536,3.127H382.702z"/>
	<path style="fill:#FFFFFF;" d="M234.884,93.358c0.374-0.839,0.586-1.766,0.586-2.745c0-3.73-3.024-6.755-6.756-6.755
		c-1.638,0-3.139,0.583-4.308,1.553c-0.592-2.521-2.85-4.399-5.551-4.399c-0.905,0-1.758,0.216-2.518,0.591
		c-0.748-4.499-4.656-7.929-9.368-7.929c-5.246,0-9.499,4.253-9.499,9.5c0,0.127,0.004,0.254,0.01,0.38
		c-0.723-0.243-1.494-0.38-2.298-0.38c-3.983,0-7.214,3.229-7.214,7.213c0,1.061,0.235,2.065,0.646,2.972H234.884z"/>
	<path style="fill:#FFFFFF;" d="M63.024,196.303c0.374-0.839,0.587-1.767,0.587-2.745c0-3.73-3.025-6.755-6.756-6.755
		c-1.638,0-3.139,0.583-4.309,1.553c-0.592-2.52-2.85-4.399-5.551-4.399c-0.904,0-1.757,0.216-2.517,0.591
		c-0.749-4.499-4.657-7.929-9.368-7.929c-5.247,0-9.5,4.253-9.5,9.5c0,0.127,0.005,0.254,0.01,0.38
		c-0.723-0.243-1.493-0.38-2.298-0.38c-3.983,0-7.213,3.229-7.213,7.213c0,1.062,0.235,2.065,0.646,2.973H63.024z"/>
</g>
<g>
	<g>
		<g>
			<g>
				<g>
					<path style="fill:#4C3C3C;" d="M144.097,354.411c19.726,0,35.811-16.091,35.811-35.812c0-19.727-16.086-35.813-35.811-35.813
						c-19.723,0-35.81,16.086-35.81,35.813C108.287,338.32,124.374,354.411,144.097,354.411z"/>
					<g>
						<path style="fill:#909598;" d="M144.097,341.419c12.571,0,22.827-10.249,22.827-22.819c0-12.572-10.256-22.825-22.827-22.825
							c-12.569,0-22.825,10.253-22.825,22.825C121.272,331.17,131.525,341.419,144.097,341.419z"/>
						<circle style="fill:#696B6E;" cx="144.097" cy="318.6" r="18.081"/>
						<path style="fill:#FFFFFF;" d="M144.92,300.467c0.724,0.032,1.443,0.107,2.144,0.224l-1.781,6.622L144.92,300.467
							L144.92,300.467z M148.671,301.026c0.699,0.183,1.386,0.408,2.051,0.664l-3.118,6.112L148.671,301.026L148.671,301.026z
							 M152.222,302.367l-2.447,6.404l4.317-5.328C153.491,303.05,152.868,302.686,152.222,302.367L152.222,302.367z
							 M155.419,304.411c0.561,0.452,1.096,0.935,1.602,1.447l-5.329,4.306L155.419,304.411L155.419,304.411z M158.124,307.079
							c0.455,0.552,0.88,1.135,1.268,1.738l-6.111,3.108L158.124,307.079L158.124,307.079z M160.213,310.243l-5.746,3.738
							l6.625-1.766C160.839,311.537,160.544,310.879,160.213,310.243L160.213,310.243z M161.6,313.775
							c0.188,0.688,0.34,1.393,0.448,2.108l-6.848,0.355L161.6,313.775L161.6,313.775z M162.217,317.52
							c0.019,0.354,0.033,0.72,0.033,1.08c0,0.359-0.011,0.72-0.033,1.074l-6.769-1.074L162.217,317.52L162.217,317.52z
							 M162.047,321.314c-0.108,0.715-0.259,1.416-0.448,2.104l-6.4-2.459L162.047,321.314L162.047,321.314z M161.092,324.982
							l-6.625-1.767l5.746,3.74C160.544,326.319,160.839,325.66,161.092,324.982L161.092,324.982z M159.391,328.375
							c-0.39,0.612-0.813,1.192-1.268,1.744l-4.843-4.847L159.391,328.375L159.391,328.375z M157.023,331.343l-5.329-4.309
							l3.727,5.748C155.984,332.333,156.517,331.853,157.023,331.343L157.023,331.343z M154.092,333.75l-4.317-5.322l2.447,6.401
							C152.868,334.507,153.491,334.147,154.092,333.75L154.092,333.75z M150.723,335.502c-0.665,0.263-1.352,0.481-2.051,0.664
							l-1.066-6.775L150.723,335.502L150.723,335.502z M147.064,336.503c-0.701,0.116-1.418,0.191-2.144,0.224l0.363-6.838
							L147.064,336.503L147.064,336.503z M143.276,336.727c-0.728-0.032-1.443-0.107-2.143-0.224l1.78-6.617L143.276,336.727
							L143.276,336.727z M139.522,336.166c-0.702-0.183-1.385-0.401-2.051-0.664l3.118-6.111L139.522,336.166L139.522,336.166z
							 M135.969,334.829l2.454-6.401l-4.318,5.322C134.703,334.147,135.325,334.507,135.969,334.829L135.969,334.829z
							 M132.774,332.782c-0.56-0.449-1.096-0.935-1.6-1.443l5.331-4.311L132.774,332.782L132.774,332.782z M130.071,330.119
							c-0.455-0.552-0.878-1.137-1.27-1.744l6.112-3.107L130.071,330.119L130.071,330.119z M127.981,326.956l5.745-3.74
							l-6.626,1.767C127.354,325.66,127.651,326.319,127.981,326.956L127.981,326.956z M126.594,323.418
							c-0.192-0.688-0.34-1.389-0.45-2.104l6.848-0.355L126.594,323.418L126.594,323.418z M125.979,319.674
							c-0.02-0.354-0.032-0.715-0.032-1.074c0-0.36,0.012-0.726,0.032-1.08l6.77,1.08L125.979,319.674L125.979,319.674z
							 M126.146,315.884c0.107-0.716,0.258-1.42,0.45-2.108l6.399,2.464L126.146,315.884L126.146,315.884z M127.101,312.216
							l6.626,1.766l-5.745-3.738C127.651,310.879,127.354,311.537,127.101,312.216L127.101,312.216z M128.801,308.817
							c0.391-0.604,0.813-1.187,1.27-1.738l4.843,4.847L128.801,308.817L128.801,308.817z M131.174,305.854l5.331,4.31l-3.731-5.753
							C132.214,304.859,131.678,305.346,131.174,305.854L131.174,305.854z M134.104,303.443l4.318,5.328l-2.454-6.404
							C135.325,302.686,134.703,303.05,134.104,303.443L134.104,303.443z M137.471,301.69c0.666-0.256,1.349-0.481,2.05-0.664
							l1.068,6.776L137.471,301.69L137.471,301.69z M141.13,300.687c0.701-0.112,1.418-0.188,2.144-0.22l-0.367,6.841
							L141.13,300.687z"/>
						<path style="fill:#C1C2C5;" d="M144.097,330.74c6.69,0,12.146-5.454,12.146-12.141c0-6.692-5.456-12.146-12.146-12.146
							c-6.688,0-12.145,5.454-12.145,12.146C131.952,325.286,137.407,330.74,144.097,330.74z"/>
						<path style="fill:#696B6E;" d="M144.097,309.153c5.216,0,9.447,4.23,9.447,9.446c0,5.209-4.231,9.439-9.447,9.439
							c-5.216,0-9.444-4.23-9.444-9.439C134.653,313.384,138.881,309.153,144.097,309.153L144.097,309.153z M144.097,310.262
							c-4.604,0-8.338,3.729-8.338,8.338c0,4.602,3.735,8.332,8.338,8.332c4.606,0,8.339-3.73,8.339-8.332
							C152.436,313.99,148.703,310.262,144.097,310.262z"/>
					</g>
				</g>
				<g>
					<path style="fill:#696B6E;" d="M144.097,324.239c3.109,0,5.644-2.537,5.644-5.64c0-3.113-2.535-5.642-5.644-5.642
						c-3.105,0-5.642,2.528-5.642,5.642C138.452,321.707,140.991,324.239,144.097,324.239z"/>
					<path style="fill:#4C3C3C;" d="M144.097,321.408c1.547,0,2.812-1.263,2.812-2.809c0-1.553-1.265-2.814-2.812-2.814
						c-1.546,0-2.807,1.262-2.807,2.814C141.29,320.146,142.551,321.408,144.097,321.408z"/>
				</g>
			</g>
			<path style="fill:#FF7373;" d="M94.392,178.964h63.652c4.959,0,9.014,4.061,9.014,9.015v48.599c0,4.959-4.056,9.015-9.014,9.015
				H73.076c-4.957,0-9.993-4.151-9.016-9.015l21.319-48.599C86.357,183.123,89.437,178.964,94.392,178.964z"/>
			<path style="fill:#1A1A1A;" d="M94.392,183.066c-3.014,0-4.486,3.178-4.996,5.726l-0.922,4.574h74.485v-5.388
				c0-2.691-2.218-4.912-4.916-4.912H94.392L94.392,183.066z M87.773,196.85l-19.694,40.531c-0.471,2.346,2.974,4.108,4.997,4.108
				h84.968c2.697,0,4.916-2.221,4.916-4.918V196.85H87.773L87.773,196.85z"/>
			<path style="fill:#FF7373;" d="M70.505,237.792c0.302,0.621,1.958,1.238,2.573,1.238h84.969c1.34,0,2.458-1.118,2.458-2.453
				v-48.599c0-1.337-1.118-2.454-2.458-2.454H94.392c-1.563,0-2.347,2.561-2.589,3.748L70.505,237.792z"/>
			<g>
				<path style="fill:#4C3C3C;" d="M338.746,354.411c19.721,0,35.813-16.091,35.813-35.812c0-19.727-16.092-35.813-35.813-35.813
					c-19.727,0-35.813,16.086-35.813,35.813C302.934,338.32,319.02,354.411,338.746,354.411z"/>
				<path style="fill:#909598;" d="M338.746,341.419c12.572,0,22.824-10.249,22.824-22.819c0-12.572-10.252-22.825-22.824-22.825
					c-12.571,0-22.825,10.253-22.825,22.825C315.921,331.17,326.175,341.419,338.746,341.419z"/>
				<path style="fill:#696B6E;" d="M338.746,300.519c9.986,0,18.081,8.094,18.081,18.081c0,9.986-8.095,18.081-18.081,18.081
					c-9.982,0-18.079-8.095-18.079-18.081C320.667,308.612,328.764,300.519,338.746,300.519z"/>
				<path style="fill:#FFFFFF;" d="M339.569,300.467c0.729,0.032,1.438,0.107,2.146,0.224l-1.782,6.622L339.569,300.467
					L339.569,300.467z M343.321,301.026c0.7,0.183,1.384,0.408,2.048,0.664l-3.118,6.112L343.321,301.026L343.321,301.026z
					 M346.874,302.367l-2.455,6.404l4.323-5.328C348.139,303.05,347.518,302.686,346.874,302.367L346.874,302.367z M350.064,304.411
					c0.567,0.452,1.098,0.935,1.604,1.447l-5.328,4.306L350.064,304.411L350.064,304.411z M352.768,307.079
					c0.458,0.552,0.883,1.135,1.269,1.738l-6.11,3.108L352.768,307.079L352.768,307.079z M354.859,310.243l-5.748,3.738l6.632-1.766
					C355.485,311.537,355.195,310.879,354.859,310.243L354.859,310.243z M356.249,313.775c0.187,0.688,0.34,1.393,0.448,2.108
					l-6.848,0.355L356.249,313.775L356.249,313.775z M356.866,317.52c0.022,0.354,0.03,0.72,0.03,1.08
					c0,0.359-0.014,0.72-0.03,1.074l-6.769-1.074L356.866,317.52L356.866,317.52z M356.697,321.314
					c-0.108,0.715-0.258,1.416-0.448,2.104l-6.399-2.459L356.697,321.314L356.697,321.314z M355.743,324.982l-6.632-1.767
					l5.748,3.74C355.195,326.319,355.485,325.66,355.743,324.982L355.743,324.982z M354.042,328.375
					c-0.388,0.612-0.816,1.192-1.271,1.744l-4.842-4.847L354.042,328.375L354.042,328.375z M351.668,331.343l-5.328-4.309
					l3.725,5.748C350.632,332.333,351.162,331.853,351.668,331.343L351.668,331.343z M348.742,333.75l-4.323-5.322l2.455,6.401
					C347.518,334.507,348.139,334.147,348.742,333.75L348.742,333.75z M345.372,335.502c-0.663,0.263-1.351,0.481-2.051,0.664
					l-1.064-6.775L345.372,335.502L345.372,335.502z M341.715,336.503c-0.708,0.116-1.421,0.191-2.146,0.224l0.363-6.838
					L341.715,336.503L341.715,336.503z M337.924,336.727c-0.729-0.032-1.444-0.107-2.146-0.224l1.782-6.617L337.924,336.727
					L337.924,336.727z M334.171,336.166c-0.701-0.183-1.384-0.401-2.051-0.664l3.116-6.111L334.171,336.166L334.171,336.166z
					 M330.619,334.829l2.452-6.401l-4.321,5.322C329.352,334.147,329.975,334.507,330.619,334.829L330.619,334.829z
					 M327.426,332.782c-0.56-0.449-1.094-0.935-1.602-1.443l5.327-4.311L327.426,332.782L327.426,332.782z M324.719,330.119
					c-0.449-0.552-0.878-1.137-1.265-1.744l6.113-3.107L324.719,330.119L324.719,330.119z M322.634,326.956l5.743-3.74l-6.626,1.767
					C322.007,325.66,322.301,326.319,322.634,326.956L322.634,326.956z M321.248,323.418c-0.19-0.688-0.345-1.389-0.452-2.104
					l6.847-0.355L321.248,323.418L321.248,323.418z M320.631,319.674c-0.027-0.354-0.037-0.715-0.037-1.074
					c0-0.36,0.01-0.726,0.037-1.08l6.765,1.08L320.631,319.674L320.631,319.674z M320.796,315.884
					c0.107-0.716,0.26-1.42,0.452-2.108l6.396,2.464L320.796,315.884L320.796,315.884z M321.751,312.216l6.626,1.766l-5.743-3.738
					C322.301,310.879,322.007,311.537,321.751,312.216L321.751,312.216z M323.452,308.817c0.387-0.604,0.81-1.187,1.266-1.738
					l4.846,4.847L323.452,308.817L323.452,308.817z M325.824,305.854l5.327,4.31l-3.726-5.753
					C326.862,304.859,326.332,305.346,325.824,305.854L325.824,305.854z M328.75,303.443l4.321,5.328l-2.452-6.404
					C329.975,302.686,329.348,303.05,328.75,303.443L328.75,303.443z M332.114,301.69c0.669-0.256,1.352-0.481,2.057-0.664
					l1.062,6.776L332.114,301.69L332.114,301.69z M335.778,300.687c0.705-0.112,1.417-0.188,2.146-0.22l-0.363,6.841
					L335.778,300.687z"/>
				<path style="fill:#C1C2C5;" d="M338.746,330.74c6.688,0,12.146-5.454,12.146-12.141c0-6.692-5.458-12.146-12.146-12.146
					s-12.145,5.454-12.145,12.146C326.602,325.286,332.059,330.74,338.746,330.74z"/>
				<path style="fill:#696B6E;" d="M338.746,309.973c4.768,0,8.628,3.859,8.628,8.627c0,4.763-3.86,8.621-8.628,8.621
					c-4.762,0-8.625-3.858-8.625-8.621C330.121,313.832,333.984,309.973,338.746,309.973z"/>
				<circle style="fill:#4C3C3C;" cx="338.746" cy="318.6" r="6.104"/>
				<path style="fill:#696B6E;" d="M338.746,307.869c5.921,0,10.727,4.809,10.727,10.73c0,5.921-4.806,10.72-10.727,10.72
					c-5.926,0-10.723-4.799-10.723-10.72C328.023,312.678,332.82,307.869,338.746,307.869L338.746,307.869z M338.746,309.131
					c-5.229,0-9.473,4.239-9.473,9.469c0,5.229,4.244,9.467,9.473,9.467s9.468-4.238,9.468-9.467
					C348.214,313.364,343.975,309.131,338.746,309.131z"/>
				<g>
					<path style="fill:#C1C2C5;" d="M317.576,282.824l0.646-0.374c1.79-1.032,4.097-0.416,5.129,1.37l18.873,32.68
						c1.028,1.791,0.405,4.099-1.378,5.127l-0.652,0.374c-1.789,1.033-4.092,0.416-5.12-1.374l-18.872-32.676
						C315.169,286.161,315.79,283.853,317.576,282.824z"/>
					<polygon style="fill:#E89128;" points="340.278,309.533 329.927,315.511 318.057,294.933 328.408,288.955 					"/>
				</g>
			</g>
			<path style="fill:#FCBA30;" d="M284.662,322.979c0,0,8.255,0.145,15.506-4.413c7.258-4.547,12.235-16.575,31.861-21.838
				c19.635-5.262,34.22-7.253,34.22-7.253s-9.889-18.423-33.645-17.707c-23.754,0.71-38.062,32.75-38.062,32.75L284.662,322.979z"/>
			<path style="fill:#FFCC6B;" d="M360.524,287.06c-1.388-1.608-2.953-3.117-4.301-4.235c-6.682-5.537-14.874-8.048-23.516-7.786
				c-0.93,0.028-1.841,0.108-2.739,0.243c6.899,1.557,19.577,6.253,22.344,13.324c1.174-0.239,2.351-0.468,3.535-0.691
				C357.393,287.619,358.95,287.33,360.524,287.06z"/>
			<path style="fill:#E89128;" d="M284.662,322.979c0,0,8.255,0.145,15.506-4.413c2.569-1.611,4.859-4.163,7.617-7.022
				c0.589-1.449,1.087-2.903,1.444-4.342c2.706-10.811,10.028-26.176,19.848-32.148c2.174-1.322,4.117-2.412,5.822-3.3
				c-0.747-0.014-1.509-0.014-2.289,0.01c-23.754,0.71-38.062,32.751-38.062,32.751L284.662,322.979z"/>
			<path style="fill:#F8B3A0;" d="M254.441,138.104c0,0,6.682-5.545,14.085-7.111c7.401-1.564,11.241-1.993,11.241-1.993
				l-13.661-12.377l-15.649,6.83L254.441,138.104z"/>
			<path style="fill:#E2A28E;" d="M264.418,132.248c1.315-0.518,2.697-0.958,4.106-1.256c7.403-1.566,11.241-1.993,11.241-1.993
				l-13.661-12.377l-5.192,2.267C260.697,124.493,261.579,128.204,264.418,132.248z"/>
			<path style="fill:#E61E26;" d="M112.05,260.519c0,0-2.274-0.57-3.414,0.354c-1.137,0.926-8.109,14.727-6.755,16.997
				c1.347,2.276,5.803,2.146,5.803,2.146L112.05,260.519z"/>
			<polygon style="fill:#B1B1B5;" points="119.875,259.878 115.228,259.597 111.553,258.813 104.937,281.432 110.771,282.142 			"/>
			<path style="fill:#FCBA30;" d="M105.98,284.632l9.247-25.039c0,0,20.485-13.511,50.074-13.511
				c29.588,0,66.576,6.969,66.576,6.969s2.42,3.557-0.85,6.972c-3.272,3.411-11.095,6.968-14.084,17.072
				c-2.985,10.099-0.426,35.989,22.901,39.691c23.337,3.696,48.086-10.104,57.766-29.307c9.673-19.208,8.961-39.126,6.684-45.099
				c-2.276-5.972,3.556-6.118,3.556-6.118l10.24,18.638l-2.559,15.792L292.49,315.65l-13.805,12.369l-45.096,1.566l-30.017,0.145
				c0,0-18.778-18.637-22.477-21.623C177.396,305.121,105.98,284.632,105.98,284.632z"/>
			<path style="fill:#E89128;" d="M216.652,292.731c1.992,10.486,8.434,21.708,23.191,24.055
				c23.335,3.696,48.086-10.104,57.766-29.307c9.671-19.208,8.961-39.126,6.682-45.099c-0.562-1.486-0.633-2.607-0.407-3.463
				c0.715,0.201,1.364,0.477,1.932,0.842c6.957,4.505,10.438,21.965,8.825,32.662l-14.898,29.063
				c-5.899,9.523-11.37,17.838-11.387,17.866h-0.002c-0.025,0.005-44.921,6.196-58.72,0.799
				c-13.797-5.407-12.981-27.415-12.981-27.415V292.731L216.652,292.731z"/>
			<path style="fill:#E89128;" d="M105.98,284.632l6.074-16.454c7.409-5.117,18.212-10.262,33.616-13.137
				c38.125-7.112,54.627,2.28,59.463,16.217c4.838,13.94,0.569,30.017-3.127,35.279c-3.701,5.262-7.827,7.968-7.827,7.968
				s-3.732-1.443-10.19-3.813c-1.271-1.184-2.285-2.099-2.894-2.585C177.396,305.121,105.98,284.632,105.98,284.632z"/>
			<path style="fill:#4C3C3C;" d="M122.349,293.53c0,0-12.945,2.417-20.058,9.104c-7.114,6.688-7.397,13.091-9.672,14.371
				c-2.278,1.275-4.697,1.705-4.697,1.705s9.533-25.891,12.38-28.736C103.147,287.133,122.349,293.53,122.349,293.53z"/>
			<path style="fill:#815937;" d="M182.728,234.081c0,0-0.5,11.665,3.968,14.95l45.962,5.057c2.374-1.864,4.694-5.766,2.966-9.235
				c-1.795-3.588-19.937-7.088-26.8-9.001C201.963,233.941,182.302,227.389,182.728,234.081z"/>
			<path style="fill:#FCBA30;" d="M294.748,208.803c0,0-8.955,4.272-7.396,11.529c1.563,7.253,20.06,24.605,22.9,43.952
				c2.847,19.344-25.459,58.754-32.287,61.036c-6.828,2.27-68.711,1.561-73.547,1.985c-4.838,0.425-6.971,4.697-6.971,4.697
				s75.822,0.995,81.798-0.427c5.973-1.43,16.791-14.226,23.619-28.311c6.828-14.08,11.949-21.909,19.204-26.745
				c7.255-4.837,10.953-7.398,10.953-7.398s0.285-7.397-0.146-8.249C332.451,260.022,321.217,231.143,294.748,208.803z"/>
			<path style="fill:#FCBA30;" d="M95.88,290.325c0,0,9.958-21.058,48.083-28.167c38.125-7.117,54.628,2.271,59.465,16.212
				c4.835,13.94,0.57,30.019-3.13,35.279c-3.7,5.268-7.824,7.968-7.824,7.968S145.101,303.266,95.88,290.325z"/>
			<path style="fill:#FFCC6B;" d="M199.568,307.854c1.129-3.001,1.886-6.523,2.249-9.057c0.919-6.374,0.632-13.23-1.488-19.353
				c-2.51-7.229-8.09-11.575-15.202-13.968c-12.169-4.104-28.215-2.403-40.566-0.099c-11.895,2.219-24.151,6.436-33.992,13.739
				c8.138-3.453,16.962-5.748,25.617-7.201c13.778-2.304,31.678-4.005,45.251,0.098c7.934,2.397,14.156,6.739,16.953,13.973
				c2.37,6.123,2.685,12.979,1.659,19.353C199.932,306.107,199.769,306.958,199.568,307.854z"/>
			<path style="fill:#F16522;" d="M305.813,239.76c0,0,4.131,8.533,5.975,10.953c1.849,2.422,8.035,3.491,8.535,3.491
				c0.501,0-3.874-9.146-7.358-12.346C309.481,238.66,305.813,239.76,305.813,239.76z"/>
			<path style="fill:#FCBA30;" d="M281.575,211.228c0.282-0.714,3.133-13.939,8.819-17.636c5.692-3.702,21.483-5.267,21.483-5.267
				l-4.262,18.922C307.612,207.247,299.074,207.247,281.575,211.228z"/>
			<path style="fill:#B1B1B5;" d="M306.181,188.703c3.381-0.528,5.861-0.771,5.861-0.771l-4.444,19.699c0,0-1.271,0.003-3.841,0.224
				L306.181,188.703z"/>
			<path style="fill:#B1B1B5;" d="M301.438,214.879c0,0-0.839,2.126,2.011,6.107c2.841,3.981,14.225,18.777,18.917,29.873
				c4.696,11.099,6.355,22.263,6.355,22.263s7.801-1.99,8.516-2.557c0.709-0.568-7.226-20.487-16.824-33.857
				C315.431,229.772,308.464,220.103,301.438,214.879z"/>
			<path style="fill:#F8B3A0;" d="M250.724,291.343c0,0-4.99,15.712-4.977,16.788c0.012,1.074,9.389,3.701,9.389,3.701l4.836-0.57
				c0,0-0.709-4.552,0.716-12.516C262.107,290.778,260.688,288.356,250.724,291.343z"/>
			<path style="fill:#235176;" d="M185.439,220.859c0,0-0.995,13.371,16.5,18.353c17.499,4.982,66.859,5.118,66.859,5.118
				c-7.182,9.384-13.702,23.114-17.931,33.428c-6.83,16.647-7.399,19.493-7.399,19.493s4.053,3.131,9.603,3.912
				c5.55,0.785,9.959-0.501,9.959-0.501c5.577-20.969,13.643-44.308,23.635-63.978l-2.168-4.982
				c-14.458-4.906-63.204-21.376-71.18-23.072C203.925,206.64,185.439,220.859,185.439,220.859z"/>
			<path style="fill:#FF7373;" d="M245.108,304.724c-1.603,4.921-4.621,13.898-4.621,13.898s9.014,0.646,24.045,0.969
				c15.026,0.33,19.769-1.577,19.769-1.577s-2.412-3.967-3.696-4.825c-1.274-0.852-10.663-2.702-16.359-5.694
				c-0.979-0.513-1.763-1.047-2.386-1.574c-2.728,1.183-5.62,2.191-7.295,2.07C252.379,307.827,248.258,306.145,245.108,304.724z"/>
			<path style="fill:#FFFFFF;" d="M241.362,316.01l-0.873,2.612c0,0,9.014,0.646,24.044,0.969
				c15.027,0.33,19.768-1.577,19.768-1.577s-0.558-0.916-1.274-1.966c-3.16,0.658-8.454,1.43-16.086,1.468
				C253.415,317.581,241.362,316.01,241.362,316.01z"/>
			<path style="fill:#F8B3A0;" d="M294.618,88.843c0,0-0.54,11.136-1.452,14.913c-0.922,3.771,4.535,8.774,4.893,9.636
				c0.361,0.86-2.424,1.495-2.868,2.355c-0.445,0.86-0.528,3.39-0.528,3.39s-2.928,0.521-5.558,0.174
				c-2.626-0.349-3.089-0.663-3.089-0.663c1.076,2.286,3.001,3.679,6.844,4.899c0,0-1.772,6.911-1.982,8.113
				c-0.202,1.201-1.121,2.736-4.22,3.098c-3.106,0.364-7.337-0.208-15.747-5.461c-8.41-5.255-8.555-8.274-9.821-10.978
				s-1.225-5.049-1.225-5.049s-3.21-0.526-3.672-4.585c-0.465-4.062,1.671-8.732,4.089-10.16c2.423-1.423,4.2-0.235,4.762,1.774
				c0.56,2.012,0.285,3.246,0.285,3.246l2.716,0.057c0,0,1.022-2.959,3.206-5.572c2.182-2.612,4.021-10.493,3.831-10.905
				C274.889,86.716,292.924,85.641,294.618,88.843z"/>
			<path style="fill:#241104;" d="M287.788,105.713c0.075-1.5,0.836-2.678,1.705-2.636c0.868,0.042,1.515,1.287,1.441,2.785
				c-0.071,1.496-0.834,2.678-1.703,2.636S287.717,107.209,287.788,105.713z"/>
			<path style="fill:#4D2616;" d="M283.403,100.965c0.234-0.206,2.688-1.593,5.511-1.533c2.826,0.063,3.922,0.888,3.86,0.667
				c-0.065-0.225,0.317-2.115-0.732-2.424C290.994,97.366,285.049,97.338,283.403,100.965z"/>
			<path style="fill:#FF7373;" d="M228.031,210.64c0,0-18.512,8.889-29.305,13.94c-10.793,5.052-27.316-1.845-27.316-1.845
				c-3.32-43.912,41.772-103.951,81.348-101.427c0,0,5.121,8.823,5.405,15.366C259.236,161.394,236.944,173.584,228.031,210.64z"/>
			<path style="fill:#F8B3A0;" d="M225.547,162.719c-4.558,14.987-5.892,31.255-5.892,31.255
				c16.102,5.842,34.996,11.01,52.639,14.647c0,0,6.115,6.122,10.385,6.122c4.266,0,10.949-3.557,10.596-5.048
				c-0.354-1.495-3.272-9.889-4.766-11.524c-1.492-1.636-4.414-0.851-5.761-0.285c-1.348,0.569-7.04,2.771-7.04,2.771
				c-15.536-4.271-21.388-12.581-37.156-17.408c0,0,1.563-8.039,4.631-21.582C237.103,160.452,232.366,160.06,225.547,162.719z"/>
			<path style="fill:#FF7373;" d="M220.422,160.158c-0.531,2.529-0.862,5.165-1.049,7.776c4.589-0.121,14.749-0.37,22.935-0.326
				c0.398,0.004,0.784,0,1.161-0.012c0.427-3.736,0.998-7.737,1.752-11.419c2.389-11.61,7.988-17.814,1.159-21.821
				C227.152,123.065,221.985,152.825,220.422,160.158z"/>
			<g>
				<path style="fill:#696B6E;" d="M278.001,209.209l0.327-1.691c0,0,2.728-0.916,4.108-1.009c1.384-0.095,2.603,2.733,2.089,4.019
					c-0.513,1.286-3.396,3.192-3.396,3.192L278.001,209.209z"/>
				<path style="fill:#909598;" d="M277.2,211.564c-0.604-1.812-0.097-3.617,1.134-4.027c1.229-0.407,2.718,0.729,3.32,2.546
					c0.605,1.813,0.096,3.617-1.133,4.024C279.291,214.519,277.806,213.378,277.2,211.564z"/>
			</g>
			<path style="fill:#FF7373;" d="M296.373,92.871c0,0-9.47-0.439-15.367-0.07c-5.897,0.365-8.246,4.552-9.105,10.384
				c-0.852,5.833,0.999,12.805-5.544,17.497c-6.546,4.695-9.648,2.991-9.648,2.991s-19.023-7.281-18.839-29.391
				C238.26,47.394,302.822,54.287,296.373,92.871z"/>
			<path style="fill:#4C3C3C;" d="M268.352,87.955l-0.752,3.626c0,0,18.52,2.649,28.731,3.229c10.215,0.58,11.39,0.248,11.39,0.248
				l-10.146-6.501l-0.604-5.664C296.971,82.893,277.286,84.814,268.352,87.955z"/>
			<path style="fill:#FF7373;" d="M252.982,120.542l-3.76,0.417l4.475,25.372l7.113-3.772
				C260.811,142.558,258.75,132.029,252.982,120.542z"/>
			<path style="fill:#F16522;" d="M114.685,276.324c-2.423,1.509-4.738,3.168-6.907,5.01c-0.294,0.247-0.583,0.494-0.872,0.751
				l8.361,2.407l6.58-5.515L114.685,276.324z"/>
			<path style="fill:#B1B1B5;" d="M114.689,246.765l17.888,10.323c2.616,1.515,1.068,5.562-2.139,3.711l-21.949-12.674
				c-0.775-0.449-1.307-0.911-1.635-1.36H114.689L114.689,246.765z"/>
			<path style="fill:#696B6E;" d="M114.689,246.765l6.331,3.654l-8.359,0.117l-4.173-2.411c-0.776-0.449-1.306-0.911-1.634-1.36
				H114.689L114.689,246.765z"/>
			<path style="fill:#B1B1B5;" d="M104.01,244.76h72.63c1.178,0,2.14,0.963,2.14,2.141l0,0c0,1.178-0.962,2.14-2.14,2.14h-72.63
				c-1.174,0-2.139-0.962-2.139-2.14l0,0C101.871,245.727,102.836,244.76,104.01,244.76z"/>
			<polygon style="fill:#1A1A1A;" points="167.06,194.573 167.06,197.134 83.535,197.134 84.054,194.573 			"/>
			<path style="fill:#B1B1B5;" d="M285.464,163.794l4.268,0.43l2.704,37.056c0,0,0.214,0.925,1.143,0.995
				c0.921,0.069,1.384-1.065,1.384-1.065l-3.089-39.584l-6.194-0.607C285.679,161.017,284.578,162.014,285.464,163.794z"/>
			<g>
				<path style="fill:#696B6E;" d="M283.338,150.853c2.91,0.533,4.423,5.566,3.393,11.247c-1.04,5.68-4.232,9.858-7.146,9.325
					c-0.1-0.018-0.199-0.042-0.296-0.069l3.747-20.54C283.132,150.823,283.232,150.832,283.338,150.853z"/>
				<path style="fill:#C5C8C9;" d="M278.772,160.649c1.034-5.679,2.914-10.095,4.2-9.862c1.282,0.234,1.485,5.028,0.449,10.712
					c-1.032,5.678-2.916,10.094-4.198,9.86C277.941,171.126,277.736,166.332,278.772,160.649z"/>
			</g>
		</g>
		<g>
			<path style="fill:#1A1A1A;" d="M258.271,118.083c0.875,0,1.651-0.137,2.352-0.718c0.584-0.486,1.074-1.335,1.12-2.108
				c0.053-0.83-0.144-1.723-0.721-2.351c-0.521-0.574-1.297-1.122-2.104-1.122c-0.875,0-1.657,0.138-2.352,0.72
				c-0.586,0.491-1.074,1.334-1.124,2.11c-0.052,0.829,0.142,1.72,0.719,2.354C256.681,117.535,257.458,118.083,258.271,118.083z"/>
			<path style="fill:#1A1A1A;" d="M109.609,261.771c0.018-0.052-0.05-0.071-0.074-0.034c-2.598,5.077-4.267,10.656-5.511,16.203
				c-0.059,0.271,0.372,0.313,0.432,0.043C105.686,272.38,107.588,267.121,109.609,261.771z"/>
			<path style="fill:#1A1A1A;" d="M300.433,300.471c-0.109,0.052-0.211,0.104-0.317,0.154c-0.467,0.229,0.15,0.884,0.396,0.37
				c0.048-0.103,0.098-0.206,0.146-0.309C300.723,300.56,300.556,300.415,300.433,300.471z"/>
			<path style="fill:#1A1A1A;" d="M337.479,319.576c0.127,0.083,0.248,0.139,0.365,0.183c0.079,0.046,0.148,0.088,0.232,0.126
				c0-0.005,0-0.01,0-0.01c0.371,0.136,0.829,0.056,1.034-0.314c0.027-0.035,0.099-0.176,0.145-0.247
				c-0.046,0.08-0.029,0.047,0.052-0.093c0.042-0.075,0.079-0.154,0.102-0.238c0.233-0.551-0.017-1.137-0.453-1.496
				c-0.027-0.023-0.056-0.046-0.083-0.065c-0.548-0.453-1.659-0.168-1.828,0.562c-0.01,0.031-0.02,0.069-0.022,0.103
				C336.896,318.618,336.951,319.263,337.479,319.576z"/>
			<path style="fill:#1A1A1A;" d="M370.147,300.849c-2.113-3.522-4.353-7.458-7.82-9.743c1.384-0.163,2.763-0.304,4.143-0.393
				c1.102-0.069,1.298-1.396,0.798-2.141c-4.327-6.431-11.763-14.258-19.661-15.941c-2.084-0.442-4.281-0.425-6.467-0.186
				c0.023-0.244-0.023-0.49-0.127-0.716c-0.01-0.023-0.01-0.037-0.02-0.061c-4.687-12.65-11.024-24.619-18.903-35.574
				c-3.949-5.499-8.267-10.781-12.991-15.632c-3.341-3.435-7.272-8.005-11.769-10.459c3.328-0.547,6.663-0.795,10.113-0.878
				c0.696-0.024,1.163-0.37,1.31-1.07c1.416-6.88,2.883-13.75,4.187-20.657c0.121-0.65-0.55-1.141-1.131-1.066
				c-5.668,0.702-11.693,1.832-16.853,4.431c-0.098-1.074-0.196-2.145-0.266-3.206c-0.604-8.912-1.247-17.814-1.779-26.731
				c-0.023-0.355-0.417-0.556-0.725-0.525c-1.306,0.137-2.614,0.273-3.92,0.406c0.732-5.04-0.401-9.992-4.46-11.274
				c-0.407-0.131-0.757,0.002-1.03,0.314c-0.05,0.059-0.102,0.12-0.151,0.176c-1.604,0.35-1.927,2.114-2.521,3.537
				c-1.25,2.986-2.358,6.115-3.061,9.277c-0.55,2.486-1.647,11.384,3.462,10.118c2.721-0.683,5.021-3.623,6.445-7.211
				c0.145,0.196,0.369,0.335,0.692,0.29c0.385-0.049,0.766-0.103,1.149-0.152c0.302,8.663,0.958,17.327,1.447,25.982
				c0.008,0.098,0.008,0.238,0.008,0.411c-0.142,0.038-0.282,0.103-0.421,0.229c-0.701,0.668-1.372,1.379-1.995,2.127
				c-0.325,0.392-0.688,0.837-0.984,1.303c-1.368-0.219-2.816,0.753-3.935,1.271c-1.225,0.57-4.057,2.196-6.435,2.837
				c-0.052-0.196-0.163-0.384-0.378-0.486c-3.33-1.635-7.054-2.528-10.482-3.981c-3.589-1.528-7.082-3.271-10.448-5.235
				c-4.967-2.882-9.887-6.486-15.721-7.023c6.755-11.697,19.093-24.072,18.339-38.576c1.131-0.55,2.298-1.01,3.533-1.402
				c0.387-0.124,0.655-0.674,0.567-1.054c-0.594-2.508-1.292-4.987-2.1-7.433c3.17-2.518,7.229-2.111,10.76-3.669
				c3.343,2.299,6.995,4.049,11.164,4.568c2.584,0.319,6.113,0.424,8.228-1.354c2.492-2.097,2.741-7.023,3.505-9.965
				c0.113-0.445-0.031-0.907-0.488-1.085c-1.87-0.716-3.324-1.747-4.565-3.083c2.263,0.215,4.472,0.075,6.78-0.46
				c0.536-0.129,0.888-0.57,0.818-1.134c-0.117-2.383,0.798-3.795,2.745-4.238c0.548-0.15,0.879-0.762,0.473-1.252
				c-2.27-2.722-4.232-5.304-4.419-8.983c-0.148-2.904,0.578-5.731,0.348-8.631c3.816,0.173,7.63,0.28,11.447,0.306
				c1.104,0.007,1.973-1.512,0.827-2.209c-2.792-1.696-5.529-3.535-8.374-5.147c-0.389-0.222-0.721-0.418-1.028-0.563
				c0.036-0.099,0.046-0.197,0.025-0.29c-0.214-0.972-0.402-1.944-0.51-2.933c-0.044-0.432-0.034-0.866-0.073-1.287
				c0.337-0.22,0.277-0.753-0.187-0.846c-0.019-0.004-0.038-0.004-0.05-0.009c-0.029-0.051-0.052-0.107-0.087-0.156
				c-0.117-0.178-0.409-0.133-0.513,0.021c-0.006,0.01-0.012,0.024-0.018,0.033c-0.104-0.013-0.205-0.033-0.313-0.048
				c0-0.002,0-0.005,0-0.005c-2.374-10.611-10.429-19.187-21.039-21.855c-11.282-2.844-23.158,1.206-30.844,9.8
				c-7.874,8.814-10.327,21.351-6.771,32.584c1.729,5.475,5.671,12.345,10.919,16.813c-0.095,0.083-0.167,0.191-0.23,0.309
				c-10.218,0.526-20.615,5.481-29.098,10.809c-9.813,6.164-18.284,14.256-25.27,23.479c-14.594,19.283-24.125,43.842-23.642,68.185
				c0.02,0.967,1.107,1.354,1.716,1.001c3.577,2.369,8.078,3.467,12.708,3.69c0.14,0.846,0.425,1.655,0.818,2.44
				c-0.733,0.019-1.488,0.275-2.163,0.757c-2.099,1.519-2.067,4.271-1.886,6.612c0.163,2.154,0.25,5.637,0.998,8.473
				c-0.734-0.153-1.486-0.257-2.198-0.309c-0.712-0.047-1.591-0.219-2.256,0.056c-1.836-1.836-6.658-1.163-8.564-1.214
				c-1.639-0.047-3.276-0.07-4.916-0.103c0.776-0.552,1.464-1.263,2.017-2.104c2.87-4.374,1.938-2.86,1.977-7.767
				c0.114-13.581-0.014-18.924-0.192-32.495c-0.019-1.485,0.045-3.154,0.094-4.921c0.031,0,0.059,0,0.089,0
				c0.473,0.006,0.55-0.729,0.076-0.738c-0.05,0-0.099,0-0.146,0c0.177-7.463-0.166-16.17-8.273-18.02
				c-5.81-1.319-12.505-0.3-18.406-0.197c-6.745,0.113-13.489,0.225-20.235,0.342c-7.783,0.131-7.336,0.281-15.12,0.425
				c-4.324,0.08-9.363-0.421-13.784,0.617c-0.022-0.01-0.034-0.028-0.056-0.028c-3.478-0.304-5.457,2.659-6.848,5.481
				c-2.802,5.674-4.384,3.827-5.653,10.001c-2.829,13.712-13.127,27.597-15.304,41.425c-0.712,4.505-3.278,3.396-0.445,7.645
				c2.185,3.268,6.525,3.74,10.122,3.893c8.573,0.36,17.489,0.398,26.246-0.364c-0.014,0.426,0.086,0.889,0.33,1.341
				c1.814,3.381,9.291,2.646,12.236,2.596c0.035,0,0.068,0,0.101,0c0.582,0.695,1.235,1.341,1.95,1.938
				c-0.039,0.037-0.083,0.075-0.119,0.112c-0.155,0.182,0.053,0.415,0.247,0.397c0.15-0.01,0.296-0.033,0.442-0.048
				c1.01,0.781,2.11,1.487,3.251,2.146c-1.671,0.737-3.613,1.827-4.548,3.258c-0.952-0.515-1.852-0.763-2.977-0.964
				c-0.493-0.089-1.041,0.369-1.06,0.86c-0.014,0.351-0.046,0.696-0.078,1.042c-4.067-0.294-6.751,7.911-7.578,10.795
				c-0.574,1.996-2.715,8.505,0.039,9.562c-2.924,2.837-5.558,5.982-7.827,9.46c-0.062,0-0.126-0.005-0.192-0.005
				c-1.004,0.009-1.121,1.308-0.158,1.538c1.142,0.266,2.278,0.531,3.409,0.808c-4.526,8.459-8.107,17.482-11.499,26.441
				c-0.239,0.632,0.204,1.383,0.893,1.435c6.283,0.51,7.34-6.061,9.573-10.453c3.311-6.525,9.152-11.239,16.334-12.749
				c0.244-0.052,0.379-0.229,0.412-0.412c0.261,0.075,0.519,0.159,0.782,0.248c-4.076,3.491-6.087,12.334-6.74,15.993
				c-1.648,9.248-0.234,19.281,5.509,26.918c6.055,8.052,15.213,15.09,25.211,16.881c11.048,1.989,21.619-2.501,29.87-9.796
				c8.065-7.127,12.848-17.517,11.205-28.228c1.486,0.579,2.969,1.183,4.444,1.795c2.138,0.896,7.248,4.233,9.554,2.958
				c0.388-0.211,0.616-0.588,0.685-0.977c0.199-0.141,0.383-0.332,0.532-0.603c1.063,2.112,2.612,4.084,3.986,5.884
				c0.028,0.032,0.055,0.06,0.083,0.089c-0.242,1.649-1.589,2.785-2.825,3.831c-0.773,0.654-0.429,2.146,0.667,2.184
				c15.89,0.611,31.785,0.653,47.685,0.233c7.405-0.197,14.81-0.496,22.213-0.902c3.75-0.206,7.563-0.28,11.299-0.715
				c1.312-0.149,2.459-0.374,3.478-0.869c4.69-0.263,8.513-4.108,11.248-7.978c2.777-1.047,5.304-2.463,7.69-4.113
				c-0.25,3.122,0.46,6.553,1.219,9.239c1.381,4.894,3.87,9.478,7.182,13.338c6.51,7.572,16.194,12.797,26.036,14.413
				c9.669,1.589,20.488-3.846,27.875-9.754c8.745-6.995,11.471-17.496,12.105-28.282
				C375.278,311.64,373.348,306.188,370.147,300.849z M344.639,291.988c-6.663,1.524-13.267,3.506-19.485,6.38
				c-4.488,2.085-8.615,4.659-12.508,7.637c3.869-3.043,7.866-5.852,12.311-8.123c11.874-6.065,25.138-8.669,38.298-10.053
				c0.213,0.253,0.429,0.506,0.631,0.758C357.52,289.896,350.995,290.54,344.639,291.988z M302.959,314.155
				c-0.198-0.085-0.398-0.112-0.6-0.081c2.033-1.387,3.967-2.934,5.89-4.51c0.016,0,0.026,0.006,0.04,0.01
				C306.508,311.112,304.752,312.664,302.959,314.155z M234.967,252.957c1.684-2.453,1.54-5.852,0.754-8.702
				c9.967,0.196,19.941,0.149,29.858,1.379c-5.003,7.118-8.732,15.777-12.483,23.475c-4.435,9.112-8.353,18.449-11.354,28.133
				c-0.212,0.683,0.088,1.313,0.734,1.613c1.463,0.667,2.944,1.247,4.444,1.742c-0.156,0.426-0.246,0.894-0.365,1.355
				c-0.198,0.724-0.4,1.449-0.598,2.173c-0.051-0.069-0.11-0.144-0.154-0.219c-0.238-0.397-0.817-0.233-0.857,0.116
				c-0.26,0.065-0.506,0.224-0.638,0.477c-1.715,3.31-2.784,7.02-3.654,10.707c-6.567-1.575-12.911-4.771-17.397-9.922
				c-5.521-6.342-6.498-14.852-6.105-22.979c0.393-8.184,5.575-13.165,11.484-18.104c2.96-2.477,5.905-6.117,4.577-9.889
				C233.893,254.069,234.496,253.653,234.967,252.957z M264.491,237.918c0.075,1.851,0.187,3.701,0.281,5.547
				c-0.356-0.042-0.712-0.079-1.069-0.117C262.986,241.512,263.552,239.698,264.491,237.918z M279.368,235.25
				c-0.329,0.434-0.969,0.799-1.407,1.122c-0.998,0.733-2.043,1.387-3.089,2.051c-1.179,0.752-2.36,1.505-3.539,2.253
				c0.532-0.585,1.082-1.165,1.663-1.721c0.828-0.779,1.693-1.533,2.595-2.229c0.688-0.532,3.264-2.724,3.881-2.552
				c0.41-0.359,0.514-0.267,0.3,0.28C279.829,234.823,279.693,235.086,279.368,235.25z M273.378,240.909
				c1.74-0.878,3.564-2.043,5.5-2.473c-3.021,2.716-6.463,4.5-10.365,5.796c0-0.01,0.008-0.015,0.008-0.024
				c0.308-0.443,0.631-0.879,0.953-1.313C270.777,242.235,272.079,241.573,273.378,240.909z M268.548,243.737
				c-0.031-0.108-0.075-0.212-0.148-0.29c0.171-0.09,0.348-0.174,0.516-0.262C268.792,243.362,268.675,243.554,268.548,243.737z
				 M286.391,235.769c0.397-2.355-1.746-4.636-3.936-5.79c-5.346-2.827-11.956-4.146-17.692-6.043
				c-6.334-2.099-12.674-4.196-19.014-6.296c-5.655-1.873-11.417-4.256-17.278-5.574c0.035-0.127,0.069-0.243,0.099-0.369
				c0.044-0.173-0.027-0.338-0.143-0.431c0.462-4.239,1.794-8.001,3.432-11.913c5.632,1.664,11.318,3.151,17.057,4.437
				c4.95,1.111,9.959,1.972,14.852,3.313c4.202,1.149,7.908,2.879,11.739,4.777c0.023,0.144,0.047,0.279,0.079,0.382
				c0.784,2.482,2.799,3.768,4.931,3.034c0.01,0.041,0.023,0.074,0.039,0.112c0.14,0.443,0.634,0.695,1.055,0.761
				c1.8,0.266,2.997-0.518,4.585-1.299c0.153-0.075,0.327-0.15,0.486-0.225c-1.736,4.922,1.876,11.894,4.659,15.765
				c4.36,6.074,9.416,12.065,13.015,18.733c0.496,2.963-0.121,6.769-0.373,9.066c-0.417,3.81-1.229,7.623-2.142,11.343
				c-1.553,6.318-3.696,12.529-6.797,18.269c-2.932,5.426-6.736,10.38-11.513,14.313c-3.97,3.281-8.324,5.179-12.953,6.992
				c-3.567-0.912-7.041-2.033-9.423-4.832c-0.148-0.178-0.344-0.247-0.534-0.257c-0.01-0.121-0.01-0.239-0.027-0.351
				c-0.044-0.337-0.08-0.721-0.261-1.02c-0.016-0.032-0.037-0.047-0.051-0.069c1.098-0.015,2.209-0.075,3.324-0.179
				c0.594-0.056,0.932-0.583,1.044-1.102c2.624-11.918,5.955-23.698,10.37-35.083c2.09-5.394,4.398-10.707,6.859-15.946
				C284.095,245.586,286.325,241.045,286.391,235.769z M225.751,210.499c-0.019-0.116-0.094-0.215-0.26-0.215
				c-0.245,0.005-0.488,0.01-0.735,0.01c0.361-0.146,0.725-0.294,1.082-0.444c0.1,0.028,0.187,0.051,0.261,0.075
				C226.005,210.126,225.89,210.321,225.751,210.499z M274.741,201.115c-0.3,0.374-0.56,0.762-0.782,1.173
				c-1.192,1.874-2.232,4.412-1.392,6.1c-0.023,0-0.039,0.014-0.073,0.009c-0.023,0-0.05-0.009-0.067-0.015
				c-0.069-0.041-0.143-0.075-0.216-0.116c-0.519-0.467-0.713-2.103-0.723-2.57c-0.032-1.991,1.153-3.589,2.672-4.729
				C274.347,201.031,274.543,201.082,274.741,201.115z M272.778,206.715c-0.024,0.308-0.044,0.616-0.062,0.925
				c-0.169-0.8-0.022-1.72,0.304-2.641C272.903,205.561,272.828,206.139,272.778,206.715z M277.642,208.677
				c0.035-0.023,0.069-0.037,0.104-0.062c0.717,0.486,1.511,0.86,2.172,1.412c0.01,0.01,0.02,0.014,0.023,0.023
				c0.473,0.604,0.78,1.337,0.868,2.146c0.006,0.047,0.06,0.061,0.095,0.037c0.01-0.015,0.026-0.028,0.036-0.046
				c-0.046,0.364-0.246,0.689-0.659,0.916c-0.296,0.157-0.073,0.644,0.217,0.476c0.724-0.406,0.984-1.149,0.902-1.906
				c0.232-0.352,0.378-0.734,0.419-1.202c0.006-0.019-0.027-0.028-0.027,0c-0.026,0.184-0.173,0.814-0.392,1.188
				c-0.029-0.234-0.089-0.472-0.183-0.705c-0.323-0.785-0.977-1.281-1.701-1.707c-0.393-0.359-0.847-0.648-1.346-0.858
				c0.435-0.22,0.878-0.417,1.34-0.579c0.58,0.111,1.142,0.382,1.662,0.751c0.069,0.052,0.156-0.041,0.101-0.106
				c-0.337-0.407-0.775-0.669-1.252-0.81c0.589-0.178,1.196-0.284,1.804-0.294c1.588-0.033,2.4,1.813,1.918,3.233
				c-0.304,0.879-1.147,1.575-1.864,2.132c-0.27,0.206-0.583,0.448-0.927,0.658c-0.183,0.038-0.342,0.127-0.463,0.258
				c-0.541,0.262-1.123,0.401-1.685,0.196c-0.923-0.342-1.453-1.603-1.662-2.478C276.898,210.326,277.084,209.547,277.642,208.677z
				 M308.341,259.522c-0.322,0.36-1.606,0.006-2.439-0.271c0.037-0.364,0.075-0.729,0.103-1.094c0.892,0.462,2.033,1.07,2.311,1.267
				C308.322,259.453,308.328,259.49,308.341,259.522z M305.836,259.905c1.01,0.642,2.157,1.375,2.967,2.216
				c0.054,0.389,0.096,0.775,0.143,1.169c-0.349,0.01-0.702-0.08-1.05-0.295c-0.857-0.28-1.605-0.716-2.298-1.252
				C305.685,261.13,305.762,260.519,305.836,259.905z M305.552,262.024c0.784,0.785,2.074,1.181,3.406,1.4
				c0.079,0.837,0.137,1.664,0.16,2.502c-1.146-1.395-2.413-2.712-3.566-3.898V262.024z M306.496,259.809
				c0.088,0.015,0.179,0.027,0.274,0.046c0.556,0.094,1.107,0.116,1.655,0.103c0.098,0.473,0.181,0.954,0.256,1.431
				C307.991,260.78,307.243,260.224,306.496,259.809z M306.028,257.845c0.125-1.724,0.156-3.463,0.047-5.183
				c0.894,2.038,1.624,4.15,2.139,6.352C307.493,258.603,306.769,258.215,306.028,257.845z M247.848,305.5
				c0.21-1.033,0.424-2.066,0.637-3.095c0.092-0.429,0.208-0.845,0.271-1.252c3.35,0.926,6.795,1.406,10.299,1.449
				c-0.107,0.168-0.167,0.382-0.215,0.564c-0.129,0.515-0.148,1.052-0.163,1.57c-0.025,0.72-0.079,1.411,0.342,1.902
				C255.737,308.336,251.466,306.476,247.848,305.5z M254.584,307.803c-2.003-0.027-4.135-0.551-5.855-1.434
				c1.618,0.462,3.27,0.859,4.883,1.233C253.941,307.678,254.261,307.743,254.584,307.803z M244.62,296.466
				c6.006,1.047,12.184,2.191,18.269,1.547c-0.16,0.664-0.317,1.322-0.472,1.985c-6.231,0.455-12.231-0.573-17.966-3.022
				C244.507,296.808,244.566,296.634,244.62,296.466z M263.105,297.087c-2.618-0.532-5.242-1.042-7.86-1.552
				c-1.54-0.298-8.112-0.599-8.766-2.061c0.248,0.557,7.847,0.407,8.791,0.454c2.837,0.144,5.671,0.29,8.512,0.443
				C263.544,295.279,263.322,296.177,263.105,297.087z M249.338,295.008c3.646,0.72,7.299,1.453,10.947,2.164
				c1.028,0.2,4.025,0.406,0.667,0.463c-2.261,0.041-4.431-0.015-6.68-0.248c-3.195-0.341-6.376-0.795-9.569-1.179
				c0.246-0.761,0.492-1.513,0.75-2.266C246.501,294.732,247.971,294.732,249.338,295.008z M240.136,317.472
				c-0.123,0.562-0.246,1.122-0.365,1.674c-0.121,0.556,0.342,1.179,0.842,1.361c0.087,0.031,0.175,0.064,0.262,0.097
				c0.062,0.141,0.183,0.257,0.396,0.318c1.113,0.331,2.25,0.599,3.397,0.836c-6.133,0.397-12.394,0.243-17.451-3.645
				c-5.34-4.108-7.931-10.043-9.221-16.563C222.331,309.794,230.731,315.178,240.136,317.472z M262.996,319.972
				c-6.689,0.365-13.295-0.271-19.954-0.344c0.052-0.38-0.082-0.758-0.484-1.006c0.962-4.258,2.334-8.421,3.255-12.674
				c0.198,0.331,0.582,0.52,0.959,0.52c1.564,1.284,3.597,1.812,5.808,2.079c2.626,0.318,5.665,0.71,7.612-1.431
				c0.02-0.023,0.028-0.047,0.042-0.069c0.232-0.07,0.435-0.206,0.538-0.394c0.014-0.028,0.018-0.051,0.031-0.069
				c1.719,2.164,4.188,3.369,6.866,4.28c0.075,0.158,0.223,0.29,0.415,0.318c0.252,0.037,0.52,0.052,0.777,0.069
				c3.71,1.146,7.65,1.949,10.426,4.137c-5.632,0.958-11.281,1.715-16.97,2.195c-5.852,0.501-13.726,2.117-19.056-0.774
				c-0.067-0.043-0.141,0.046-0.069,0.098c4.031,2.948,10.063,1.874,14.729,1.589c7.239-0.448,14.44-1.323,21.59-2.547
				c0.123-0.018,0.188-0.093,0.221-0.188c0.661,0.589,1.249,1.262,1.739,2.062C275.353,318.847,269.199,319.642,262.996,319.972z
				 M283.97,316.833c-1.716-4.005-5.207-5.543-9.084-6.623c3.964-1.505,7.743-4.309,10.584-6.721
				c5.534-4.71,9.796-10.71,12.935-17.229c3.509-7.292,5.74-15.348,7.011-23.325c0.033-0.187,0.058-0.378,0.085-0.565
				c1.199,1.453,2.378,2.978,3.641,4.394c0.089,10.491-4.196,20.88-9.528,29.745c-3.013,5.01-6.31,9.991-9.873,14.617
				C287.93,313.477,286.052,315.28,283.97,316.833z M298.712,304.387c-0.151,0.271-0.308,0.542-0.455,0.819
				c-0.154-0.141-0.304-0.271-0.421-0.374c-0.254-0.233-0.518-0.449-0.786-0.66c0.157-0.237,0.313-0.468,0.471-0.705
				C297.838,303.831,298.257,304.153,298.712,304.387z M296.619,304.822C296.619,304.817,296.619,304.817,296.619,304.822
				c0.24,0.196,0.479,0.401,0.701,0.627c0.146,0.144,0.31,0.358,0.486,0.556c-0.183,0.34-0.371,0.673-0.556,1.013
				c-0.257-0.256-0.55-0.499-0.809-0.714c-0.173-0.146-0.351-0.267-0.534-0.397C296.148,305.522,296.389,305.162,296.619,304.822z
				 M305.865,300.813c3.741-6.089,7.896-12.021,12.999-17.067c-6.33,7.015-10.585,16.039-10.84,25.376
				c-3.595,2.837-7.269,5.548-11.334,7.674C299.77,311.481,302.649,306.051,305.865,300.813z M308.612,309.267
				c0.171-0.141,0.346-0.285,0.519-0.426c0.206-0.172,0.412-0.34,0.617-0.505c-0.267,0.225-0.542,0.444-0.809,0.669
				c-0.112,0.104-0.224,0.196-0.339,0.294C308.603,309.29,308.606,309.276,308.612,309.267z M307.646,313.285
				c4.02-3.473,8.018-6.748,12.458-9.501c-1.336,1.487-2.393,4.07-2.936,5.276c-1.831,4.112-2.434,8.771-1.831,13.217
				c1.193,8.78,7.435,16.201,15.82,18.996c18.96,6.323,36.509-12.712,29.161-31.143c-1.92-4.822-5.3-8.982-9.875-11.478
				c-2.616-1.426-5.826-2.754-9.094-3.408c1.426-0.368,2.863-0.719,4.304-1.042c3.553-0.794,7.197-1.589,10.866-2.243
				c8.953,6.286,14.716,16.806,14.464,27.868c-0.268,11.422-7.521,21.979-17.787,26.849c-5.688,2.696-11.818,3.224-18.016,2.318
				c-6.423-0.931-13.545-2.823-18.787-6.81c-8.485-6.454-12.156-17.745-9.828-27.984
				C306.931,313.897,307.29,313.594,307.646,313.285z M321.938,303.256c-0.052,0.033-0.01,0.122,0.05,0.108
				c0.081-0.024,0.162-0.052,0.244-0.071c0.012-0.004,0.016-0.009,0.025-0.014c0.407,1.519,1.076,2.974,1.774,4.407
				c-5.175,6.88-5.021,16.866,0.859,23.344c5.574,6.131,15.142,8.01,22.575,4.354c7.926-3.888,12.311-12.893,9.727-21.464
				c-2.569-8.533-11.38-13.306-19.919-11.128c-0.14-0.275-0.28-0.546-0.421-0.826c-0.392-0.738-1.017-1.646-1.578-2.548
				c0.093-0.047,0.187-0.094,0.281-0.14c0.251-0.126,0.19-0.448,0.013-0.551c10.085-1.104,21.644,6.734,24.041,16.412
				c2.555,10.313-4.053,20.979-13.829,24.502c-9.656,3.472-21.876-0.836-26.983-9.8c-2.342-4.084-3.189-9.011-2.674-13.664
				C316.59,311.917,318.366,305.957,321.938,303.256z M325.067,304.569c-0.06-0.103-0.113-0.21-0.173-0.313
				c0.215-0.032,0.427-0.065,0.632-0.121C325.354,304.271,325.204,304.421,325.067,304.569z M324.973,309.64
				c1.048,2.243,1.861,5.305,3.614,7.047c0.45,0.449,0.953,0.557,1.544,0.352c0.638-0.215,1.265-0.509,1.898-0.822
				c0.01,0.015,0.016,0.032,0.029,0.046c0.098,0.29,0.202,0.58,0.323,0.87c0.223,0.57,0.499,1.122,0.8,1.654
				c0.572,1.042,1.231,2.015,2.116,2.817c1.34,1.229,3.458,2.146,5.173,1.085c3.805-2.36,1.832-8.759-0.641-11.239
				c-0.084-0.094-0.183-0.159-0.284-0.215c0.271-0.192,0.536-0.38,0.798-0.557c0.393-0.267,0.52-0.939,0.304-1.346
				c-0.938-1.822-1.868-3.646-2.809-5.468c8.507-1.912,16.784,3.304,18.616,11.954c1.686,7.939-3.076,15.945-10.442,19.021
				c-6.846,2.86-15.308,0.995-20.334-4.467c-5.556-6.028-5.673-15.264-1.263-21.909C324.605,308.855,324.792,309.248,324.973,309.64
				z M338.162,312.229c0.065,0.248,0.205,0.486,0.355,0.696c1.355,1.838,2.313,3.575,1.911,5.974
				c-0.327,1.906-1.931,2.645-3.576,1.453c-0.921-0.664-1.616-1.604-2.191-2.565c-0.373-0.623-0.732-1.594-1.225-2.341
				C335.054,314.481,336.644,313.332,338.162,312.229z M338.106,309.368c-2.646,1.608-5.361,3.707-8.15,4.922
				c-1.482-1.917-2.394-4.842-3.436-6.88c-0.35-0.686-0.694-1.378-1.042-2.064c0.348-0.468,1.354-1.131,1.509-1.233
				c1.1-0.739,2.221-1.445,3.366-2.113c0.813-0.477,1.64-0.929,2.472-1.364c0.196-0.099,0.387-0.196,0.575-0.29
				C335.017,303.33,336.601,306.331,338.106,309.368z M334.909,298.812c0.089-0.014,0.183-0.032,0.275-0.042
				c-0.079,0.038-0.148,0.075-0.232,0.113C334.942,298.859,334.923,298.831,334.909,298.812z M332.013,298.825
				c0.205,0.164,0.447,0.281,0.719,0.322c0.131,0.221,0.262,0.436,0.379,0.646c-0.033,0.015-0.062,0.028-0.095,0.052
				c-1.003,0.496-2.009,0.986-3.014,1.48c-1.504,0.754-3.537,2.15-5.389,2.301C327.007,301.901,329.47,300.303,332.013,298.825z
				 M324.204,303.135c-0.198-0.291-0.403-0.575-0.623-0.854c1.421-0.491,2.83-1.028,4.21-1.604
				C326.576,301.466,325.381,302.289,324.204,303.135z M331.417,298.358c-2.638,1.341-5.331,2.547-8.088,3.604
				c-0.004-0.006-0.008-0.006-0.009-0.01c0.545-0.289,1.094-0.583,1.658-0.86C327.078,300.073,329.229,299.177,331.417,298.358z
				 M322.096,302.616c0.004,0.019,0.009,0.046,0.009,0.065c-0.05,0-0.098,0.004-0.147,0.009
				C322.007,302.667,322.047,302.645,322.096,302.616z M345.346,275.188c6.963,0.767,12.841,6.655,17.454,12.1
				c-12.67,1.313-25.418,3.771-36.952,9.351c-6.338,3.067-11.672,7.596-17.114,11.923c2.005-12.314,7.386-23.025,17.081-30.546
				c0.518-0.336,1.037-0.648,1.562-0.947C333.26,275.59,339.419,274.543,345.346,275.188z M336.588,269.38
				c-3.122-0.501-6.53,0.72-9.571,2.383c-0.927-10.212-3.862-20.161-8.872-29.144c-5.05-9.065-12.182-16.459-16.525-25.912
				C316.979,231.469,328.875,249.423,336.588,269.38z M300.605,215.737c2.186,9.735,10.752,17.166,15.7,25.499
				c5.628,9.468,8.887,20.09,9.824,31.03c-1.193,0.701-2.316,1.455-3.325,2.179c-6.078,4.354-11.146,10.047-15.473,16.104
				c-3.037,4.257-5.736,8.738-8.316,13.295c-0.436-0.158-0.834-0.425-1.184-0.846c6.078-9.183,11.789-19.025,13.373-30.067
				c1.563-10.824-1.672-20.597-7.537-29.615c-3.014-4.637-6.479-8.954-9.748-13.403c-3.52-4.777-7.96-11.638-3.9-16.802
				c0.706-0.368,1.377-0.775,1.961-1.262c0.317-0.271,0.556-0.564,0.738-0.869c0.669-0.178,1.336-0.336,2.001-0.486
				C296.73,212.196,298.701,213.939,300.605,215.737z M305.48,189.409c0.006-0.004,0.014,0,0.016,0l0.05-0.038
				c0.277-0.056,0.55-0.117,0.823-0.178c0.026,5.225-1.617,10.585-1.955,15.782c-0.131,2.061-0.023-3.438,0.016-3.99
				c0.092-1.355,0.271-2.702,0.447-4.048C304.935,196.483,305.675,190.951,305.48,189.409z M306.64,206.69
				c-0.636-0.023-1.274-0.037-1.91-0.033c0.617-3.252,0.499-6.598,1.049-9.879c0.429-2.589,0.835-5.038,0.702-7.608
				c1.397-0.285,2.811-0.537,4.244-0.734C309.454,194.54,308.14,200.643,306.64,206.69z M293.651,195.433
				c0.062,1.083,1.122,4.981-0.569,4.187c-1.427-0.673-0.94-3.394-1.03-4.972c-0.039-0.791-0.081-1.576-0.127-2.361
				c0.046,0.029,0.092,0.051,0.149,0.061c0.115,0.019,0.228,0.038,0.349,0.038c0.123,0.004,0.207-0.08,0.232-0.183
				c0.284-0.098,0.544-0.225,0.788-0.383C293.517,193.026,293.584,194.231,293.651,195.433z M293.368,190.483
				c-0.296-0.051-0.584-0.121-0.869-0.22l0.841-0.316C293.35,190.123,293.353,190.306,293.368,190.483z M293.307,189.409
				c-0.509,0.159-1.009,0.327-1.513,0.486c-0.02-0.294-0.036-0.593-0.05-0.893c0.521,0.112,1.04,0.229,1.553,0.332
				C293.303,189.362,293.303,189.385,293.307,189.409z M293.176,191.143c-0.334,0.224-0.699,0.388-1.12,0.467
				c-0.065,0.018-0.117,0.046-0.166,0.083c-0.017-0.346-0.036-0.691-0.056-1.033C292.271,190.871,292.709,191.044,293.176,191.143z
				 M293.278,188.909c-0.518-0.08-1.036-0.159-1.55-0.248c-0.065-1.155-0.131-2.308-0.192-3.459
				c-0.359-6.533-0.615-13.085-1.109-19.602c0.077-0.03,0.15-0.058,0.233-0.082c0.05,0.107,0.173,0.187,0.32,0.126
				c0.353-0.15,0.696-0.313,1.036-0.482c-0.013,0.467-0.026,0.896-0.007,1.205c0.215,3.315,0.428,6.628,0.586,9.942
				C292.798,180.51,293.04,184.711,293.278,188.909z M278.568,164.375c0.242-1.815,0.796-3.624,1.33-5.368
				c0.562-1.827,1.363-6.181,2.822-7.788c0.048,0.007,0.094,0.012,0.139,0.005c0.06-0.01,0.123-0.01,0.183-0.014
				c-0.031,0.063-0.041,0.131-0.012,0.208c0.373,1.088,0.673,2.185,0.897,3.275c-0.042,2.515-0.763,5.431-1.032,6.692
				c-0.611,2.786-1.368,5.431-3.039,7.669c-0.46-0.187-0.925-0.369-1.388-0.556C278.311,167.117,278.342,165.738,278.568,164.375z
				 M284.326,157.91c0.123,2.884-0.422,5.749-1.89,8.515c-0.108,0.206-0.813,1.29-1.435,2.234c0.643-1.052,1.144-2.126,1.532-3.314
				C282.988,163.962,283.914,160.908,284.326,157.91z M286.087,161.322c-0.373,1.907-1.996,8.062-4.325,8.491
				c-0.25-0.103-0.5-0.201-0.75-0.299c3.809-3.612,4.452-9.507,3.52-14.699c-0.034-1.384-0.286-2.595-0.874-3.424
				c-0.02-0.061-0.039-0.122-0.053-0.182C287.315,151.563,286.536,159.06,286.087,161.322z M287.405,164.439
				c-0.006,0.004-0.01,0.004-0.02,0.01c0.26-0.786,0.47-1.594,0.646-2.403c1.163-0.196,2.716-0.627,3.452,0.07
				c0.486,0.463,0.546,1.551,0.54,2.572c-0.375,0.138-0.745,0.283-1.107,0.446c-0.171,0.063-0.34,0.131-0.513,0.202
				c-0.004-0.077-0.01-0.154-0.018-0.231c0.617-0.68,1.098-1.461,1.388-2.354c0.02-0.051-0.038-0.084-0.08-0.056
				c-0.444,0.299-0.869,0.626-1.256,0.998c-0.123,0.119-0.225,0.25-0.338,0.376c0.202-0.196,0.411-0.378,0.613-0.546
				c0.192-0.162,0.388-0.325,0.598-0.457c0.373-0.235,0.3-0.128,0.149,0.209c-0.271,0.596-0.646,1.128-1.084,1.603
				c-0.006-0.052-0.01-0.101-0.01-0.15c-0.04-0.427-0.526-0.75-0.93-0.672C288.757,164.184,288.082,164.313,287.405,164.439z
				 M290.242,194.792c0.051,3.865,0.518,9.632,3.845,7.936c1.234-0.626,1.361-2.332,1.379-3.509c0.036-2.384-0.171-4.814-0.393-7.23
				c3.275-0.823,6.469-1.72,9.712-2.449c-0.49,2.781-0.484,5.846-0.879,8.665c-0.405,2.911-0.565,5.599-0.052,8.477
				c-3.652,0.099-7.281,0.673-10.832,1.558c-0.248-1.229-0.833-2.5-1.229-3.659c-0.637-1.884-1.491-5.96-3.319-7.829
				c0.255-0.309,0.501-0.621,0.747-0.901C289.543,195.479,289.891,195.128,290.242,194.792z M284.18,198.208
				c4.446-0.995,5.306,4.427,6.37,7.693c0.341,1.013,0.645,2.032,0.921,3.057c-0.136,0.196-0.217,0.421-0.244,0.648
				c-0.157,0.313-0.34,0.593-0.532,0.86c-0.023,0.01-0.042,0.023-0.062,0.027c-0.016-2.552-1.757-5.939-2.507-7.327
				c-0.021-0.038-0.075-0.009-0.058,0.022c1.073,2.538,2.255,5.95,0.752,8.432c-0.041,0.032-0.077,0.065-0.115,0.103
				c0.302-1.827-0.819-3.743-1.486-5.389c-0.016-0.051-0.09-0.019-0.069,0.033c0.778,1.78,1.223,3.794,0.226,5.585
				c-0.381,0.687-0.854,1.111-1.582,1.435c-0.164,0.075-0.295,0.126-0.414,0.172c-0.82,0.192-1.66,0.243-2.525,0.131
				c1.826-1.766,3.178-4.29,1.392-6.649c-1.405-1.864-4.185-0.86-6.107,0.262c-1.657-0.748-2.468,1.402-2.638,3.196
				c-0.475-0.396-0.979-0.771-1.493-1.126c-0.01-0.004-0.01-0.015-0.02-0.019c-0.084-0.051-0.159-0.103-0.238-0.153
				c-0.026-0.02-0.054-0.038-0.079-0.058c-0.276-0.205-0.486-0.447-0.646-0.71c0.073-2,0.26-4.075,1.165-5.833
				c0.35-0.556,0.709-1.056,1.042-1.453C278.076,201.236,282.06,198.681,284.18,198.208z M257.396,193.526
				c4.764,2.537,10.257,5.453,15.703,6.733c0.272,0.305,0.598,0.514,0.959,0.66c-2.261,1.715-3.726,4.653-2.283,7.103
				c-3.465-1.828-7.424-2.916-11.078-3.776c-6.937-1.636-13.936-2.901-20.84-4.711c-3.88-1.019-7.739-2.126-11.574-3.327
				c-1.44-0.449-2.872-0.907-4.301-1.384c-2.563-0.845-3.237-0.747-3.481-3.415c-0.338-3.743,0.786-8.202,1.421-11.879
				c0.433-2.449,0.969-4.869,1.534-7.291c2.384-0.701,4.786-1.248,7.216-1.631c1.065-0.069,2.165-0.061,3.221,0.099
				c0.477,0.032,0.941,0.131,1.397,0.29c1.13,0.065,1.101,0.378-0.099,0.949c-0.242-0.178-0.494,0.186-0.267,0.373
				c1.161,0.972,2.074,1.033,3.41,0.336c0.132-0.065,0.201-0.257,0.088-0.374c-1.161-1.21-2.634-1.846-4.242-2.103
				c1.682-0.16,3.377-0.249,5.088-0.257c0.141,0,0.277-0.136,0.204-0.281c-0.292-0.575-0.717-0.958-1.213-1.22
				c0.667-0.051,1.334-0.103,1.989-0.178c-1.142,1.893-1.524,4.496-1.991,6.515c-0.651,2.828-1.409,5.833-1.109,8.734
				c-4.952,0.184-9.425,2.482-12.697,6.366c-0.074,0.089,0.075,0.196,0.15,0.107c2.841-3.238,6.605-5.225,10.725-5.902
				c-3.512,1.248-6.261,3.996-9.389,6.266c-0.044,0.033,0.008,0.094,0.05,0.065c1.657-1.345,3.349-2.743,5.152-3.924
				c-0.496,0.434-0.777,0.948-0.663,1.579c0.028,0.136,0.157,0.188,0.282,0.154c1.745-0.552,3.47-1.149,5.167-1.832
				c0.931-0.374,2.172-0.597,2.801-1.406c0.073-0.099,0-0.229-0.111-0.248c-0.042-0.009-0.087-0.015-0.131-0.019
				c-0.079-0.014-0.145,0.051-0.151,0.122c-0.006,0.032-0.01,0.06-0.016,0.093c-0.018,0.145,0.188,0.182,0.244,0.056
				c-0.212,0.491-3.952,1.519-4.496,1.72c-0.554,0.2-1.636,0.851-2.163,0.738c-0.433,0.281-0.56,0.206-0.388-0.238
				c-0.012-0.654,0.401-1.051,1.233-1.196c1.556-0.874,3.38-0.945,4.981-1.589c0.096,0.079,0.213,0.145,0.368,0.173
				C245.388,185.726,251.049,190.146,257.396,193.526z M225.181,148.514c1.902-5.469,4.494-11.851,10.18-14.339
				c3.432-1.501,7.832-1.274,10.935,0.948c3.948,2.825,2.134,7.948,1.121,11.767c-1.721,6.497-3.445,12.993-5.196,19.482
				c-0.286-0.036-0.585-0.05-0.877-0.08c-1.251-1.278-3.266-1.073-5.151-1.033c-0.673-0.168-1.354-0.33-2.048-0.468
				c-2.087-0.406-4.196-0.698-6.318-0.89c-0.56-0.052-2.237,0.13-2.684-0.194c-2.307-1.661,0.758-1.68,2.003-1.628
				c4.489,0.182,8.981,0.708,13.432,1.292c0.494,0.063,0.568-0.706,0.078-0.769c-4.232-0.514-8.48-0.918-12.732-1.133
				c-2.344-0.115-4.512-0.285-6.464,1.157C222.358,157.839,223.579,153.122,225.181,148.514z M221.946,151.412
				c-0.455,1.491-0.854,2.998-1.228,4.515c-1.27-3.487-1.494-7.205-0.508-10.866c0.313-1.157,2.059-5.206,2.283-4.79
				c0.291,0.549,0.122,2.054-0.111,3.562C221.819,146.287,221.67,148.839,221.946,151.412z M221.368,163.11
				c0.01,0.011,0.018,0.025,0.028,0.034c2.438,1.374,5.037,1.271,7.767,1.629c0.95,0.119,1.897,0.273,2.843,0.446
				c-3.665-0.04-7.331-0.057-10.997-0.059c0.004-0.007,0.004-0.012,0.004-0.012c0.709-0.086,1.394-0.229,2.043-0.443
				c0.258-0.085,0.127-0.522-0.14-0.462c-0.603,0.145-1.208,0.247-1.813,0.331C221.184,164.081,221.277,163.595,221.368,163.11z
				 M218.541,167.514c-1.127,0.053-2.255,0.098-3.388,0.065c-1.264-0.038-4.717,0.214-4.854-1.165
				c-0.146-1.437,3.566-1.07,4.648-1.084c1.276-0.014,2.555,0.036,3.838-0.019c0.02,0,0.055-0.005,0.081-0.005
				C218.753,166.041,218.644,166.778,218.541,167.514z M220.724,166.921c0.085-0.532,0.17-1.06,0.254-1.59
				c4.324,0.125,8.64,0.262,12.959,0.374c0.159,0.005,0.325,0.005,0.49,0.005c0.438,0.091,0.865,0.214,1.299,0.317
				C230.719,166.037,225.586,166.569,220.724,166.921z M237.968,169.532c-0.062,0.173-5.442,0.379-5.762,0.421
				c-0.282,0.033-0.697,0.075-1.18,0.136c-0.492,0.037-0.984,0.093-1.479,0.172c-1.842,0.239-4.001,0.613-4.99,1.229
				c-0.347,0.107-0.679,0.214-1,0.323c0.181-0.785,0.367-1.571,0.548-2.356c1.227-0.262,2.453-0.486,3.688-0.654
				c2.924-0.042,5.855-0.084,8.752-0.257C237.476,168.701,238.169,168.995,237.968,169.532z M225.959,168.832
				c-0.602,0.126-1.205,0.261-1.804,0.407c0.031-0.117,0.058-0.243,0.087-0.365C224.816,168.865,225.384,168.841,225.959,168.832z
				 M237.112,183.857c0.052-0.005,0.113-0.005,0.173-0.005c0.054,0.07,0.127,0.131,0.203,0.173c0.016,0.079,0.047,0.149,0.083,0.22
				c-0.367,0.229-0.81,0.354-1.326,0.332c-0.786,0.177-2.501,0.514-3.862,1.136c0.113-0.065,0.22-0.136,0.331-0.196
				c1.195-0.66,2.489-1.23,3.825-1.548C236.728,183.926,236.918,183.889,237.112,183.857z M259.243,141.834
				c-0.355,0.556-2.424,1.017-3.027,1.335c-0.513,0.274-1.001,0.569-1.48,0.873c-0.284-6.144-1.239-12.191-2.849-18.103
				c0.462-0.317,0.825-0.779,1.234-1.156c0.223-0.199,0.455-0.393,0.685-0.583c0.072,0.15,0.146,0.304,0.215,0.468
				c1.14,2.706,2.284,5.401,3.235,8.178c0.121,0.36,0.336,0.888,0.582,1.512c0.023,0.14,0.079,0.278,0.152,0.4
				C258.907,137.104,260.116,140.492,259.243,141.834z M252.52,122.402c-0.468,0.299-0.931,0.659-1.369,0.998
				c-0.19-0.624-0.375-1.246-0.586-1.869c0.185,0.012,0.359,0.026,0.546,0.044C251.571,121.869,252.043,122.146,252.52,122.402z
				 M253.317,122.799c0.013,0.14,0.044,0.28,0.078,0.42c-0.499,0.111-1.001,0.22-1.509,0.311c0.4-0.273,0.792-0.558,1.146-0.866
				C253.123,122.708,253.221,122.752,253.317,122.799z M253.266,123.846c-0.22,0.174-0.437,0.352-0.646,0.542
				c-0.308,0.281-0.647,0.56-0.917,0.895c-0.104-0.374-0.204-0.745-0.313-1.119C252.02,124.08,252.648,123.973,253.266,123.846z
				 M258.874,132.113c-0.678-1.832-1.403-3.65-2.21-5.426c-0.387-0.897-0.813-1.779-1.272-2.641
				c-0.008-0.172-0.037-0.313-0.071-0.451c1.432,0.461,2.908,0.714,4.427,0.702c1.248,2.344,3.608,3.764,5.276,5.791
				c0.279,0.333,0.802-0.101,0.523-0.438c-1.312-1.57-3.074-2.754-4.347-4.336c2.054,1.733,4.17,3.552,6.586,4.616
				c-3.049,0.18-6.301,1.163-8.683,2.828C259.024,132.543,258.953,132.329,258.874,132.113z M296.306,83.641
				c0.004,0.322,0.038,0.65,0.052,0.965c0.052,1.025,0.192,2.032,0.407,3.035c-0.209,0.038-0.438,0.103-0.701,0.22
				c-0.244,0.108-0.405,0.281-0.518,0.475c-8.477-0.905-17.552,1.002-25.97,2.385c-0.037,0-0.062,0.01-0.099,0.015
				c-0.244,0.042-0.486,0.079-0.73,0.117c0.287-0.888,0.375-1.729,0.492-2.701c4.456-1.141,8.958-2.084,13.516-2.746
				C287.232,84.753,291.89,84.665,296.306,83.641z M294.26,88.592c-4.748,0.014-9.173,1.544-13.771,2.414
				c-0.133,0.023-3.455,0.306-6.165,0.35c-0.238-0.023-0.471-0.051-0.706-0.077c-0.917-0.079-1.828-0.167-2.739-0.257
				c-0.019-0.023-0.032-0.049-0.036-0.072c4.236-0.505,8.468-1.066,12.708-1.62c2.62-0.343,5.232-0.661,7.874-0.736
				c0.354-0.009,3.283-0.014,4.031-0.007c0,0,0,0,0,0.002C295.256,88.59,294.883,88.592,294.26,88.592z M273.932,93.672
				c0.335,0.044,0.661,0.086,0.994,0.128c-5.863,5.689-2.662,16.45-6.636,23.129c0.196-0.468,0.365-0.935,0.504-1.389
				C270.748,108.989,267.764,98.24,273.932,93.672z M261.452,124.168c0.444,0.519,0.903,1.026,1.384,1.517
				c-0.617-0.488-1.237-0.975-1.854-1.461C261.141,124.208,261.295,124.192,261.452,124.168z M268.473,129.908
				c0.021-0.094-0.004-0.192-0.089-0.263c-2.249-1.766-4.389-3.637-6.501-5.556c0.094-0.02,0.188-0.038,0.28-0.061
				c2.155,2.027,4.389,4.072,6.772,5.879C268.782,129.908,268.626,129.902,268.473,129.908z M293.338,102.638
				c-0.24,0.809-0.456,1.629-0.45,2.442c0.014,1.625,1.022,3.157,2.176,4.419c0.604,1.238,1.355,2.462,2.28,3.683
				c-2.024,0.845-3.193,2.477-3.311,4.702c-2.666,0.425-5.24,0.405-7.934-0.126c-0.949-0.192-1.347,1.009-0.886,1.666
				c1.677,2.369,3.864,3.977,6.471,5.101c-0.484,2.201-0.831,5.047-1.852,6.851c-2.303,4.073-8.611,2.685-12.027,1.477
				c-5.313-1.881-9.683-5.662-13.814-9.402c3.472-1.458,6.146-4.626,7.566-8.127c2.678-6.578-0.435-16.464,5.865-21.227
				c2.414,0.262,4.835,0.481,7.245,0.682c3.257,0.271,6.522,0.477,9.784,0.638C293.642,97.988,293.265,100.371,293.338,102.638z
				 M302.205,93.264c-6.022-0.127-12.041-0.412-18.049-0.911c-2.189-0.183-4.375-0.412-6.559-0.65
				c0.152-0.003,0.292-0.003,0.452-0.012c3.079-0.198,6.12-1.353,9.159-1.883c2.715-0.472,5.464-0.75,8.213-0.916
				c0.009,0.541,0.37,1.082,1.005,1.166c0.096,0.014,0.185,0.026,0.274,0.04c0.216,0.025,0.476-0.082,0.589-0.269
				C297.105,90.067,299.77,91.773,302.205,93.264z M245.478,112.245c-4.563-5.889-7.033-13.287-6.83-20.738
				c0.375-13.618,9.698-26.243,23.283-29.106c14.258-3.002,28.518,5.51,32.068,19.647c-8.529-0.704-18.091,1.897-26.017,3.998
				c-0.528,0.137-0.915,0.483-0.986,1.044c-0.271,2.075-0.453,3.089,0.452,4.891c0.132,0.264,0.403,0.309,0.617,0.199
				c1.184,1.196,3.306,1.193,4.965,1.382c-3.18,2.526-3.702,6.945-3.922,10.95c-0.332,6.08-0.457,12.314-4.431,15.99
				c-0.457,0.269-0.934,0.526-1.473,0.755C256.371,124.141,249.313,117.191,245.478,112.245z M194.871,156.532
				c6.501-8.8,14.348-16.624,23.458-22.713c9.417-6.299,19.42-9.302,30.057-12.561c0.064,0.2,0.129,0.397,0.189,0.593
				c-8.234,1.594-16.103,6.398-23.268,10.566c-7.607,4.426-14.889,9.46-21.462,15.332c-3.718,3.325-7.274,6.978-10.507,10.91
				C193.845,157.942,194.354,157.232,194.871,156.532z M178.598,186.861c-0.124,0.5-0.258,0.995-0.368,1.496
				c-0.05,0.239,0.35,0.332,0.418,0.099c4.69-16.035,13.587-29.648,26.101-40.717c6.389-5.647,13.432-10.526,20.795-14.816
				c7.243-4.228,14.957-8.655,23.143-10.735c2.51,7.739,3.933,15.647,4.165,23.807c0.023,0.829,1.073,0.981,1.615,0.602
				c0.717-0.499,1.443-0.939,2.188-1.345c-1.278,6.917-3.557,13.071-7.267,19.185c-3.166,5.2-6.785,10.113-9.99,15.291
				c0.22-1.519,0.393-3.042,0.71-4.523c0.473-2.245,1.678-4.796,1.652-7.16c0.48-0.061,0.969-0.117,1.448-0.197
				c0.711-0.125,0.711-1.065,0.113-1.298c1.29-4.711,2.589-9.422,3.898-14.127c1.078-3.882,3.133-8.314,3.315-12.357
				c0.277-6.024-6.386-8.9-11.563-8.622c-6.297,0.341-10.534,4.981-13.21,10.271c0.723-3.028,1.834-5.897,3.777-7.987
				c0.05-0.056-0.025-0.152-0.081-0.093c-2.331,2.37-3.291,5.543-4.016,8.73c-0.08,0.166-0.149,0.336-0.229,0.502
				c0.208-1.411,0.438-2.823,0.786-4.232c0.031-0.112-0.137-0.18-0.173-0.067c-0.673,2.053-1.149,4.114-1.463,6.197
				c-0.683,1.61-1.298,3.259-1.854,4.933c-0.075-1.75-0.065-3.491,0.041-5.237c0.68-3.586,2.241-6.928,4.492-9.874
				c0.062-0.077-0.062-0.166-0.125-0.089c-1.961,2.477-3.38,5.228-4.218,8.129c0.121-1.224,0.288-2.451,0.504-3.681
				c0.048-0.241-0.294-0.338-0.425-0.159c-3.935,5.39-4.781,12.139-2.32,18.234c-0.597,2.563-1.1,5.145-1.509,7.715
				c-1.269,0.014-2.493,0.038-3.857-0.462c-4.072-1.487-8.597-5.576-8.203-10.256c0.012-0.158-0.23-0.186-0.247-0.023
				c-0.571,5.584,4.192,9.571,9.393,10.825c-2.682,0.029-5.356,0.068-7.956,0.977c-0.138,0.047-0.198,0.243-0.138,0.369
				c0.699,1.404,2.075,1.5,3.531,1.702c2.284,0.308,4.667,0.443,6.996,0.289c0.048,0.585,0.628,0.954,1.197,0.912
				c0.897-0.056,1.8-0.098,2.708-0.135c-2.456,8.168-3.589,16.772-4.004,25.263c-0.021,0.436,0.209,0.874,0.638,1.024
				c3.587,1.258,7.204,2.435,10.831,3.538c-1.292,2.261-2.182,4.71-2.809,7.248c-0.302,1.225-0.392,2.257-0.647,3.153
				c-1.901-0.56-3.813-1.074-5.758-1.458c-0.213-0.037-0.276,0.286-0.085,0.36c0.308,0.122,2.867,1.032,4.529,1.557
				c-0.8,0.229-1.597,0.458-2.391,0.71c-1.835,0.028-3.67,0.051-5.505,0.079c-1.625-0.141-3.247-0.303-4.857-0.434
				c-6.68-0.548-13.337-0.936-20.008-0.089c-0.454,0.056-0.383,0.677,0.021,0.757c6.354,1.21,12.933,0.649,19.362,0.523
				c1.844-0.038,3.687-0.075,5.529-0.113c0.804,0.085,1.616,0.17,2.429,0.239c-1.66,0.546-3.314,1.117-4.964,1.701
				c-11.563,2.613-23.329,4.238-35.161,4.973c-0.244,0.02-0.304,0.322-0.185,0.49c4.016,5.397,14.216,2.294,19.325,0.734
				c6.486-1.987,13.109-4.048,19.573-6.389c1.811-0.449,3.612-0.916,5.412-1.411c0.439-0.023,0.882-0.066,1.32-0.126
				c-0.212,0.162-0.448,0.313-0.73,0.462c-5.258,2.768-10.996,5.09-16.387,7.655c-5.561,2.649-11.31,4.81-17.503,5.252
				c-6.388,0.464-11.846-1.425-17.931-2.598C172.264,210.116,174.519,198.181,178.598,186.861z M210.814,210.49
				c-1.207,0.018-2.415,0.032-3.623,0.052c-2.736,0.037-5.477,0.116-8.21,0.027c-1.473-0.047-2.934-0.154-4.396-0.336
				c-1.943-0.233,0.836,0.037,1.649-0.034C201.104,209.813,205.963,210.097,210.814,210.49z M210.144,214.626
				c-1.578,0.565-3.156,1.131-4.735,1.678c-3.642,1.257-7.286,2.641-11.044,3.52c-1.857,0.434-3.739,0.771-5.648,0.868
				c-1.274,0.075-6.884,0.342-7.702-1.308c-0.732-1.482,3.85-1.159,4.61-1.225c1.998-0.159,3.997-0.352,5.99-0.57
				c3.488-0.389,6.962-0.869,10.425-1.443C204.753,215.701,207.452,215.178,210.144,214.626z M199.257,225.323
				c9.482-2.855,17.751-8.589,27.038-11.936c0.081,0.15,0.25,0.233,0.408,0.206c-0.865,2.131-2.022,4.111-3.191,6.075
				c-0.579,0.617-1.181,1.215-1.771,1.794c-2.289,2.239-4.799,4.259-7.477,6.015c-1.694,1.108-3.6,2.342-5.501,3.107
				c-2.852,1.155,0.588-0.799,1.329-1.438c5.31-4.571,10.738-9.024,15.229-14.437c0.168-0.196-0.153-0.411-0.318-0.229
				c-6.237,6.902-14.2,11.772-23.153,14.263c-0.02,0.005-0.014,0.037,0.005,0.032c6.496-1.635,12.509-4.519,17.721-8.645
				c-0.563,0.574-1.129,1.14-1.72,1.678c-3.751,3.368-7.651,6.593-11.489,9.865c-0.224,0.191,0.003,0.546,0.276,0.435
				c4.968-2.099,9.576-4.837,13.633-8.403c0.598-0.522,1.211-1.074,1.826-1.636c-1.284,2.239-2.441,4.533-3.077,7.09
				c-0.085,0.354,0.321,0.594,0.567,0.304c3.917-4.622,6.71-9.79,8.391-15.534c4.271,1.889,8.925,3.141,13.321,4.617
				c5.107,1.72,10.219,3.444,15.328,5.165c4.863,1.64,9.729,3.275,14.604,4.911c4.805,1.621,12.749,2.598,13.16,8.781
				c0.027,0.317,0.271,0.467,0.539,0.477c-0.73,4.931-3.328,9.31-5.529,13.786c-2.664,5.421-5.054,10.969-7.233,16.595
				c-3.226,8.324-5.979,16.772-8.208,25.386c-0.252-0.168-0.504-0.346-0.756-0.519c-0.244-0.168-0.49,0.192-0.267,0.384
				c0.022,0.009-2.695,0.089-3.218,0.061c-1.705-0.089-3.416-0.177-5.129-0.267c-2.924-0.15-5.84-0.299-8.762-0.453
				c2.633-7.59,5.786-14.979,9.288-22.208c2.103-4.354,4.339-8.641,6.586-12.917c2.101-3.991,4.579-7.945,6.282-12.146
				c0.139-0.144,0.223-0.336,0.262-0.538c0.115,0.183,0.307,0.313,0.542,0.295c0.578-0.047,0.644-0.068,1.022-0.346
				c4.014-1.388,7.555-3.799,10.528-6.828c0.29-0.294,0.081-0.719-0.321-0.699c-1.844,0.078-3.404,0.896-4.986,1.752
				c2.322-1.533,4.518-3.211,6.261-5.234c0.093-0.112,0.033-0.271-0.06-0.351c-1.473-1.3-4.852,1.896-5.938,2.748
				c-1.876,1.466-3.541,3.13-5.008,4.963c-1.062,0.683-2.126,1.355-3.184,2.033c-0.125,0.073-0.144,0.205-0.105,0.326
				c-0.016,0.019-0.029,0.038-0.038,0.052c-0.358-0.047-0.716-0.089-1.065-0.14c1.244-3.211,2.894-6.221,4.971-8.979
				c0.17-0.223-0.177-0.466-0.35-0.253c-2.191,2.814-3.91,5.853-5.146,9.166c-0.027-0.005-0.056-0.01-0.089-0.01
				c-0.104-2.182-0.188-4.359-0.34-6.533c-0.016-0.201-0.348-0.295-0.448-0.103c-0.979,1.827-2.255,4.299-1.588,6.36
				c-13.287-1.421-26.697-0.981-40.022-1.921c-7.459-0.523-15.023-1.458-22.17-3.753c-3.344-1.07-6.58-2.515-9.313-4.762
				c-1.994-1.635-3.364-3.832-5.107-5.646C190.863,227.211,195.445,226.473,199.257,225.323z M226.021,217.557
				c-0.039,0.083-0.058,0.173-0.095,0.257c-0.811,2.038-1.789,4.014-2.936,5.889c-0.29,0.486-2.561,4.458-3.069,4.359
				c-0.01,0,1.03-2.565,1.306-3.135c0.784-1.612,1.74-3.132,2.688-4.656C224.701,219.421,225.426,218.519,226.021,217.557z
				 M231.289,244.298c-1.241-0.015-3.433,0.686-4.171,0.785c-2.54,0.316-5.112,0.325-7.649,0.041
				c-3.711-0.415-7.221-1.443-10.531-3.028c2.659,0.473,5.32,0.813,7.911,1.108c4.806,0.547,9.621,0.794,14.442,0.943
				C231.283,244.198,231.279,244.25,231.289,244.298z M187.216,232.09c0.016,0.01,0.032,0.006,0.044,0.01
				c2.041,2.38,4.911,4.29,7.291,5.519c4.142,2.132,8.78,3.432,13.47,4.313c7.258,3.851,15.485,4.852,23.519,2.828
				c0.039,0.062,0.077,0.121,0.125,0.196c0.196,0.309,0.623-0.046,0.461-0.354c0.248-0.065,0.496-0.126,0.744-0.197
				c0.113-0.032,0.192-0.111,0.228-0.206c0.219,0.006,0.438,0.01,0.655,0.016c0.438,1.653,0.57,3.326,0.271,5.031
				c-0.492,2.809-1.497,2.921-3.902,3.086c-1.197,0.078-2.448,0.018-3.704-0.085c0.389-0.443,0.406-1.103,0.306-1.658
				c-0.048-0.253-0.421-0.192-0.396,0.065c0.05,0.546-0.152,1-0.208,1.533c0,0.014,0.004,0.028,0.008,0.037
				c-0.58-0.052-1.163-0.108-1.741-0.17c0.188-0.689,0.036-1.615-0.089-2.205c3.081,0.271,6.165,0.342,9.166-0.224
				c0.236-0.042,0.179-0.407-0.058-0.365c-3.439,0.646-6.971,0.369-10.474-0.009c-0.032-0.057-0.117-0.065-0.161-0.019
				c-1.499-0.163-2.989-0.347-4.466-0.478c-4.391-0.396-8.811-0.686-13.217-0.373c-2.444,0.174-5.055,0.742-7.624,0.948
				c-0.537-0.07-1.07-0.122-1.603-0.196c-1.176-0.153-2.64-0.191-4.087-0.308c-0.502-0.168-0.998-0.366-1.479-0.617
				c-5.963-3.165-6.781-10.085-5.3-16.067C185.508,231.801,186.226,231.735,187.216,232.09z M222.65,251.868
				c-0.313-0.023-0.621-0.052-0.929-0.074c-5.849-0.43-11.688-0.978-17.514-1.642c-1.76-0.2-3.514-0.43-5.276-0.645
				c1.301-0.173,2.596-0.388,3.897-0.537c3.841-0.439,7.703-0.402,11.555-0.155c2.74,0.179,5.538,0.58,8.334,0.875
				c-0.01,0.43-0.021,0.86-0.034,1.294C222.68,251.274,222.65,251.573,222.65,251.868z M222.998,250.976
				c-0.011-0.425-0.022-0.842-0.036-1.257c0.344,0.032,0.687,0.064,1.03,0.098c0,0.015-0.01,0.023-0.01,0.042
				c0.046,0.486,0.045,0.981-0.036,1.472c-0.037,0.221-0.103,0.439-0.15,0.654c-0.254-0.027-0.513-0.051-0.759-0.074
				C223.041,251.602,223.008,251.279,222.998,250.976z M184.874,232.212c-1.976,6.538-0.096,13.81,5.632,16.483
				c-1.107-0.14-2.148-0.352-2.981-0.738c-3.114-1.445-3.055-5.688-3.466-8.637C183.798,237.441,183.293,233.437,184.874,232.212z
				 M179.864,247.102c1.222,0.251,2.421,0.611,3.641,0.864c0.063,0.104,0.129,0.201,0.199,0.309
				c-1.728-0.037-3.448-0.122-4.965-0.827c0.037-0.16,0.052-0.328,0.052-0.506C179.132,246.998,179.498,247.031,179.864,247.102z
				 M173.204,245.746c0.08,0,0.199,0,0.338,0c-0.16,0.117-0.32,0.233-0.481,0.351c-0.028,0.023,0,0.065,0.034,0.051
				c0.294-0.144,0.589-0.28,0.886-0.401c0.005,0,0.012,0,0.016,0c-0.125,0.336-0.248,0.673-0.396,1.005
				c-0.187,0.406-0.528,0.817-0.478,1.28c0.019,0.188,0.217,0.253,0.365,0.201c0.499-0.168,0.715-0.842,0.877-1.291
				c0.145-0.405,0.235-0.779,0.26-1.181c1.364,0.068,2.868,0.401,1.019,2.037c-0.525,0.467-2.258,0.607-4.132,0.627
				c0.075-0.038,0.14-0.095,0.135-0.212c-0.055-0.878-0.223-1.724-0.496-2.547C171.838,245.686,172.524,245.708,173.204,245.746z
				 M148.484,243.638c-12.514-0.047-25.458-0.434-38.054,0.566c-0.926,0.01-1.85,0.014-2.773,0.032
				c12.76-1.211,25.53-1.243,38.318-2.019c5.47-0.328,11.884-0.322,17.093-2.201c0.814-0.29,1.567-0.664,2.235-1.127
				c-1.011,3.351-2.97,5.543-6.717,4.379c-0.442-0.135-0.773,0.117-0.878,0.449C154.637,243.676,151.562,243.643,148.484,243.638z
				 M105.736,248.881c-0.039,0-0.082,0-0.12,0c0.045-0.182,0.086-0.359,0.132-0.541
				C105.743,248.521,105.739,248.703,105.736,248.881z M105.103,248.298c-0.393-0.462-0.537-1.075-0.446-1.659
				c0.285-0.037,0.57-0.065,0.854-0.099C105.372,247.125,105.234,247.713,105.103,248.298z M88.75,181.885
				c0.071,0.004,0.149,0,0.235-0.023c6.272-1.786,4.888-1.22,11.346-1.304c7.001-0.094,14.007-0.188,21.006-0.295
				c6.74-0.103,13.486-0.206,20.231-0.304c3.11-0.052,6.223-0.093,9.337-0.145c3.155-0.051,6.831-0.463,9.884,0.626
				c5.683,2.033,5.42,9.631,5.227,15.361c-15.424-0.173-30.849-0.285-46.269-0.491c-14.674-0.2-21.192-0.878-35.846,0.154
				c0.184-0.748,0.354-1.491,0.554-2.233C85.285,190.142,86.305,184.941,88.75,181.885z M80.967,201.821
				c0.822-4.721,1.691-1.216,2.815-5.879c15.21-0.766,22.235-0.266,37.459-0.089c14.916,0.183,29.83,0.458,44.747,0.674
				c-0.029,0.846-0.048,1.645-0.036,2.364c0.089,6.79,0.169,5.342,0.217,12.132c0.048,6.791,0.063,13.571,0.019,20.362
				c-0.017,2.664,0.548,1.253-0.571,6.295c-2.903,2.66-8.791,2.842-12.282,3.215c-4.975,0.546-9.973,0.804-14.97,1.005
				c-9.819,0.401-19.608,0.706-29.394,1.688c-2.477,0.257-4.952,0.528-7.43,0.804c-6.355,0.201-12.712,0.477-19.068,0.49
				c-3.313,0.01-7.877,0.571-11.523-0.293c-0.345-0.249-0.675-0.533-0.986-0.86c-1.738-1.832-2.335-4.487-2.799-6.879
				c-0.329-1.683-0.578,4.845-0.763,3.139c0.4-2.065,0.871-3.985,1.083-5.392C69.139,223.654,79.062,212.724,80.967,201.821z
				 M66.268,240.704c0.201,1.845,0.479-4.548,0.871-2.743c0.527,2.435,1.417,4.836,3.189,6.463c-0.712-0.21-1.386-0.478-1.995-0.827
				C65.131,241.755,65.464,245.119,66.268,240.704z M103.439,246.779c0.238-0.024,0.476-0.057,0.715-0.085
				c-0.101,0.617,0.036,1.248,0.368,1.796C104.008,248.144,103.645,247.578,103.439,246.779z M108.34,249.134
				c-0.594-0.047-1.19-0.116-1.781-0.201c0.082-0.499,0.139-0.994,0.07-1.515c-0.015-0.102-0.094-0.152-0.175-0.148
				c0.004-0.29,0.009-0.575,0.016-0.855c0.643-0.084,1.285-0.173,1.929-0.267c10.696,0.019,21.451-0.78,32.14-0.846
				c6.225-0.031,12.447,0,18.67,0.098c3.111,0.053,6.224,0.122,9.333,0.201c0.767,0.023,1.543,0.038,2.311,0.057
				c0.235,0.837,0.361,1.688,0.366,2.565c0,0.112,0.065,0.164,0.139,0.196c-2.258,0.015-4.68-0.145-5.425-0.131
				c-3.039,0.062-6.078,0.056-9.116,0.037c-6.083-0.051-12.163-0.209-18.245-0.195c-5.357,0.014-10.702,0.183-16.045,0.594
				c-3.089,0.237-6.173,0.513-9.271,0.556C111.611,249.307,109.979,249.279,108.34,249.134z M121.667,255.177
				c-0.146-0.15-0.327-0.247-0.539-0.284c-0.693-0.374-1.373-0.744-2.04-1.113c0.452-0.149,0.9-0.313,1.339-0.495
				c-0.138,0.21-0.263,0.435-0.364,0.714c-0.055,0.155,0.145,0.239,0.244,0.127c0.415-0.472,0.806-0.963,1.271-1.383
				c0.201-0.178,0-0.542-0.262-0.411c-0.832,0.405-1.679,0.747-2.56,1.009c0.567-0.537,1.166-1.019,1.809-1.462
				c0.05-0.023,0.101-0.057,0.151-0.089c2.029,0.929,4.041,1.864,5.982,3.009c1.134,0.664,2.244,1.37,3.324,2.121
				c1.352,0.94,3.537,3.076,0.571,2.992c-1.277-0.043-3.514-1.841-4.662-2.45C124.505,256.705,123.088,255.935,121.667,255.177z
				 M116.68,252.362c0.67-0.568,1.404-1.046,2.208-1.419c0.438,0.205,0.879,0.406,1.322,0.607c-0.082,0.051-0.163,0.103-0.24,0.159
				c-0.888,0.434-1.815,0.752-2.783,0.961C117.016,252.574,116.849,252.465,116.68,252.362z M127.235,252.798
				c-1.675-0.896-3.358-1.687-4.771-2.304c3.321-0.248,6.643-0.51,9.97-0.594c0.068-0.004,0.135,0,0.201-0.004
				c-0.404,0.148-0.808,0.309-1.206,0.48C130.073,250.966,128.249,251.625,127.235,252.798z M114.602,250.943
				c1.201-0.033,2.404-0.084,3.603-0.159c-0.721,0.341-1.381,0.767-1.984,1.285C115.673,251.714,115.135,251.34,114.602,250.943z
				 M118.566,252.773c-0.158,0.146-0.302,0.305-0.455,0.455c-0.115-0.066-0.23-0.137-0.344-0.206
				C118.04,252.948,118.305,252.868,118.566,252.773z M116.927,265.173c0.06,1.523,0.115,3.042,0.176,4.571
				c-1.189,0.653-2.355,1.336-3.505,2.056c0.569-2.201,1.13-4.402,1.665-6.612c0.146-0.604,1.646-5.45,1.392-5.665
				C117.279,260.061,116.894,264.216,116.927,265.173z M114.58,265.491c-0.685,2.496-1.245,4.763-1.119,5.145
				c-0.132,0.631-0.224,1.076-0.249,1.229c-0.013,0.062,0.019,0.107,0.062,0.146c-0.472,0.299-0.943,0.598-1.407,0.906
				c0.725-2.621,3.366-11.501,4.17-13.217c0.013-0.01,0.022-0.01,0.034-0.018C115.755,260.485,115.154,262.972,114.58,265.491z
				 M114.805,260.317c0.117-0.032,0.231-0.075,0.342-0.121c-0.393,1.379-0.85,2.738-1.338,4.088
				c-0.043,0.113,0.12,0.169,0.174,0.062c0.232-0.481,0.442-0.973,0.632-1.467c-1.201,3.304-2.156,6.673-2.893,10.136
				c-0.265,0.178-0.527,0.364-0.79,0.548c0.667-2.033,1.206-4.117,1.828-6.133C113.484,265.084,114.275,262.729,114.805,260.317z
				 M115.472,260.036c0.108-0.051,0.212-0.116,0.313-0.172c-0.412,0.991-0.799,1.99-1.165,2.995
				C114.974,261.939,115.25,260.995,115.472,260.036z M114.015,260.102c-1.075,2.66-1.809,5.473-2.653,8.207
				c-0.648,2.1-1.415,4.201-1.958,6.342c-0.375,0.275-0.751,0.556-1.124,0.842c0.88-2.618,1.496-5.375,2.253-7.979
				c0.735-2.522,1.617-5.028,1.898-7.64C112.958,259.948,113.486,260.027,114.015,260.102z M110.34,261.093
				c-0.835,5.473-3.448,10.707-4.283,16.188c-0.626,0.527-1.244,1.07-1.85,1.621C100.975,277.229,105.901,263.135,110.34,261.093z
				 M129.135,266.809c12.838-4.79,27.225-7.253,40.926-7.178c0.883,0.009,1.778,0.031,2.68,0.079
				c1.991,0.594,3.936,1.463,5.833,2.211c2.742,1.074,5.505,2.103,8.224,3.238c6.879,2.869,11.753,7.146,13.832,14.482
				c1.829,6.458,1.036,13.269-0.201,19.764c-1.157,6.052-2.893,11.895-6.429,16.936c-7.12-2.971-14.622-4.72-22.081-6.701
				c-8.851-2.354-17.307-5.771-25.997-8.622c-10.954-3.598-22.537-5.108-33.594-8.276c-0.993-0.317-1.996-0.621-3.005-0.912
				c-3.657-1.168-7.238-2.565-10.71-4.317C107.074,278.258,117.243,271.253,129.135,266.809z M196.157,319.085
				c0.253-0.467,0.509-0.944,0.765-1.416c1.447-1.691,2.87-3.397,4.178-5.163c0.475-0.589,0.957-1.169,1.427-1.763
				c0.134-0.163,1.694-2.159,1.728-2.131c0.137,0.116-0.646,1.985-0.727,2.196c-1.419,3.631-3.726,6.626-6.712,9.042
				C196.599,319.591,196.381,319.338,196.157,319.085z M172.894,259.719c12.493,0.669,26.183,5.398,31.307,17.801
				c4.728,11.44-0.753,23.345-6.741,33.812c1.735-3.958,2.786-8.21,3.551-12.52c1.261-7.116,1.924-14.726-0.818-21.59
				c-2.381-5.964-6.92-9.59-12.723-12.021c-4.072-1.705-8.24-3.251-12.389-4.771C174.338,260.163,173.611,259.925,172.894,259.719z
				 M152.12,327.09c-5.13,4.118-13.126,2.641-16.914-2.537c-1.632-2.225-2.608-5.225-2.331-7.997
				c0.22-2.214,1.766-4.985,3.835-6.916c4.759-2.859,9.888-3.341,14.642,0.29C156.814,314.121,157.75,322.571,152.12,327.09z
				 M135.763,309.417c-1.062,1.032-1.969,2.261-2.673,3.447c-1.688,2.855-1.61,6.374-0.494,9.426
				c2.827,7.726,12.305,11.194,19.381,6.823c7.084-4.373,7.17-14.192,1.282-19.618c-0.165-0.149-0.338-0.294-0.517-0.438
				c2.305,0.672,4.599,1.368,6.892,2.084c0.691,2.154,1.363,4.28,1.466,6.64c0.173,3.968-0.719,7.979-2.818,11.39
				c-4.027,6.533-11.918,8.726-19.053,6.473c-14.381-4.537-17.795-24.386-4.87-32.172c2.29,0.804,4.589,1.575,6.911,2.295
				C139.005,306.139,137.002,307.252,135.763,309.417z M125.194,319.342c0.421,7.87,5.781,14.493,13.144,17.068
				c7.204,2.522,15.567,0.789,20.121-5.609c3.513-4.926,5.152-13.113,2.728-19.161c0.869,0.277,1.737,0.548,2.601,0.837
				c3.508,7.795,0.328,17.269-5.668,23.03c-5.617,5.394-13.63,6.684-20.871,4.108c-7.109-2.523-12.126-8.459-13.77-15.777
				c-0.785-3.486-0.749-7.178-0.03-10.679c0.541-2.636,2.884-10.637,6.432-11.3c1.089,0.401,2.175,0.799,3.264,1.187
				C127.534,305.785,124.881,313.495,125.194,319.342z M121.712,318.917c0.142,8.954,4.911,17.193,13.133,21.007
				c8.012,3.725,17.572,2.705,24.044-3.496c6.135-5.878,9.495-15.399,6.389-23.475c2.185,0.726,4.365,1.473,6.534,2.244
				c1.187,0.42,2.372,0.851,3.555,1.284c1.05,9.329-1.075,19.03-6.722,26.564c-5.18,5.327-12.045,9.179-19.23,10.617
				c-4.59,0.313-9.357-0.421-13.977-1.953c-10.104-3.356-18.778-10.702-22.856-20.643c-4.525-11.034-3.321-24.825,5.284-33.587
				c0.009-0.01,0.007-0.023,0.012-0.033c0.906,0.313,1.814,0.631,2.721,0.963c2.597,0.958,5.188,1.935,7.781,2.894
				C123.481,303.224,121.652,315.336,121.712,318.917z M98.264,287.896c1.753,0.947,3.543,1.794,5.361,2.542
				c-2.279-0.449-4.564-0.762-6.838-0.865C97.273,289.008,97.766,288.446,98.264,287.896z M106.48,297.666
				c-1.244-0.737-2.657-1.289-4.106-1.775c1.975,0.342,3.943,0.678,5.92,1.015C107.679,297.139,107.074,297.387,106.48,297.666z
				 M98.294,294.508c0.249-0.654,0.5-1.304,0.749-1.959c-0.012,0.065,0.006,0.136,0.086,0.165c2.876,1.06,5.719,2.219,8.532,3.434
				C104.538,295.601,101.415,295.054,98.294,294.508z M99.739,302.186c-1.82,1.715-3.395,3.673-4.565,5.889
				c-1.493,2.823-2.185,8.469-5.881,9.417c2.78-7.463,5.85-14.81,8.72-22.246c2.546,0.95,5.247,2.216,7.909,2.679
				C103.68,299.026,101.595,300.438,99.739,302.186z M109.771,296.391c-3.448-1.499-6.956-2.808-10.534-3.967
				c-0.078-0.024-0.137,0.019-0.172,0.069c0.048-0.122,0.096-0.252,0.142-0.373c4.484,1.089,8.889,2.238,13.277,3.574
				C111.563,295.887,110.658,296.11,109.771,296.391z M129.18,350.331c-9.272-5.739-17.637-14.36-19.372-25.446
				c-1.306-8.338-0.085-22.209,7.528-27.634c0.091,0.038,0.18,0.061,0.271,0.094c-8.389,8.029-9.904,20.937-6.373,31.629
				c3.692,11.184,12.946,19.581,23.988,23.311c2.967,1.005,6.011,1.687,9.041,1.977C139.064,354.43,133.87,353.232,129.18,350.331z
				 M172.386,338.522c3.354-6.622,4.57-14.302,3.814-21.723c0.386,0.141,0.774,0.285,1.155,0.429
				C178.816,324.912,176.677,332.348,172.386,338.522z M182.559,315.922c-2.281-0.828-4.554-1.66-6.836-2.482
				c-0.088-0.261-0.383-0.318-0.584-0.21c-1.916-0.688-3.835-1.365-5.767-2.01c-8.59-2.884-17.309-5.163-26.008-7.664
				c-7.927-2.276-15.575-5.384-23.33-8.164c-0.008-0.02-0.01-0.043-0.02-0.062c8.372,1.869,16.907,3.268,25.033,5.889
				c8.478,2.738,16.709,6.15,25.316,8.501c7.863,2.149,15.821,3.902,23.349,7.028c-0.237,0.327-0.479,0.649-0.732,0.967
				c-0.247,0.313,0.229,0.664,0.496,0.408c-0.361,0.611-0.716,1.215-1.06,1.813c-0.026,0.041-0.042,0.083-0.063,0.125
				C189.109,318.753,185.882,317.126,182.559,315.922z M282.769,328.231c-6.413,2.004-13.652,1.695-20.314,2.027
				c-7.436,0.364-14.877,0.636-22.322,0.79c-13.438,0.28-26.885,0.19-40.324-0.14c0.747-0.991,1.288-2.08,1.32-3.149
				c0.037-0.039,0.072-0.076,0.101-0.114c0.184-0.213,0.201-0.447,0.178-0.724c-0.012-0.149-0.199-0.172-0.29-0.083
				c0.175-0.389,0.167-0.86-0.169-1.3c-1.267-1.631-2.416-3.501-3.724-5.173c1.836-0.981,3.661-1.959,5.411-3.09
				c0.122-0.069-0.006-0.261-0.129-0.21c-0.699,0.322-3.608,2.281-4.881,2.949c0.922-0.646,2.251-2.473,2.742-3.071
				c2.254-2.752,3.747-5.841,4.594-9.295c0.06-0.248-0.233-0.435-0.407-0.211c-0.242,0.305-0.479,0.607-0.715,0.912
				c1.751-3.052,3.024-6.347,3.425-10.075c0.009-0.075-0.114-0.089-0.121-0.01c-0.481,4.023-1.957,7.645-4.054,11.037
				c-1.824,2.318-3.621,4.65-5.417,6.987c5.042-9.221,10.469-18.932,10.543-29.493c0.074-10.524-6.013-19.255-15.052-24.278
				c-10.356-5.748-22.644-5.771-34.126-4.636c-11.567,1.146-23.128,3.519-33.894,7.982c-2.663,1.106-5.267,2.355-7.786,3.738
				c-0.155-3.519-0.309-7.028-0.429-10.544c0.204-0.148,0.41-0.303,0.621-0.442c1.196-0.795,2.495-1.402,3.852-1.876
				c1.761,0.912,3.539,1.758,5.145,2.627c1.57,0.851,5.837,4.268,7.838,2.291c2.42-2.388-1.368-5.557-5.8-8.108
				c1.096-0.416,2.151-1.127,3.204-1.552c1.817-0.738,3.7-1.29,5.614-1.706c0.303-0.061,0.5-0.248,0.602-0.472
				c5.2-0.024,10.4,0.085,15.597,0.149c6.148,0.074,12.306,0.098,18.448-0.215c1.543-0.08,5.649-0.005,6.552-1.944
				c0.974,0.481,2.028,0.696,3.161,0.822c0.79,0.084,1.603,0.182,2.424,0.257c0.019,0.024,0.041,0.052,0.057,0.07
				c2.36,2.421,8.303,2.029,11.378,2.435c10.616,1.402,21.293,2.347,31.986,2.945c1.159,0.061,2.462,0.28,3.692,0.271
				c0.754,4.832-4.224,7.524-7.43,10.328c-2.497,2.178-4.847,4.674-6.506,7.562c-3.374,5.855-3.167,13.296-2.251,19.839
				c0.08,10.168,1.954,20.282,9.865,27.002c5.377,4.576,12.275,5.146,19.052,4.706c4.579-0.305,9.212-0.65,13.827-1.121
				c6.427-0.065,12.96-0.87,19.168-1.842c-0.062,0.155,0.026,0.354,0.232,0.401c8.083,1.633,14.296-8.79,18.302-15.052
				c0.171,0.14,0.349,0.266,0.504,0.421c0.284,0.265,0.536,0.579,0.784,0.878c-0.442,0.804-0.882,1.612-1.318,2.411
				C291.863,316.879,289.132,324.197,282.769,328.231z M294.858,319.894c0.477-0.799,0.955-1.593,1.42-2.397
				c1.959-0.846,3.801-1.897,5.562-3.07c-0.021,0.028-0.046,0.038-0.06,0.065c-0.194,0.327-0.354,0.673-0.506,1.022
				C299.237,317.122,297.128,318.618,294.858,319.894z M371.502,324.09c-0.978,6.319-2.841,12.395-7.337,17.118
				c-3.743,3.931-8.571,6.675-13.479,8.856c-6.449,2.874-12.116,3.515-18.958,1.506c-4.995-1.464-9.812-3.769-14.017-6.842
				c-4.525-3.31-8.309-7.599-10.73-12.67c-1.242-2.603-2.121-5.36-2.616-8.206c-0.429-2.444-0.141-5.01-0.448-7.444
				c0.683-0.552,1.367-1.113,2.047-1.688c-1.726,7.29-0.244,15.024,3.87,21.361c5.725,8.818,15.93,12.459,25.969,13.805
				c19.082,2.557,37.004-12.716,35.97-32.367c-0.53-10.23-5.911-19.723-14.083-25.751c0.742-0.121,1.48-0.237,2.229-0.345
				c4.473,3.032,7.281,8.738,9.636,13.445C372.718,311.191,372.563,317.272,371.502,324.09z"/>
			<path style="fill:#1A1A1A;" d="M138.242,316.585c-0.378,1.149-0.249,2.575,0.313,3.678c0.037,0.104,0.067,0.201,0.11,0.309
				c0.991,2.313,4.343,4.14,6.833,3.552c2.556-0.603,3.462-4.09,3.26-6.36c-0.208-2.313-1.913-4.296-4.189-4.838
				C141.907,312.3,139.089,314.019,138.242,316.585z M140.29,317.889c-0.144,0.958-0.101,1.977,0.107,2.906
				C139.79,319.894,139.601,318.865,140.29,317.889z M142.211,321.146c-0.512-0.631-0.65-2.347-0.558-3.127
				c0.07-0.565,0.269-1.075,0.568-1.505c0.291-0.103,0.588-0.182,0.885-0.243c1.262-0.229,2.159-0.141,2.685,1.094
				c0.545,1.285,0.059,2.061-0.752,3.127C144.289,321.469,143.307,322.506,142.211,321.146z M145.001,313.613
				c2.329,0.794,3.611,3.069,3.348,5.457c-0.264,2.389-1.546,4.533-3.898,4.271c2.017-1.177,3.771-4.242,3.149-6.355
				c-0.429-1.453-1.586-2.131-2.89-2.317c-0.025-0.084-0.072-0.164-0.185-0.192c-1.214-0.29-2.146-0.032-2.833,0.543
				c-1.077,0.383-2.029,1.023-2.646,1.846C139.788,314.636,142.221,312.668,145.001,313.613z"/>
		</g>
	</g>
</g>
</svg>
