<?xml version="1.0" encoding="utf-8"?>
<!-- Generator: Adobe Illustrator 16.0.0, SVG Export Plug-In . SVG Version: 6.00 Build 0)  -->
<!DOCTYPE svg PUBLIC "-//W3C//DTD SVG 1.1//EN" "http://www.w3.org/Graphics/SVG/1.1/DTD/svg11.dtd">
<svg version="1.1" id="Layer_1" xmlns="http://www.w3.org/2000/svg" xmlns:xlink="http://www.w3.org/1999/xlink" x="0px" y="0px"
     width="25.007px" height="25px" fill="#454545" viewBox="62.497 22.5 25.007 25" enable-background="new 62.497 22.5 25.007 25"
     xml:space="preserve">
<g>
	<g>
		<g>
			<path d="M83.068,46.757V31.473h0.604c0.887,0,1.607-0.722,1.607-1.608V27.37c0-0.886-0.721-1.607-1.607-1.607h-0.604v-2.52
				c0-0.355-0.289-0.643-0.643-0.643c-0.355,0-0.643,0.288-0.643,0.643v2.519h-0.605c-0.885,0-1.607,0.722-1.607,1.608v2.494
				c0,0.886,0.723,1.608,1.607,1.608h0.605v15.284c0,0.355,0.287,0.643,0.643,0.643C82.779,47.399,83.068,47.112,83.068,46.757z
				 M81.178,30.186c-0.178,0-0.32-0.144-0.32-0.322V27.37c0-0.178,0.143-0.321,0.32-0.321h2.494c0.178,0,0.322,0.144,0.322,0.321
				v2.494c0,0.178-0.145,0.322-0.322,0.322H81.178z"/>
		</g>
	</g>
	<g>
		<g>
			<path d="M75.908,46.757v-2.52h0.604c0.887,0,1.607-0.722,1.607-1.607v-2.495c0-0.887-0.721-1.607-1.607-1.607h-0.604V23.243
				c0-0.354-0.289-0.643-0.645-0.643c-0.354,0-0.643,0.288-0.643,0.643v15.284h-0.604c-0.887,0-1.607,0.721-1.607,1.607v2.495
				c0,0.886,0.721,1.607,1.607,1.607h0.604v2.52c0,0.355,0.288,0.643,0.643,0.643C75.619,47.399,75.908,47.112,75.908,46.757z
				 M74.017,42.951c-0.177,0-0.322-0.145-0.322-0.321v-2.495c0-0.177,0.146-0.321,0.322-0.321h2.495c0.176,0,0.32,0.145,0.32,0.321
				v2.495c0,0.177-0.145,0.321-0.32,0.321H74.017z"/>
		</g>
	</g>
	<g>
		<g>
			<path d="M68.219,46.757V35.989h0.604c0.887,0,1.607-0.721,1.607-1.607v-2.495c0-0.886-0.721-1.607-1.607-1.607h-0.604v-7.036
				c0-0.354-0.288-0.643-0.643-0.643c-0.355,0-0.644,0.288-0.644,0.643v7.036h-0.604c-0.886,0-1.607,0.722-1.607,1.607v2.495
				c0,0.887,0.722,1.607,1.607,1.607h0.604v10.768c0,0.355,0.288,0.643,0.644,0.643C67.931,47.399,68.219,47.112,68.219,46.757z
				 M66.328,34.704c-0.177,0-0.321-0.146-0.321-0.322v-2.495c0-0.177,0.145-0.32,0.321-0.32h2.495c0.177,0,0.321,0.144,0.321,0.32
				v2.495c0,0.177-0.145,0.322-0.321,0.322H66.328z"/>
		</g>
	</g>
</g>
</svg>
