<?xml version="1.0" encoding="iso-8859-1"?>
<!-- Generator: Adobe Illustrator 16.0.0, SVG Export Plug-In . SVG Version: 6.00 Build 0)  -->
<!DOCTYPE svg PUBLIC "-//W3C//DTD SVG 1.1//EN" "http://www.w3.org/Graphics/SVG/1.1/DTD/svg11.dtd">
<svg version="1.1" id="Layer_1" xmlns="http://www.w3.org/2000/svg" xmlns:xlink="http://www.w3.org/1999/xlink" x="0px" y="0px"
	 width="76px" height="240px" viewBox="0 0 76 240" style="enable-background:new 0 0 76 240;" xml:space="preserve">
<g style="opacity:0.5;">
	<path style="fill:#FFBF3D;" d="M-388.616,205.101c-0.009-0.114-0.007-0.231-0.029-0.343c-0.346-1.752,0.911-3.097,2.767-2.947
		c1.047,0.084,1.881,0.576,2.62,1.237c0.191,0.171,0.378,0.345,0.571,0.521c1.821-2.904,1.366-8.168-1.877-11.807
		c-0.203,0.152-0.41,0.309-0.616,0.464c-1.642,1.24-3.542,1.296-5.109,0.109c-0.503-0.382-0.973-0.818-1.389-1.288
		c-0.779-0.879-0.854-1.899-0.388-3c0.466-1.1,1.29-1.698,2.508-1.804c1.195-0.104,2.331,0.058,3.417,0.489
		c0.203,0.081,0.408,0.158,0.656,0.255c0.5-1.315,0.539-2.596,0.038-3.806c-1.128-2.724-3.005-4.815-5.781-6.082
		c-0.834-0.38-1.683-0.542-2.59-0.035c-0.294,0.164-0.707,0.292-0.917-0.114c-0.207-0.402,0.092-0.693,0.402-0.908
		c0.908-0.629,1.922-1.063,3.017-0.967c0.986,0.088,2.02,0.214,2.903,0.589c3.303,1.399,5.491,3.816,6.467,7.202
		c0.542,1.88,0.307,3.768-0.477,5.606c-0.169,0.396-0.117,0.626,0.169,0.929c3.173,3.353,4.594,7.316,3.889,11.977
		c-0.269,1.777-0.857,3.463-2.074,4.917c-0.106,0.126-0.118,0.414-0.047,0.571c1.399,3.104,1.64,6.456,1.849,9.813
		c0.028,0.45,0.085,1.113-0.57,1.16s-0.486-0.634-0.559-1.041c-0.445-2.479-0.875-4.96-1.316-7.438
		c-0.034-0.191-0.112-0.378-0.196-0.555c-0.185-0.389-0.29-0.923-0.613-1.104c-0.245-0.138-0.777,0.173-1.179,0.292
		c-1.681,0.501-3.992-0.319-4.886-1.731c-0.07-0.111-0.172-0.204-0.26-0.307C-388.35,205.67-388.482,205.385-388.616,205.101z
		 M-386.884,189.253c-0.97-0.382-1.836-0.771-2.741-1.062c-0.611-0.194-1.228,0.132-1.447,0.632
		c-0.219,0.496,0.019,1.045,0.597,1.378C-389.43,190.805-387.973,190.479-386.884,189.253z M-383.805,205.087
		c-0.464-0.33-0.855-0.719-1.337-0.921c-0.495-0.207-1.075-0.287-1.626-0.304c-0.187-0.005-0.528,0.332-0.579,0.552
		c-0.137,0.597,0.334,1.262,0.928,1.47C-385.467,206.218-384.586,205.974-383.805,205.087z"/>
	<path style="fill:#FFBF3D;" d="M51.202,32.39c-2.068-1.195-2.53-3.201-2.737-5.316c-0.267-2.713,0.489-5.187,2.083-7.345
		c2.505-3.393,5.879-5.508,10.022-6.336c0.598-0.119,1.244-0.056,1.861,0.002c0.43,0.041,0.764,0.311,0.837,0.783
		c0.071,0.47-0.168,0.81-0.555,1.011c-0.536,0.278-1.094,0.519-1.654,0.748c-2.34,0.956-4.471,2.256-6.341,3.956
		c-1.677,1.525-2.852,3.39-2.951,5.685c-0.056,1.259,0.312,2.54,0.53,3.803c0.045,0.26,0.277,0.488,0.464,0.797
		c0.402-0.448,0.735-0.824,1.075-1.195c1.387-1.519,3.053-2.558,5.101-2.906c0.455-0.077,0.942-0.092,1.397-0.022
		c1.105,0.169,1.644,1.023,1.346,2.103c-0.336,1.214-1.092,2.147-2.056,2.928c-1.336,1.083-2.926,1.526-4.57,1.856
		c-0.231,0.046-0.503,0.224-0.628,0.422c-1.816,2.862-2.237,5.966-1.5,9.241c0.514,2.275,2.15,3.331,4.442,2.82
		c1.041-0.232,2.043-0.64,3.063-0.968c0.158-0.051,0.317-0.099,0.569-0.031c-0.135,0.167-0.237,0.394-0.411,0.49
		c-2.056,1.136-4.191,2.049-6.61,1.813c-1.88-0.184-3.134-1.276-3.764-3.02c-1.087-3.007-1.192-6.043-0.033-9.064
		C50.468,33.897,50.839,33.185,51.202,32.39z M55.874,31.121c1.727-0.085,3.109-0.622,4.159-1.846
		c0.283-0.33,0.494-0.751,0.633-1.166c0.166-0.494-0.013-0.658-0.519-0.579c-0.171,0.027-0.343,0.077-0.505,0.143
		C57.998,28.334,56.892,29.586,55.874,31.121z"/>
	<path style="fill:#FFBF3D;" d="M49.547,193.298c0.527-0.295,1.007-0.581,1.501-0.836c2.319-1.199,4.764-1.654,7.354-1.199
		c0.973,0.171,1.892,0.477,2.652,1.14c1.28,1.116,1.261,2.537-0.143,3.471c-0.729,0.485-1.566,0.875-2.41,1.104
		c-1.96,0.529-3.962,0.662-5.969,0.212c-0.282-0.063-0.59-0.111-0.826-0.262c-0.616-0.394-1.055-0.195-1.505,0.289
		c-1.631,1.748-3.183,3.557-3.326,6.087c-0.146,2.568,0.735,3.906,2.919,4.671c0.705,0.246,1.407,0.501,2.095,0.789
		c0.179,0.075,0.298,0.292,0.445,0.443c-0.18,0.122-0.352,0.329-0.541,0.348c-0.343,0.032-0.715,0.011-1.041-0.093
		c-1.164-0.372-2.337-0.733-3.465-1.2c-1.955-0.81-3.442-3.381-3.41-5.729c0.031-2.212,0.885-4.117,2.202-5.832
		c0.629-0.818,1.347-1.567,2.049-2.377c0.003,0.017,0.011-0.034-0.011-0.063c-1.946-2.736-1.489-5.529-0.14-8.304
		c1.287-2.646,3.416-4.472,6.024-5.717c2.911-1.392,5.98-2.145,9.229-1.654c0.772,0.117,1.524,0.49,2.234,0.847
		c0.429,0.217,0.721,0.676,0.563,1.208c-0.167,0.563-0.67,0.6-1.166,0.614c-2.65,0.082-5.248,0.482-7.74,1.407
		c-3.455,1.285-6.115,3.454-7.526,6.96C49.055,190.968,49.03,192.138,49.547,193.298z M51.958,195.894
		c0.141,0.099,0.197,0.158,0.268,0.185c2.505,0.933,4.956,0.7,7.352-0.382c0.329-0.148,0.627-0.408,0.879-0.674
		c0.283-0.299,0.235-0.646-0.169-0.791c-0.382-0.138-0.8-0.229-1.204-0.24c-2.322-0.062-4.524,0.418-6.565,1.557
		C52.346,195.644,52.182,195.755,51.958,195.894z"/>
	<path style="fill:#FFBF3D;" d="M-388.384,27.082c0.904-0.48,1.667-0.959,2.488-1.299c0.774-0.32,1.598-0.551,2.42-0.715
		c0.896-0.178,1.755,0.017,2.473,0.626c0.606,0.515,0.822,1.241,0.38,1.856c-1.546,2.156-3.401,3.874-6.284,3.882
		c-0.351,0.001-0.716-0.04-1.05-0.142c-0.334-0.103-0.513-0.042-0.708,0.251c-0.975,1.459-1.669,3.002-1.721,4.801
		c-0.046,1.639,0.607,2.802,2.117,3.468c0.417,0.184,0.853,0.338,1.241,0.573c0.21,0.127,0.494,0.419,0.467,0.594
		c-0.059,0.391-0.464,0.349-0.75,0.271c-1.586-0.43-3.032-1.12-3.944-2.563c-1.354-2.142-1.571-4.44-0.682-6.799
		c0.306-0.812,0.834-1.54,1.242-2.315c0.082-0.156,0.169-0.406,0.102-0.528c-0.834-1.499-0.826-3.07-0.466-4.684
		c0.877-3.934,3.29-6.54,6.968-8.042c0.372-0.152,0.774-0.256,1.172-0.306c0.168-0.021,0.426,0.117,0.518,0.262
		c0.055,0.085-0.088,0.403-0.222,0.486c-1.767,1.099-2.877,2.79-4.024,4.441c-0.899,1.294-1.495,2.73-1.726,4.293
		C-388.447,25.996-388.384,26.52-388.384,27.082z M-386.334,29.005c1.537,0.491,3.977-0.513,4.692-1.895
		c0.151-0.293,0.007-0.458-0.24-0.452c-0.377,0.009-0.806,0.016-1.116,0.193c-1.081,0.616-2.12,1.304-3.173,1.969
		C-386.234,28.86-386.274,28.936-386.334,29.005z"/>
	<path style="fill:#FFBF3D;" d="M24.293,102.942c0.803-0.635,1.468-1.245,2.214-1.727c0.704-0.454,1.472-0.83,2.252-1.139
		c0.849-0.336,1.729-0.3,2.546,0.17c0.688,0.397,1.031,1.073,0.708,1.758c-1.132,2.399-2.646,4.422-5.481,4.95
		c-0.345,0.064-0.711,0.09-1.059,0.049c-0.347-0.041-0.511,0.052-0.65,0.375c-0.696,1.611-1.101,3.253-0.827,5.032
		c0.249,1.621,1.102,2.646,2.706,3.03c0.443,0.106,0.9,0.179,1.323,0.34c0.23,0.087,0.563,0.323,0.567,0.5
		c0.013,0.395-0.394,0.426-0.688,0.401c-1.639-0.137-3.185-0.555-4.342-1.811c-1.718-1.862-2.346-4.084-1.896-6.565
		c0.155-0.854,0.544-1.665,0.806-2.502c0.053-0.168,0.093-0.43,0.004-0.538c-1.091-1.324-1.365-2.871-1.302-4.523
		c0.153-4.028,2.058-7.026,5.404-9.167c0.339-0.216,0.716-0.392,1.098-0.512c0.162-0.051,0.44,0.038,0.558,0.164
		c0.068,0.074-0.015,0.412-0.132,0.519c-1.539,1.399-2.328,3.262-3.158,5.093c-0.651,1.435-0.979,2.955-0.924,4.534
		C24.036,101.886,24.191,102.389,24.293,102.942z M26.656,104.465c1.601,0.206,3.819-1.221,4.274-2.709
		c0.096-0.316-0.076-0.452-0.317-0.401c-0.369,0.077-0.79,0.161-1.063,0.391c-0.951,0.801-1.851,1.665-2.767,2.509
		C26.729,104.304,26.703,104.386,26.656,104.465z"/>
	<g id="XMLID_2_">
		<g>
			<path style="fill:#D7952E;" d="M28.921,66.318c0.019,0.18-0.379,0.521-0.652,0.608c-0.803,0.268-1.635,0.467-2.462,0.65
				c-0.477,0.103-0.645,0.358-0.634,0.825c0.023,0.891,0.057,1.787-0.015,2.67c-0.035,0.356-0.258,0.836-0.54,0.993
				c-0.431,0.232-0.662-0.267-0.897-0.57c-0.854-1.119-1.712-2.233-2.546-3.364c-0.349-0.471-0.683-0.69-1.299-0.412
				c-1.061,0.471-2.156,0.856-3.244,1.266c-0.21,0.074-0.446,0.123-0.665,0.116c-0.562-0.014-0.787-0.485-0.404-1.078
				c0.86-0.875,1.797-1.868,2.783-2.814c0.366-0.35,0.396-0.584,0.093-0.982c-0.526-0.693-1.026-1.406-1.464-2.158
				c-0.157-0.271-0.096-0.677-0.13-1.022c0.324-0.011,0.679-0.107,0.979-0.016c1.246,0.371,2.483,0.792,3.714,1.214
				c0.404,0.141,0.674,0.07,0.971-0.269c0.779-0.885,1.586-1.746,2.435-2.566c0.224-0.219,0.641-0.249,0.97-0.362
				c0.089,0.319,0.272,0.644,0.255,0.955c-0.076,1.241-0.187,2.478-0.339,3.711c-0.043,0.388,0.079,0.561,0.4,0.715
				c0.713,0.331,1.435,0.65,2.106,1.053C28.614,65.652,28.885,66.015,28.921,66.318z M26.428,66.488
				c0.392-0.096,0.785-0.186,1.317-0.314c-0.829-0.42-1.495-0.795-2.194-1.092c-0.613-0.266-0.735-0.675-0.651-1.296
				c0.142-1.086,0.214-2.18,0.327-3.421c-0.739,0.787-1.421,1.4-1.964,2.124c-0.631,0.839-1.326,0.886-2.227,0.538
				c-0.937-0.36-1.905-0.624-2.859-0.927c0.302,0.626,0.691,1.149,1.059,1.688c0.612,0.892,0.577,1.229-0.186,1.994
				c-0.658,0.654-1.317,1.308-1.976,1.961c0.012,0.039,0.031,0.076,0.043,0.115c0.864-0.345,1.715-0.705,2.582-1.023
				c0.988-0.363,1.396-0.245,2.052,0.589c0.706,0.891,1.379,1.804,2.072,2.706c0.128,0.165,0.264,0.316,0.397,0.472
				c0.1-0.785,0.072-1.51,0.063-2.235c-0.007-0.991,0.195-1.281,1.122-1.597C25.742,66.653,26.086,66.574,26.428,66.488z"/>
			<path style="fill:#D7952E;" d="M27.745,66.173c-0.532,0.129-0.926,0.218-1.317,0.314c-0.342,0.086-0.686,0.165-1.021,0.28
				c-0.927,0.316-1.129,0.605-1.122,1.597c0.009,0.725,0.036,1.45-0.063,2.235c-0.134-0.156-0.27-0.307-0.397-0.472
				c-0.693-0.901-1.366-1.814-2.072-2.706c-0.656-0.834-1.063-0.952-2.052-0.589c-0.867,0.318-1.718,0.679-2.582,1.023
				c-0.012-0.039-0.031-0.076-0.043-0.115c0.658-0.653,1.317-1.307,1.976-1.961c0.763-0.766,0.798-1.103,0.186-1.994
				c-0.367-0.539-0.757-1.061-1.059-1.688c0.954,0.304,1.923,0.567,2.859,0.927c0.9,0.349,1.596,0.302,2.227-0.538
				c0.543-0.723,1.225-1.337,1.964-2.124c-0.113,1.241-0.186,2.335-0.327,3.421c-0.084,0.621,0.038,1.03,0.651,1.296
				C26.25,65.378,26.916,65.753,27.745,66.173z"/>
		</g>
		<g>
		</g>
	</g>
	<g id="XMLID_5_">
		<g>
			<path style="fill:#D7952E;" d="M-334.432,96.044c-0.041,0.316-0.247,0.702-0.505,0.879c-0.537,0.376-1.15,0.646-1.742,0.941
				c-0.446,0.221-0.903,0.433-1.365,0.637c-0.742,0.328-1.053,0.811-0.904,1.681c0.21,1.244,0.319,2.512,0.369,3.772
				c0.014,0.404-0.29,0.828-0.447,1.239c-0.389-0.166-0.845-0.246-1.142-0.513c-1.107-0.98-2.169-2.003-3.221-3.045
				c-0.491-0.482-0.934-0.559-1.533-0.177c-1.139,0.716-2.313,1.377-3.481,2.046c-0.345,0.197-0.705,0.398-1.08,0.493
				c-0.678,0.167-1.137-0.335-0.964-1.096c0.484-0.904,1.022-1.864,1.513-2.855c1.504-3.047,1.511-2.095-0.667-4.467
				c-0.318-0.353-0.682-0.683-0.904-1.095c-0.158-0.282-0.239-0.742-0.111-0.997c0.1-0.194,0.592-0.295,0.897-0.264
				c1.18,0.121,2.357,0.283,3.526,0.476c0.929,0.15,1.586-0.021,2.082-0.943c0.631-1.182,1.401-2.291,2.187-3.382
				c0.222-0.308,0.693-0.434,1.049-0.649c0.191,0.344,0.48,0.67,0.551,1.033c0.271,1.448,0.488,2.918,0.695,4.379
				c0.073,0.526,0.313,0.773,0.854,0.839c1.226,0.159,2.451,0.346,3.667,0.57C-334.85,95.6-334.419,95.905-334.432,96.044z
				 M-338.774,97.596c0.7-0.351,1.397-0.689,2.257-1.112c-0.954-0.157-1.724-0.29-2.492-0.403c-1.227-0.18-1.457-0.356-1.694-1.6
				c-0.239-1.237-0.426-2.49-0.659-3.896c-0.674,1.05-1.336,1.96-1.873,2.94c-0.676,1.26-1.697,1.529-2.99,1.313
				c-0.856-0.14-1.72-0.221-2.794-0.358c0.693,0.747,1.234,1.363,1.805,1.938c0.631,0.637,0.696,1.311,0.303,2.087
				c-0.625,1.245-1.22,2.503-1.877,3.856c1.271-0.727,2.454-1.372,3.602-2.065c0.823-0.499,1.541-0.432,2.232,0.206
				c0.557,0.518,1.121,1.038,1.684,1.557c0.466,0.442,0.926,0.883,1.548,1.47c-0.135-1.301-0.187-2.379-0.374-3.434
				C-340.31,98.871-339.799,98.115-338.774,97.596z"/>
			<path style="fill:#D7952E;" d="M-336.518,96.484c-0.859,0.422-1.557,0.761-2.257,1.112c-1.025,0.52-1.536,1.275-1.321,2.5
				c0.187,1.055,0.238,2.133,0.374,3.434c-0.622-0.587-1.082-1.028-1.548-1.47c-0.563-0.52-1.127-1.039-1.684-1.557
				c-0.692-0.638-1.409-0.705-2.232-0.206c-1.147,0.694-2.331,1.339-3.602,2.065c0.658-1.353,1.252-2.611,1.877-3.856
				c0.393-0.776,0.328-1.45-0.303-2.087c-0.571-0.575-1.112-1.191-1.805-1.938c1.074,0.137,1.938,0.218,2.794,0.358
				c1.293,0.216,2.313-0.053,2.99-1.313c0.536-0.98,1.198-1.891,1.873-2.94c0.233,1.406,0.42,2.658,0.659,3.896
				c0.237,1.244,0.467,1.42,1.694,1.6C-338.241,96.194-337.472,96.327-336.518,96.484z"/>
		</g>
		<g>
		</g>
	</g>
	<g id="XMLID_3_">
		<g>
			<path style="fill:#D7952E;" d="M19.254,153.522c0.395,0.111,0.989,0.535,0.975,0.796c-0.022,0.387-0.417,0.869-0.789,1.1
				c-1.033,0.633-2.134,1.153-3.212,1.718c-0.595,0.305-0.833,0.744-0.766,1.442c0.142,1.413,0.201,2.841,0.282,4.261
				c0.022,0.268,0.097,0.565,0.008,0.796c-0.148,0.387-0.335,0.937-0.632,1.033c-0.268,0.097-0.818-0.23-1.056-0.527
				c-1.354-1.606-2.655-3.265-3.949-4.878c-1.517,0.759-2.892,1.457-4.275,2.134c-0.424,0.208-0.869,0.438-1.323,0.498
				c-0.372,0.053-0.914-0.015-1.107-0.245c-0.193-0.238-0.171-0.811-0.022-1.13c0.29-0.647,0.743-1.212,1.107-1.822
				c0.61-1.019,1.205-2.045,1.814-3.063c0.23-0.387,0.179-0.669-0.179-0.988c-0.772-0.691-1.554-1.391-2.223-2.179
				c-0.342-0.409-0.729-1.094-0.617-1.518c0.216-0.78,1.048-0.461,1.628-0.401c1.45,0.164,2.878,0.424,4.328,0.551
				c0.35,0.029,0.832-0.208,1.07-0.483c0.915-1.056,1.718-2.209,2.632-3.257c0.269-0.305,0.863-0.609,1.175-0.506
				c0.298,0.097,0.551,0.722,0.573,1.13c0.089,1.242,0.066,2.499,0.052,3.748c-0.008,0.565,0.179,0.833,0.78,0.937
				C16.785,152.891,18.034,153.173,19.254,153.522z M17.336,155.062c0.253-0.134,0.505-0.282,0.922-0.513
				c-1.376-0.298-2.498-0.565-3.636-0.781c-0.744-0.141-1.057-0.617-1.108-1.301c-0.045-0.625-0.037-1.249-0.045-1.874
				c0-0.528,0-1.063,0-1.591c-0.089-0.016-0.178-0.03-0.268-0.045c-0.513,0.684-1.13,1.316-1.524,2.06
				c-0.721,1.397-1.799,1.636-3.204,1.36c-1.019-0.2-2.053-0.29-3.108-0.431c0.58,0.617,1.078,1.204,1.621,1.739
				c1.004,0.975,1.115,1.302,0.438,2.565c-0.706,1.331-1.502,2.617-2.26,3.919c0.037,0.052,0.066,0.097,0.104,0.148
				c1.146-0.609,2.298-1.204,3.436-1.829c1.539-0.84,1.547-0.862,2.751,0.461c0.959,1.063,1.881,2.156,2.952,3.384
				c-0.037-0.781-0.067-1.368-0.097-1.956C14.131,156.898,13.61,156.965,17.336,155.062z"/>
			<path style="fill:#D7952E;" d="M18.258,154.549c-0.417,0.23-0.669,0.379-0.922,0.513c-3.726,1.903-3.205,1.837-3.026,5.316
				c0.029,0.588,0.06,1.175,0.097,1.956c-1.071-1.228-1.993-2.32-2.952-3.384c-1.204-1.323-1.212-1.301-2.751-0.461
				c-1.138,0.625-2.29,1.22-3.436,1.829c-0.037-0.052-0.066-0.097-0.104-0.148c0.758-1.302,1.554-2.588,2.26-3.919
				c0.677-1.264,0.565-1.591-0.438-2.565c-0.543-0.535-1.041-1.122-1.621-1.739c1.056,0.141,2.09,0.23,3.108,0.431
				c1.405,0.275,2.483,0.037,3.204-1.36c0.395-0.743,1.012-1.376,1.524-2.06c0.09,0.015,0.179,0.029,0.268,0.045
				c0,0.527,0,1.063,0,1.591c0.008,0.625,0,1.249,0.045,1.874c0.052,0.684,0.364,1.16,1.108,1.301
				C15.76,153.983,16.882,154.251,18.258,154.549z"/>
		</g>
		<g>
		</g>
	</g>
	<g id="XMLID_20_">
		<g>
			<path style="fill:#FFBF3D;" d="M31.024,224.561c0.266,0.075,0.668,0.361,0.657,0.532c-0.01,0.262-0.281,0.593-0.527,0.749
				c-0.703,0.427-1.446,0.778-2.175,1.16c-0.396,0.206-0.558,0.502-0.513,0.975c0.096,0.954,0.131,1.918,0.191,2.878
				c0.01,0.181,0.061,0.382,0.005,0.537c-0.101,0.262-0.226,0.628-0.432,0.698c-0.181,0.061-0.548-0.16-0.714-0.356
				c-0.914-1.085-1.788-2.205-2.667-3.295c-1.024,0.512-1.949,0.984-2.883,1.441c-0.287,0.141-0.588,0.297-0.899,0.337
				c-0.246,0.035-0.618-0.011-0.749-0.171c-0.13-0.156-0.11-0.543-0.01-0.764c0.196-0.432,0.497-0.813,0.749-1.23
				c0.411-0.684,0.813-1.377,1.22-2.064c0.156-0.262,0.126-0.452-0.115-0.668c-0.522-0.468-1.05-0.939-1.502-1.478
				c-0.236-0.276-0.497-0.733-0.417-1.02c0.146-0.527,0.709-0.312,1.101-0.271c0.975,0.105,1.943,0.287,2.918,0.372
				c0.236,0.021,0.567-0.141,0.729-0.331c0.613-0.709,1.155-1.487,1.778-2.195c0.181-0.206,0.583-0.412,0.794-0.342
				c0.195,0.065,0.366,0.487,0.387,0.764c0.055,0.839,0.045,1.688,0.035,2.526c-0.005,0.387,0.12,0.567,0.527,0.638
				C29.356,224.134,30.2,224.319,31.024,224.561z M29.729,225.601c0.176-0.091,0.346-0.191,0.622-0.347
				c-0.924-0.201-1.688-0.382-2.451-0.527c-0.507-0.096-0.713-0.422-0.748-0.88c-0.03-0.422-0.025-0.844-0.03-1.266
				c-0.005-0.361,0-0.718,0-1.074c-0.061-0.011-0.12-0.025-0.186-0.035c-0.347,0.467-0.764,0.889-1.025,1.396
				c-0.487,0.939-1.221,1.105-2.165,0.915c-0.688-0.131-1.391-0.191-2.1-0.287c0.387,0.417,0.724,0.814,1.096,1.176
				c0.678,0.658,0.748,0.879,0.296,1.728c-0.478,0.899-1.015,1.769-1.527,2.652c0.021,0.03,0.046,0.065,0.065,0.096
				c0.773-0.407,1.553-0.809,2.326-1.23c1.04-0.567,1.045-0.583,1.854,0.312c0.653,0.718,1.275,1.456,1.994,2.285
				c-0.025-0.527-0.045-0.924-0.065-1.321C27.563,226.841,27.212,226.881,29.729,225.601z"/>
			<path style="fill:#FFBF3D;" d="M30.351,225.254c-0.276,0.155-0.446,0.256-0.622,0.347c-2.517,1.28-2.165,1.24-2.045,3.591
				c0.021,0.397,0.04,0.794,0.065,1.321c-0.719-0.829-1.341-1.567-1.994-2.285c-0.809-0.895-0.813-0.879-1.854-0.312
				c-0.773,0.422-1.553,0.823-2.326,1.23c-0.02-0.03-0.045-0.065-0.065-0.096c0.513-0.884,1.05-1.753,1.527-2.652
				c0.452-0.849,0.382-1.069-0.296-1.728c-0.372-0.361-0.709-0.759-1.096-1.176c0.709,0.096,1.412,0.156,2.1,0.287
				c0.944,0.19,1.678,0.024,2.165-0.915c0.262-0.507,0.679-0.929,1.025-1.396c0.065,0.01,0.125,0.024,0.186,0.035
				c0,0.356-0.005,0.713,0,1.074c0.005,0.422,0,0.844,0.03,1.266c0.035,0.458,0.241,0.784,0.748,0.88
				C28.663,224.872,29.427,225.053,30.351,225.254z"/>
		</g>
		<g>
		</g>
	</g>
	<g id="XMLID_4_">
		<g>
			<path style="fill:#D7952E;" d="M-341.725,69.972c0.161,0.27,0.28,0.737,0.15,0.949c-0.12,0.208-0.597,0.306-0.908,0.28
				c-1.256-0.093-2.511-0.285-3.767-0.374c-0.27-0.021-0.638,0.161-0.819,0.374c-0.628,0.737-1.172,1.551-1.806,2.283
				c-0.197,0.223-0.648,0.451-0.861,0.368c-0.223-0.088-0.379-0.54-0.425-0.851c-0.068-0.488-0.016-0.991-0.016-1.489
				c0.005,0,0.01,0,0.016,0c0-0.208,0-0.415,0-0.623c-0.005-1.893,0.238-1.4-1.474-1.811c-0.68-0.166-1.39-0.228-2.064-0.41
				c-0.26-0.067-0.581-0.301-0.648-0.529c-0.052-0.166,0.208-0.55,0.42-0.659c1.142-0.581,2.303-1.125,3.476-1.645
				c0.358-0.161,0.539-0.342,0.555-0.768c0.037-0.996,0.114-1.987,0.229-2.973c0.031-0.301,0.182-0.71,0.399-0.82
				c0.182-0.083,0.602,0.14,0.814,0.337c0.814,0.768,1.587,1.577,2.366,2.381c0.244,0.254,0.482,0.321,0.825,0.212
				c0.648-0.202,1.307-0.399,1.977-0.519c0.41-0.073,0.861-0.063,1.266,0.036c0.472,0.109,0.41,0.555,0.27,0.872
				c-0.395,0.913-0.82,1.811-1.287,2.687c-0.192,0.358-0.239,0.597,0.036,0.934C-342.54,68.774-342.099,69.355-341.725,69.972z
				 M-342.804,64.873c-0.612,0-1.121-0.14-1.494,0.026c-1.333,0.591-2.303,0.197-3.102-0.918c-0.166-0.233-0.395-0.425-0.576-0.648
				c-0.228-0.275-0.436-0.565-0.653-0.851c-0.078,0.057-0.156,0.109-0.233,0.166c-0.037,0.784-0.109,1.562-0.099,2.345
				c0.01,0.924-0.425,1.432-1.276,1.738c-0.846,0.306-1.655,0.726-2.635,1.167c0.98,0.208,1.779,0.374,2.583,0.54
				c0.555,0.114,0.955,0.395,1.001,1.012c0.037,0.41,0.052,0.825,0.063,1.24c0.01,0.565,0,1.131,0,1.836
				c0.571-0.752,1.027-1.442,1.577-2.039c0.265-0.286,0.7-0.498,1.089-0.561c0.457-0.078,0.944,0.037,1.416,0.088
				c0.82,0.093,1.634,0.208,2.589,0.327c-0.482-0.664-0.835-1.198-1.245-1.686c-0.467-0.555-0.514-1.053-0.099-1.681
				C-343.494,66.367-343.219,65.682-342.804,64.873z"/>
			<path style="fill:#D7952E;" d="M-344.298,64.898c0.374-0.166,0.882-0.026,1.494-0.026c-0.415,0.81-0.69,1.494-1.095,2.101
				c-0.415,0.628-0.368,1.125,0.099,1.681c0.41,0.488,0.763,1.022,1.245,1.686c-0.955-0.119-1.769-0.233-2.589-0.327
				c-0.472-0.052-0.959-0.166-1.416-0.088c-0.389,0.063-0.825,0.275-1.089,0.561c-0.55,0.597-1.006,1.287-1.577,2.039
				c0-0.706,0.01-1.271,0-1.836c-0.01-0.415-0.026-0.83-0.063-1.24c-0.046-0.617-0.446-0.897-1.001-1.012
				c-0.804-0.166-1.603-0.332-2.583-0.54c0.98-0.441,1.79-0.861,2.635-1.167c0.851-0.306,1.287-0.814,1.276-1.738
				c-0.011-0.783,0.062-1.561,0.099-2.345c0.078-0.057,0.155-0.109,0.233-0.166c0.218,0.286,0.425,0.576,0.653,0.851
				c0.182,0.223,0.41,0.415,0.576,0.648C-346.602,65.096-345.631,65.49-344.298,64.898z"/>
		</g>
		<g>
		</g>
	</g>
	<g id="XMLID_19_">
		<g>
			<path style="fill:#D7952E;" d="M44.507,125.937c0.118,0.174,0.217,0.481,0.139,0.632c-0.075,0.141-0.39,0.226-0.596,0.22
				c-0.846-0.013-1.688-0.091-2.534-0.101c-0.178-0.003-0.42,0.133-0.53,0.282c-0.394,0.518-0.722,1.083-1.119,1.597
				c-0.119,0.156-0.415,0.327-0.561,0.28c-0.152-0.05-0.274-0.346-0.314-0.549c-0.067-0.326-0.053-0.664-0.072-0.997
				c0.003,0,0.007,0,0.014-0.001c-0.009-0.139-0.017-0.277-0.028-0.415c-0.078-1.266,0.104-0.945-1.053-1.152
				c-0.464-0.08-0.938-0.098-1.399-0.191c-0.176-0.035-0.396-0.179-0.454-0.328c-0.041-0.108,0.117-0.376,0.255-0.457
				c0.739-0.433,1.495-0.84,2.257-1.236c0.236-0.121,0.351-0.25,0.341-0.534c-0.015-0.664-0.002-1.332,0.035-1.996
				c0.013-0.199,0.093-0.482,0.234-0.56c0.118-0.066,0.411,0.066,0.558,0.19c0.574,0.481,1.126,0.991,1.678,1.497
				c0.17,0.161,0.332,0.196,0.557,0.11c0.429-0.161,0.861-0.319,1.304-0.426c0.271-0.064,0.572-0.075,0.844-0.025
				c0.322,0.054,0.295,0.354,0.214,0.572c-0.227,0.625-0.476,1.241-0.753,1.846c-0.11,0.247-0.136,0.408,0.062,0.623
				C43.912,125.169,44.229,125.539,44.507,125.937z M43.581,122.572c-0.409,0.024-0.754-0.049-0.997,0.077
				c-0.867,0.447-1.527,0.223-2.105-0.491c-0.124-0.149-0.28-0.269-0.414-0.41c-0.16-0.175-0.313-0.36-0.471-0.543
				c-0.05,0.041-0.1,0.079-0.149,0.12c0.007,0.525-0.011,1.051,0.027,1.57c0.043,0.617-0.228,0.974-0.78,1.212
				c-0.557,0.238-1.077,0.551-1.715,0.884c0.66,0.101,1.2,0.18,1.744,0.259c0.379,0.058,0.653,0.226,0.712,0.636
				c0.037,0.272,0.067,0.55,0.088,0.826c0.029,0.378,0.048,0.756,0.076,1.228c0.348-0.525,0.625-1.005,0.973-1.425
				c0.165-0.201,0.448-0.36,0.706-0.418c0.298-0.066,0.632-0.013,0.949,0.003c0.548,0.03,1.097,0.074,1.739,0.116
				c-0.349-0.425-0.603-0.768-0.898-1.077c-0.334-0.353-0.382-0.684-0.129-1.119C43.179,123.598,43.339,123.13,43.581,122.572z"/>
			<path style="fill:#D7952E;" d="M42.584,122.649c0.243-0.126,0.588-0.053,0.997-0.077c-0.242,0.558-0.402,1.025-0.645,1.447
				c-0.253,0.436-0.205,0.767,0.129,1.119c0.296,0.31,0.55,0.652,0.898,1.077c-0.643-0.042-1.191-0.086-1.739-0.116
				c-0.317-0.016-0.651-0.069-0.949-0.003c-0.258,0.058-0.541,0.217-0.706,0.418c-0.348,0.42-0.625,0.899-0.973,1.425
				c-0.028-0.472-0.047-0.85-0.076-1.228c-0.021-0.276-0.051-0.554-0.088-0.826c-0.059-0.41-0.333-0.578-0.712-0.636
				c-0.544-0.079-1.084-0.158-1.744-0.259c0.638-0.333,1.158-0.646,1.715-0.884c0.553-0.238,0.823-0.595,0.78-1.212
				c-0.038-0.52-0.021-1.045-0.027-1.57c0.05-0.041,0.1-0.079,0.149-0.12c0.157,0.183,0.311,0.368,0.471,0.543
				c0.134,0.142,0.29,0.261,0.414,0.41C41.057,122.872,41.717,123.097,42.584,122.649z"/>
		</g>
		<g>
		</g>
	</g>
	<g id="XMLID_10_">
		<g>
			<path style="fill:#D7952E;" d="M-383.459,84.643c-0.118,0.17-0.216,0.478-0.138,0.628c0.072,0.143,0.39,0.228,0.596,0.223
				c0.843-0.017,1.689-0.091,2.531-0.101c0.181-0.003,0.42,0.132,0.533,0.282c0.39,0.517,0.722,1.083,1.116,1.597
				c0.123,0.157,0.416,0.324,0.561,0.277c0.152-0.047,0.274-0.342,0.318-0.548c0.064-0.323,0.049-0.662,0.069-0.994
				c-0.003,0-0.007,0-0.011,0c0.008-0.139,0.017-0.277,0.025-0.416c0.082-1.265-0.104-0.949,1.056-1.151
				c0.464-0.084,0.938-0.098,1.396-0.192c0.176-0.035,0.4-0.181,0.458-0.331c0.038-0.109-0.121-0.372-0.258-0.454
				c-0.74-0.433-1.495-0.843-2.254-1.239c-0.236-0.122-0.351-0.247-0.344-0.532c0.019-0.667,0.006-1.332-0.035-1.999
				c-0.009-0.199-0.093-0.482-0.234-0.56c-0.118-0.066-0.408,0.07-0.558,0.193c-0.571,0.481-1.123,0.991-1.675,1.498
				c-0.173,0.16-0.335,0.192-0.56,0.109c-0.425-0.161-0.857-0.318-1.3-0.425c-0.271-0.064-0.573-0.076-0.847-0.029
				c-0.32,0.058-0.296,0.358-0.215,0.575c0.231,0.623,0.476,1.242,0.753,1.846c0.114,0.243,0.136,0.408-0.061,0.619
				C-382.867,83.874-383.185,84.245-383.459,84.643z M-382.536,81.274c0.409,0.024,0.758-0.049,0.997,0.077
				c0.867,0.451,1.531,0.223,2.109-0.487c0.12-0.149,0.28-0.269,0.411-0.411c0.164-0.178,0.313-0.364,0.47-0.542
				c0.05,0.038,0.1,0.079,0.15,0.117c-0.007,0.525,0.011,1.051-0.027,1.574c-0.04,0.617,0.231,0.97,0.784,1.211
				c0.553,0.238,1.077,0.551,1.715,0.884c-0.663,0.096-1.204,0.179-1.744,0.258c-0.379,0.054-0.657,0.226-0.712,0.636
				c-0.037,0.272-0.067,0.549-0.09,0.822c-0.026,0.378-0.045,0.759-0.073,1.227c-0.352-0.521-0.626-1-0.973-1.421
				c-0.166-0.201-0.448-0.36-0.706-0.417c-0.302-0.07-0.632-0.017-0.95,0.003c-0.552,0.03-1.1,0.07-1.739,0.116
				c0.345-0.425,0.602-0.771,0.896-1.081c0.333-0.353,0.384-0.68,0.132-1.116C-382.134,82.304-382.291,81.832-382.536,81.274z"/>
			<path style="fill:#D7952E;" d="M-381.539,81.351c-0.239-0.125-0.588-0.052-0.997-0.077c0.245,0.557,0.402,1.029,0.648,1.451
				c0.252,0.436,0.202,0.763-0.132,1.116c-0.293,0.31-0.55,0.656-0.896,1.081c0.639-0.046,1.188-0.086,1.739-0.116
				c0.317-0.02,0.647-0.073,0.95-0.003c0.257,0.057,0.54,0.216,0.706,0.417c0.347,0.42,0.622,0.899,0.973,1.421
				c0.028-0.468,0.047-0.849,0.073-1.227c0.023-0.273,0.053-0.55,0.09-0.822c0.056-0.411,0.333-0.582,0.712-0.636
				c0.541-0.079,1.081-0.162,1.744-0.258c-0.638-0.333-1.162-0.646-1.715-0.884c-0.552-0.241-0.824-0.595-0.784-1.211
				c0.038-0.523,0.021-1.049,0.027-1.574c-0.05-0.038-0.1-0.079-0.15-0.117c-0.157,0.179-0.307,0.364-0.47,0.542
				c-0.13,0.142-0.291,0.261-0.411,0.411C-380.008,81.574-380.672,81.802-381.539,81.351z"/>
		</g>
		<g>
		</g>
	</g>
	<g id="XMLID_34_">
		<g>
			<path style="fill:#D7952E;" d="M-368.409,164.489c0.007,0.207,0.113,0.512,0.266,0.585c0.144,0.072,0.446-0.049,0.61-0.178
				c0.665-0.519,1.297-1.086,1.966-1.598c0.143-0.111,0.416-0.146,0.595-0.094c0.623,0.18,1.227,0.435,1.85,0.609
				c0.192,0.052,0.527,0.01,0.615-0.115c0.094-0.128,0.014-0.438-0.074-0.629c-0.142-0.297-0.357-0.559-0.541-0.837
				c-0.003,0.002-0.006,0.004-0.009,0.006c-0.076-0.116-0.153-0.232-0.229-0.348c-0.697-1.063-0.651-0.697,0.155-1.555
				c0.318-0.344,0.692-0.641,1.002-0.99c0.12-0.134,0.211-0.386,0.165-0.538c-0.032-0.111-0.317-0.228-0.476-0.21
				c-0.852,0.097-1.702,0.221-2.55,0.36c-0.259,0.042-0.426,0.011-0.591-0.222c-0.388-0.543-0.796-1.067-1.226-1.579
				c-0.126-0.153-0.364-0.33-0.523-0.308c-0.134,0.018-0.285,0.301-0.331,0.489c-0.169,0.727-0.305,1.466-0.443,2.202
				c-0.042,0.231-0.153,0.354-0.382,0.423c-0.437,0.126-0.877,0.259-1.295,0.439c-0.255,0.11-0.504,0.282-0.695,0.483
				c-0.222,0.238-0.022,0.465,0.172,0.59c0.555,0.361,1.125,0.709,1.709,1.026c0.237,0.126,0.354,0.245,0.322,0.532
				C-368.396,163.52-368.428,164.006-368.409,164.489z M-369.689,161.239c0.342-0.226,0.574-0.491,0.844-0.536
				c0.965-0.158,1.359-0.739,1.396-1.654c0.006-0.191,0.063-0.383,0.083-0.574c0.024-0.24,0.033-0.479,0.051-0.716
				c0.063,0,0.127,0.003,0.189,0.003c0.309,0.425,0.639,0.835,0.922,1.276c0.334,0.52,0.764,0.641,1.354,0.5
				c0.585-0.141,1.192-0.204,1.902-0.319c-0.473,0.475-0.856,0.865-1.241,1.252c-0.271,0.271-0.391,0.574-0.191,0.934
				c0.133,0.245,0.277,0.482,0.422,0.715c0.203,0.32,0.419,0.635,0.677,1.026c-0.594-0.207-1.101-0.426-1.631-0.555
				c-0.255-0.064-0.575-0.02-0.815,0.089c-0.284,0.125-0.516,0.365-0.758,0.571c-0.424,0.354-0.838,0.716-1.326,1.138
				c0.025-0.549,0.023-0.98,0.072-1.404c0.056-0.481-0.1-0.774-0.563-0.972C-368.751,161.822-369.159,161.539-369.689,161.239z"/>
			<path style="fill:#D7952E;" d="M-368.845,160.703c-0.27,0.045-0.502,0.311-0.844,0.536c0.53,0.3,0.938,0.583,1.388,0.773
				c0.463,0.197,0.619,0.49,0.563,0.972c-0.049,0.424-0.047,0.855-0.072,1.404c0.487-0.422,0.902-0.783,1.326-1.138
				c0.243-0.206,0.475-0.446,0.758-0.571c0.24-0.108,0.56-0.153,0.815-0.089c0.53,0.129,1.037,0.348,1.631,0.555
				c-0.258-0.392-0.474-0.706-0.677-1.026c-0.145-0.232-0.29-0.47-0.422-0.715c-0.2-0.359-0.08-0.663,0.191-0.934
				c0.385-0.387,0.769-0.777,1.241-1.252c-0.71,0.115-1.317,0.179-1.902,0.319c-0.59,0.141-1.019,0.02-1.354-0.5
				c-0.283-0.441-0.613-0.852-0.922-1.276c-0.063,0-0.127-0.003-0.189-0.003c-0.019,0.236-0.027,0.476-0.051,0.716
				c-0.02,0.191-0.076,0.383-0.083,0.574C-367.486,159.964-367.88,160.545-368.845,160.703z"/>
		</g>
		<g>
		</g>
	</g>
	<g style="opacity:0.5;">
		<g id="XMLID_16_">
			<g>
				<path style="fill:#FF5151;" d="M29.025,180.013c0.249,0.607,0.166,1.183-0.063,1.738c-0.093,0.228-0.368,0.472-0.606,0.528
					c-1.204,0.291-2.413,0.581-3.637,0.769c-1.214,0.182-1.723-0.312-1.774-1.546c-0.026-0.659-0.067-1.323-0.104-1.987
					c-0.011,0-0.016,0-0.026,0c0.036-0.353,0-0.727,0.125-1.043c0.119-0.295,0.357-0.689,0.617-0.757
					c1.136-0.296,2.298-0.504,3.455-0.7c0.685-0.12,1.084,0.249,1.286,0.892C28.527,178.612,28.745,179.328,29.025,180.013z
					 M27.89,181.476c0.098-0.021,0.233-0.249,0.218-0.357c-0.12-0.742-0.218-1.5-0.437-2.221c-0.316-1.074-0.353-1.063-1.432-0.887
					c-0.306,0.052-0.606,0.104-0.913,0.171c-1.598,0.357-1.598,0.363-1.479,2.018c0,0.451,0,0.908,0,1.364
					c0.006,0.431,0.197,0.664,0.648,0.581C25.633,181.933,26.764,181.714,27.89,181.476z"/>
				<path style="fill:#FF5151;" d="M28.107,181.118c0.016,0.108-0.12,0.337-0.218,0.357c-1.126,0.238-2.257,0.457-3.394,0.669
					c-0.451,0.083-0.643-0.15-0.648-0.581c0-0.456,0-0.913,0-1.364c-0.119-1.654-0.119-1.66,1.479-2.018
					c0.307-0.067,0.607-0.119,0.913-0.171c1.079-0.177,1.115-0.188,1.432,0.887C27.89,179.618,27.987,180.376,28.107,181.118z"/>
			</g>
			<g>
			</g>
		</g>
		<g id="XMLID_11_">
			<g>
				<path style="fill:#FF5151;" d="M-363.044,108.521c0.386,0.297,0.542,0.585,0.147,1.021c-0.714,0.797-1.369,1.662-2.104,2.444
					c-0.807,0.856-1.467,0.806-2.253-0.058c-0.732-0.814-1.504-1.595-2.199-2.439c-0.79-0.959-0.73-1.487,0.181-2.334
					c0.499-0.465,1.015-0.911,1.553-1.326c0.422-0.334,0.879-0.311,1.311,0.029c0.584,0.467,1.17,0.921,1.756,1.384
					c-0.003,0.004-0.003,0.004-0.006,0.008C-364.12,107.674-363.585,108.102-363.044,108.521z M-363.652,109.159
					c-1.116-0.88-2.125-1.694-3.167-2.469c-0.134-0.099-0.486-0.046-0.635,0.068c-0.445,0.33-0.832,0.745-1.259,1.095
					c-0.421,0.342-0.411,0.673-0.071,1.046c0.735,0.811,1.503,1.587,2.198,2.432c0.368,0.455,0.656,0.332,0.955,0.012
					C-364.984,110.658-364.356,109.944-363.652,109.159z"/>
				<path style="fill:#FF5151;" d="M-366.818,106.69c1.041,0.774,2.05,1.589,3.167,2.469c-0.705,0.785-1.333,1.499-1.979,2.185
					c-0.298,0.32-0.586,0.443-0.955-0.012c-0.695-0.845-1.463-1.622-2.198-2.432c-0.34-0.373-0.35-0.705,0.071-1.046
					c0.428-0.35,0.814-0.765,1.259-1.095C-367.304,106.644-366.952,106.591-366.818,106.69z"/>
			</g>
			<g>
			</g>
		</g>
		<g id="XMLID_14_">
			<g>
				<path style="fill:#FF5151;" d="M66.01,86.303c0.073,0.431-0.005,0.664-0.555,0.934c-1.074,0.535-2.189,0.669-3.32,0.825
					c-1.322,0.181-1.753-0.218-1.8-1.525c-0.011-0.332-0.052-0.659-0.063-0.991c-0.011-0.327,0-0.659,0-0.991
					c-0.016,0-0.036,0-0.052,0c0-0.311-0.011-0.622,0.005-0.928c0.021-0.478,0.244-0.851,0.711-0.991
					c1.007-0.295,2.013-0.612,3.04-0.83c0.763-0.166,1.24,0.197,1.396,0.954C65.605,83.938,65.818,85.121,66.01,86.303z
					 M65.19,86.599c-0.233-1.229-0.446-2.428-0.711-3.61c-0.031-0.13-0.394-0.306-0.555-0.27c-0.846,0.197-1.681,0.431-2.506,0.706
					c-0.14,0.047-0.285,0.343-0.285,0.519c0.005,0.825,0.052,1.655,0.104,2.479c0.052,0.804,0.146,0.893,0.949,0.757
					C63.162,87.019,64.127,86.806,65.19,86.599z"/>
				<path style="fill:#FF5151;" d="M64.479,82.988c0.265,1.183,0.478,2.381,0.711,3.61c-1.063,0.208-2.028,0.42-3.004,0.581
					c-0.804,0.135-0.897,0.047-0.949-0.757c-0.052-0.825-0.099-1.655-0.104-2.479c0-0.176,0.146-0.472,0.285-0.519
					c0.825-0.275,1.66-0.508,2.506-0.706C64.086,82.682,64.448,82.858,64.479,82.988z"/>
			</g>
			<g>
			</g>
		</g>
		<g id="XMLID_12_">
			<g>
				<path style="fill:#FF5151;" d="M-381.311,127.138c0.057,0.436-0.135,1.167-0.451,1.339c-1.059,0.575-2.21,1.017-3.362,1.411
					c-0.763,0.254-1.245-0.089-1.385-0.893c-0.156-0.893-0.239-1.806-0.317-2.376c-0.015-1.687,0.27-2.08,1.577-2.365
					c0.664-0.141,1.349-0.224,2.028-0.28c0.607-0.047,1.027,0.27,1.219,0.855C-381.752,125.597-381.42,126.354-381.311,127.138z
					 M-382.048,127.75c-0.129-0.431-0.218-0.727-0.306-1.022c-0.654-2.116-0.908-2.246-3.056-1.493
					c-0.042,0.015-0.099,0.01-0.119,0.036c-0.125,0.145-0.353,0.301-0.348,0.446c0.046,1.094,0.135,2.194,0.228,3.517
					C-384.32,128.688-383.209,128.228-382.048,127.75z"/>
				<path style="fill:#FF5151;" d="M-382.354,126.728c0.088,0.296,0.176,0.592,0.306,1.022c-1.162,0.478-2.272,0.938-3.6,1.483
					c-0.093-1.322-0.182-2.423-0.228-3.517c-0.005-0.146,0.223-0.302,0.348-0.446c0.021-0.026,0.078-0.021,0.119-0.036
					C-383.262,124.481-383.007,124.611-382.354,126.728z"/>
			</g>
			<g>
			</g>
		</g>
		<g id="XMLID_6_">
			<g>
				<path style="fill:#FF5151;" d="M-346.265,135.213c0.057,0.437-0.135,1.168-0.451,1.339c-1.059,0.576-2.21,1.017-3.362,1.411
					c-0.763,0.254-1.245-0.089-1.385-0.893c-0.155-0.893-0.238-1.806-0.316-2.376c-0.016-1.686,0.27-2.08,1.577-2.365
					c0.664-0.141,1.349-0.224,2.028-0.28c0.607-0.047,1.027,0.27,1.219,0.855C-346.706,133.667-346.374,134.43-346.265,135.213z
					 M-347.002,135.825c-0.129-0.431-0.218-0.727-0.306-1.021c-0.653-2.117-0.908-2.247-3.055-1.494
					c-0.042,0.016-0.099,0.01-0.12,0.036c-0.125,0.146-0.353,0.301-0.348,0.446c0.047,1.095,0.135,2.194,0.229,3.517
					C-349.274,136.765-348.164,136.303-347.002,135.825z"/>
				<path style="fill:#FF5151;" d="M-347.308,134.804c0.088,0.295,0.177,0.591,0.306,1.021c-1.162,0.478-2.272,0.939-3.6,1.483
					c-0.093-1.322-0.182-2.422-0.229-3.517c-0.005-0.146,0.223-0.301,0.348-0.446c0.021-0.026,0.078-0.021,0.12-0.036
					C-348.216,132.557-347.961,132.687-347.308,134.804z"/>
			</g>
			<g>
			</g>
		</g>
		<g id="XMLID_15_">
			<g>
				<path style="fill:#FF5151;" d="M65.103,116.73c0.451,0.218,0.772,0.555,0.721,1.323c-0.13,0.752-0.259,1.717-0.472,2.661
					c-0.042,0.192-0.384,0.457-0.581,0.451c-0.944-0.041-1.878-0.202-2.822-0.249c-1.572-0.078-1.852-0.482-1.193-1.919
					c0.358-0.789,0.731-1.577,1.142-2.34c0.451-0.835,0.727-0.923,1.603-0.591C64.039,116.268,64.578,116.481,65.103,116.73z
					 M64.9,118.011c0.016-0.156-0.12-0.42-0.255-0.488c-0.57-0.275-1.162-0.498-1.826-0.768c-0.513,1.074-0.995,2.091-1.509,3.165
					c1.12,0.088,2.127,0.171,3.236,0.259C64.672,119.428,64.812,118.722,64.9,118.011z"/>
				<path style="fill:#FF5151;" d="M64.646,117.523c0.135,0.068,0.271,0.332,0.255,0.488c-0.089,0.711-0.229,1.417-0.354,2.168
					c-1.109-0.088-2.116-0.171-3.236-0.259c0.514-1.074,0.996-2.091,1.509-3.165C63.483,117.026,64.075,117.249,64.646,117.523z"/>
			</g>
			<g>
			</g>
		</g>
		<g id="XMLID_24_">
			<g>
				<path style="fill:#FF5151;" d="M67.703,155.606c0.452,0.218,0.773,0.555,0.722,1.323c-0.13,0.752-0.26,1.717-0.473,2.661
					c-0.041,0.191-0.384,0.456-0.581,0.451c-0.938-0.042-1.878-0.202-2.821-0.249c-1.572-0.078-1.853-0.482-1.193-1.92
					c0.357-0.788,0.731-1.576,1.142-2.339c0.451-0.836,0.726-0.924,1.603-0.592C66.64,155.145,67.18,155.357,67.703,155.606z
					 M67.501,156.888c0.016-0.155-0.119-0.42-0.254-0.487c-0.57-0.275-1.162-0.498-1.826-0.768c-0.514,1.073-0.996,2.09-1.51,3.164
					c1.121,0.088,2.127,0.171,3.237,0.26C67.273,158.304,67.413,157.599,67.501,156.888z"/>
				<path style="fill:#FF5151;" d="M67.247,156.4c0.135,0.067,0.27,0.332,0.254,0.487c-0.088,0.711-0.228,1.416-0.353,2.169
					c-1.11-0.089-2.116-0.172-3.237-0.26c0.514-1.074,0.996-2.091,1.51-3.164C66.085,155.902,66.677,156.125,67.247,156.4z"/>
			</g>
			<g>
			</g>
		</g>
		<g id="XMLID_9_">
			<g>
				<path style="fill:#FF5151;" d="M-394.165,102.197c0.052,0.55,0.155,1.1,0.129,1.645c-0.016,0.223-0.295,0.591-0.487,0.617
					c-0.773,0.093-1.562,0.099-2.345,0.093c-0.472,0-0.949-0.067-1.421-0.135c-0.55-0.078-0.882-0.42-0.83-0.975
					c0.094-0.986,0.244-1.966,0.395-2.947c0.073-0.488,0.41-0.706,0.887-0.669c0.97,0.083,1.94,0.146,2.9,0.286
					c0.768,0.114,0.887,0.316,0.876,1.089c0,0.327,0,0.659,0,0.991C-394.098,102.191-394.129,102.197-394.165,102.197z
					 M-395.078,103.737c0.046-0.965,0.088-1.831,0.135-2.77c-0.98-0.099-1.899-0.187-2.936-0.291
					c-0.135,0.985-0.26,1.878-0.395,2.874C-397.169,103.618-396.152,103.675-395.078,103.737z"/>
				<path style="fill:#FF5151;" d="M-394.943,100.967c-0.047,0.939-0.088,1.805-0.135,2.77c-1.074-0.062-2.091-0.119-3.196-0.187
					c0.135-0.996,0.259-1.889,0.395-2.874C-396.842,100.78-395.924,100.869-394.943,100.967z"/>
			</g>
			<g>
			</g>
		</g>
		<g id="XMLID_13_">
			<g>
				<path style="fill:#FF5151;" d="M45.498,95.464c0.01,0.488-0.384,0.644-0.747,0.669c-0.929,0.057-1.857,0.057-2.786,0.052
					c-0.327,0-0.659-0.057-0.98-0.13c-0.55-0.125-0.804-0.477-0.705-1.048c0.052-0.285,0.119-0.571,0.191-0.851
					c0.473-1.728,0.592-1.821,2.387-1.873c0.575,0.067,1.156,0.099,1.722,0.208c0.587,0.109,0.867,0.467,0.846,1.105
					C45.404,94.214,45.487,94.842,45.498,95.464z M44.377,95.226c0.063-0.685,0.114-1.25,0.177-1.987
					c-0.887,0-1.671-0.026-2.443,0.016c-0.192,0.01-0.467,0.213-0.534,0.389c-0.192,0.472-0.291,0.98-0.457,1.582
					C42.24,95.226,43.282,95.226,44.377,95.226z"/>
				<path style="fill:#FF5151;" d="M44.554,93.239c-0.063,0.737-0.114,1.302-0.177,1.987c-1.095,0-2.137,0-3.258,0
					c0.166-0.602,0.265-1.11,0.457-1.582c0.067-0.176,0.342-0.379,0.534-0.389C42.883,93.213,43.667,93.239,44.554,93.239z"/>
			</g>
			<g>
			</g>
		</g>
		<g id="XMLID_36_">
			<g>
				<path style="fill:#FF5151;" d="M51.03,237.309c0.011,0.487-0.384,0.644-0.747,0.669c-0.929,0.058-1.857,0.058-2.786,0.052
					c-0.326,0-0.658-0.057-0.98-0.129c-0.55-0.125-0.804-0.478-0.705-1.049c0.052-0.285,0.119-0.57,0.192-0.851
					c0.472-1.728,0.591-1.82,2.386-1.872c0.576,0.067,1.157,0.099,1.723,0.207c0.586,0.109,0.866,0.467,0.846,1.105
					C50.937,236.059,51.02,236.686,51.03,237.309z M49.91,237.07c0.062-0.686,0.114-1.251,0.176-1.987
					c-0.887,0-1.67-0.026-2.443,0.016c-0.191,0.011-0.467,0.213-0.534,0.389c-0.191,0.473-0.29,0.98-0.456,1.583
					C47.777,237.07,48.815,237.07,49.91,237.07z"/>
				<path style="fill:#FF5151;" d="M50.086,235.083c-0.062,0.736-0.114,1.302-0.176,1.987c-1.095,0-2.133,0-3.258,0
					c0.166-0.603,0.265-1.11,0.456-1.583c0.067-0.176,0.343-0.378,0.534-0.389C48.416,235.057,49.199,235.083,50.086,235.083z"/>
			</g>
			<g>
			</g>
		</g>
		<g id="XMLID_30_">
			<g>
				<path style="fill:#FF5151;" d="M73.667,58.049c0.011,0.487-0.384,0.643-0.747,0.669c-0.929,0.057-1.857,0.057-2.785,0.052
					c-0.327,0-0.659-0.057-0.98-0.129c-0.551-0.125-0.805-0.478-0.701-1.048c0.047-0.286,0.114-0.571,0.188-0.851
					c0.472-1.728,0.591-1.821,2.386-1.873c0.576,0.067,1.157,0.099,1.723,0.208c0.586,0.109,0.866,0.467,0.846,1.105
					C73.573,56.798,73.656,57.426,73.667,58.049z M72.547,57.81c0.062-0.685,0.114-1.25,0.176-1.987
					c-0.887,0-1.67-0.026-2.443,0.016c-0.191,0.01-0.467,0.212-0.534,0.389c-0.191,0.472-0.29,0.98-0.456,1.583
					C70.414,57.81,71.452,57.81,72.547,57.81z"/>
				<path style="fill:#FF5151;" d="M72.723,55.823c-0.062,0.736-0.114,1.302-0.176,1.987c-1.095,0-2.133,0-3.258,0
					c0.166-0.602,0.265-1.11,0.456-1.583c0.067-0.176,0.343-0.378,0.534-0.389C71.053,55.797,71.836,55.823,72.723,55.823z"/>
			</g>
			<g>
			</g>
		</g>
		<g id="XMLID_37_">
			<g>
				<path style="fill:#FF5151;" d="M-375.029,237.038c0.01,0.487-0.384,0.644-0.747,0.669c-0.929,0.058-1.857,0.058-2.786,0.052
					c-0.327,0-0.659-0.057-0.98-0.129c-0.55-0.125-0.804-0.478-0.701-1.048c0.047-0.286,0.114-0.571,0.187-0.852
					c0.472-1.728,0.591-1.82,2.392-1.872c0.57,0.067,1.151,0.099,1.717,0.207c0.586,0.109,0.867,0.467,0.846,1.105
					C-375.123,235.788-375.04,236.416-375.029,237.038z M-376.15,236.8c0.063-0.686,0.114-1.251,0.176-1.987
					c-0.887,0-1.67-0.025-2.443,0.016c-0.192,0.011-0.467,0.213-0.534,0.389c-0.192,0.473-0.291,0.98-0.457,1.583
					C-378.282,236.8-377.245,236.8-376.15,236.8z"/>
				<path style="fill:#FF5151;" d="M-375.974,234.813c-0.062,0.736-0.114,1.302-0.176,1.987c-1.095,0-2.132,0-3.258,0
					c0.166-0.603,0.265-1.11,0.457-1.583c0.067-0.176,0.342-0.378,0.534-0.389C-377.644,234.787-376.86,234.813-375.974,234.813z"/>
			</g>
			<g>
			</g>
		</g>
		<g id="XMLID_29_">
			<g>
				<path style="fill:#FF5151;" d="M68.363,222.701c0.011,0.487-0.384,0.644-0.747,0.669c-0.929,0.058-1.857,0.058-2.786,0.052
					c-0.326,0-0.658-0.057-0.98-0.129c-0.55-0.125-0.804-0.478-0.7-1.048c0.047-0.286,0.114-0.571,0.188-0.852
					c0.467-1.728,0.591-1.82,2.386-1.872c0.576,0.067,1.157,0.099,1.723,0.207c0.586,0.109,0.866,0.467,0.846,1.105
					C68.27,221.451,68.353,222.079,68.363,222.701z M67.243,222.463c0.062-0.686,0.113-1.251,0.176-1.987
					c-0.887,0-1.67-0.025-2.443,0.016c-0.191,0.011-0.467,0.213-0.534,0.389c-0.192,0.473-0.29,0.98-0.456,1.583
					C65.11,222.463,66.148,222.463,67.243,222.463z"/>
				<path style="fill:#FF5151;" d="M67.419,220.476c-0.063,0.736-0.114,1.302-0.176,1.987c-1.095,0-2.133,0-3.258,0
					c0.166-0.603,0.264-1.11,0.456-1.583c0.067-0.176,0.343-0.378,0.534-0.389C65.749,220.45,66.532,220.476,67.419,220.476z"/>
			</g>
			<g>
			</g>
		</g>
		<g id="XMLID_25_">
			<g>
				<path style="fill:#FF5151;" d="M65.642,3.333c0.011,0.487-0.384,0.643-0.747,0.669c-0.929,0.057-1.857,0.057-2.785,0.052
					c-0.327,0-0.659-0.057-0.98-0.13c-0.55-0.125-0.805-0.477-0.701-1.048c0.047-0.286,0.114-0.571,0.188-0.851
					c0.467-1.727,0.591-1.821,2.392-1.873c0.57,0.067,1.151,0.099,1.717,0.208c0.586,0.109,0.866,0.467,0.846,1.105
					C65.549,2.083,65.632,2.711,65.642,3.333z M64.521,3.095c0.063-0.685,0.114-1.25,0.176-1.987c-0.887,0-1.67-0.026-2.443,0.016
					c-0.191,0.01-0.467,0.212-0.534,0.389c-0.191,0.472-0.29,0.98-0.456,1.582C62.389,3.095,63.427,3.095,64.521,3.095z"/>
				<path style="fill:#FF5151;" d="M64.697,1.108c-0.062,0.737-0.113,1.302-0.176,1.987c-1.095,0-2.133,0-3.258,0
					c0.166-0.602,0.265-1.11,0.456-1.582c0.067-0.177,0.343-0.379,0.534-0.389C63.027,1.082,63.811,1.108,64.697,1.108z"/>
			</g>
			<g>
			</g>
		</g>
		<g id="XMLID_33_">
			<g>
				<path style="fill:#FF5151;" d="M-396.578,52.669c-0.093,0.908-0.15,1.572-0.238,2.225c-0.063,0.462-0.26,0.706-0.81,0.524
					c-0.322-0.109-0.695-0.052-1.048-0.057c-0.602-0.005-1.204,0.005-1.805-0.011c-1.308-0.026-1.613-0.467-1.095-1.655
					c0.291-0.659,0.628-1.302,1.001-1.919c0.291-0.488,0.762-0.695,1.333-0.529c0.674,0.203,1.37,0.353,1.997,0.654
					C-396.915,52.062-396.718,52.498-396.578,52.669z M-397.548,53.069c0.005-0.14-0.073-0.374-0.171-0.41
					c-0.581-0.202-1.178-0.384-1.779-0.514c-0.13-0.026-0.374,0.171-0.457,0.327c-0.337,0.591-0.628,1.204-1.001,1.951
					c1.193,0,2.221,0,3.279,0C-397.631,53.971-397.569,53.52-397.548,53.069z"/>
				<path style="fill:#FF5151;" d="M-397.719,52.659c0.099,0.037,0.176,0.27,0.171,0.41c-0.021,0.451-0.083,0.902-0.13,1.354
					c-1.058,0-2.085,0-3.279,0c0.374-0.747,0.664-1.359,1.001-1.951c0.083-0.156,0.327-0.353,0.457-0.327
					C-398.897,52.275-398.3,52.457-397.719,52.659z"/>
			</g>
			<g>
			</g>
		</g>
		<g id="XMLID_26_">
			<g>
				<path style="fill:#FF5151;" d="M-395.796,3.637c-0.094,0.908-0.151,1.572-0.239,2.226c-0.063,0.461-0.259,0.706-0.81,0.524
					c-0.321-0.109-0.695-0.052-1.048-0.057c-0.602-0.005-1.204,0.005-1.805-0.01c-1.307-0.026-1.613-0.467-1.095-1.655
					c0.291-0.659,0.628-1.302,1.001-1.919c0.291-0.488,0.763-0.695,1.333-0.529c0.674,0.202,1.37,0.353,1.998,0.654
					C-396.133,3.03-395.936,3.466-395.796,3.637z M-396.766,4.037c0.005-0.14-0.073-0.374-0.171-0.41
					c-0.581-0.203-1.178-0.384-1.779-0.514c-0.13-0.026-0.374,0.171-0.457,0.327c-0.337,0.591-0.627,1.204-1.001,1.951
					c1.193,0,2.22,0,3.278,0C-396.849,4.939-396.787,4.488-396.766,4.037z"/>
				<path style="fill:#FF5151;" d="M-396.938,3.627c0.099,0.036,0.176,0.27,0.171,0.41c-0.021,0.451-0.083,0.903-0.13,1.354
					c-1.058,0-2.085,0-3.278,0c0.374-0.747,0.664-1.359,1.001-1.951c0.083-0.155,0.327-0.353,0.457-0.327
					C-398.115,3.243-397.519,3.424-396.938,3.627z"/>
			</g>
			<g>
			</g>
		</g>
		<g id="XMLID_22_">
			<g>
				<path style="fill:#FF5151;" d="M-352.935,174.756c-0.093,0.908-0.15,1.572-0.239,2.226c-0.062,0.462-0.259,0.706-0.809,0.524
					c-0.322-0.109-0.695-0.052-1.048-0.058c-0.602-0.005-1.204,0.006-1.806-0.01c-1.307-0.026-1.613-0.467-1.094-1.655
					c0.29-0.658,0.627-1.302,1.001-1.919c0.291-0.488,0.763-0.695,1.333-0.529c0.675,0.202,1.37,0.353,1.998,0.653
					C-353.272,174.149-353.075,174.585-352.935,174.756z M-353.905,175.156c0.005-0.141-0.073-0.374-0.171-0.41
					c-0.581-0.202-1.177-0.384-1.779-0.514c-0.129-0.026-0.374,0.171-0.457,0.327c-0.337,0.591-0.627,1.203-1.001,1.95
					c1.193,0,2.22,0,3.278,0C-353.988,176.059-353.926,175.607-353.905,175.156z"/>
				<path style="fill:#FF5151;" d="M-354.077,174.746c0.099,0.036,0.177,0.27,0.171,0.41c-0.021,0.451-0.083,0.902-0.13,1.354
					c-1.058,0-2.085,0-3.278,0c0.374-0.747,0.664-1.359,1.001-1.95c0.083-0.156,0.327-0.354,0.457-0.327
					C-355.254,174.362-354.658,174.544-354.077,174.746z"/>
			</g>
			<g>
			</g>
		</g>
		<g id="XMLID_21_">
			<g>
				<path style="fill:#FF5151;" d="M45.554,145.385c-0.093,0.907-0.15,1.571-0.238,2.226c-0.063,0.461-0.26,0.705-0.81,0.523
					c-0.321-0.109-0.695-0.052-1.048-0.057c-0.602-0.006-1.203,0.005-1.805-0.011c-1.308-0.026-1.614-0.467-1.095-1.655
					c0.29-0.658,0.627-1.302,1.001-1.919c0.29-0.487,0.758-0.695,1.333-0.529c0.675,0.202,1.37,0.353,1.997,0.653
					C45.217,144.777,45.414,145.213,45.554,145.385z M44.584,145.784c0.005-0.141-0.078-0.374-0.171-0.41
					c-0.581-0.202-1.178-0.384-1.779-0.514c-0.13-0.026-0.374,0.171-0.462,0.327c-0.332,0.591-0.623,1.203-0.996,1.95
					c1.193,0,2.22,0,3.278,0C44.501,146.687,44.563,146.235,44.584,145.784z"/>
				<path style="fill:#FF5151;" d="M44.413,145.374c0.093,0.036,0.176,0.27,0.171,0.41c-0.021,0.451-0.083,0.902-0.13,1.354
					c-1.059,0-2.085,0-3.278,0c0.373-0.747,0.664-1.359,0.996-1.95c0.088-0.156,0.332-0.354,0.462-0.327
					C43.235,144.99,43.832,145.172,44.413,145.374z"/>
			</g>
			<g>
			</g>
		</g>
		<g id="XMLID_31_">
			<g>
				<path style="fill:#FF5151;" d="M35.641,12.957c-0.094,0.908-0.15,1.572-0.238,2.226c-0.063,0.462-0.26,0.706-0.81,0.524
					c-0.321-0.109-0.695-0.052-1.048-0.057c-0.602-0.005-1.203,0.005-1.806-0.01c-1.307-0.026-1.613-0.467-1.095-1.655
					c0.291-0.659,0.628-1.302,1.002-1.919c0.29-0.488,0.757-0.695,1.333-0.529c0.675,0.203,1.369,0.353,1.997,0.654
					C35.304,12.35,35.501,12.786,35.641,12.957z M34.671,13.356c0.005-0.14-0.078-0.373-0.172-0.41
					c-0.581-0.202-1.177-0.384-1.779-0.514c-0.129-0.026-0.373,0.171-0.461,0.327c-0.332,0.591-0.623,1.204-0.996,1.95
					c1.192,0,2.22,0,3.278,0C34.588,14.259,34.649,13.808,34.671,13.356z"/>
				<path style="fill:#FF5151;" d="M34.499,12.946c0.094,0.037,0.177,0.27,0.172,0.41c-0.021,0.452-0.083,0.903-0.13,1.354
					c-1.059,0-2.086,0-3.278,0c0.373-0.747,0.664-1.359,0.996-1.95c0.088-0.156,0.332-0.353,0.461-0.327
					C33.322,12.563,33.918,12.744,34.499,12.946z"/>
			</g>
			<g>
			</g>
		</g>
		<g id="XMLID_23_">
			<g>
				<path style="fill:#FF5151;" d="M-388.137,153.402c-0.093,0.908-0.15,1.572-0.239,2.226c-0.062,0.462-0.259,0.705-0.809,0.524
					c-0.322-0.109-0.695-0.053-1.048-0.058c-0.602-0.005-1.204,0.005-1.805-0.01c-1.308-0.026-1.614-0.468-1.095-1.655
					c0.291-0.659,0.627-1.302,1.001-1.92c0.291-0.487,0.763-0.694,1.333-0.528c0.674,0.202,1.37,0.353,1.997,0.653
					C-388.474,152.796-388.277,153.231-388.137,153.402z M-389.107,153.802c0.005-0.14-0.072-0.373-0.171-0.41
					c-0.581-0.202-1.178-0.384-1.779-0.513c-0.13-0.026-0.374,0.171-0.457,0.326c-0.337,0.592-0.628,1.204-1.001,1.951
					c1.193,0,2.22,0,3.279,0C-389.19,154.704-389.128,154.253-389.107,153.802z"/>
				<path style="fill:#FF5151;" d="M-389.278,153.392c0.099,0.037,0.176,0.271,0.171,0.41c-0.021,0.451-0.083,0.902-0.129,1.354
					c-1.059,0-2.085,0-3.279,0c0.374-0.747,0.664-1.359,1.001-1.951c0.083-0.155,0.327-0.353,0.457-0.326
					C-390.456,153.008-389.859,153.189-389.278,153.392z"/>
			</g>
			<g>
			</g>
		</g>
		<g id="XMLID_28_">
			<g>
				<path style="fill:#FF5151;" d="M-356.382,212.118c-0.522,1.022-0.885,1.777-1.292,2.501c-0.283,0.513-0.625,0.709-1.187,0.246
					c-0.324-0.266-0.792-0.377-1.205-0.537c-0.701-0.286-1.411-0.548-2.109-0.84c-1.521-0.624-1.673-1.278-0.525-2.435
					c0.634-0.643,1.322-1.243,2.041-1.797c0.562-0.44,1.21-0.469,1.807-0.006c0.695,0.535,1.447,1.03,2.04,1.666
					C-356.501,211.254-356.468,211.854-356.382,212.118z M-357.695,212.148c0.07-0.162,0.079-0.474-0.021-0.561
					c-0.589-0.502-1.2-0.983-1.852-1.411c-0.134-0.087-0.516,0.03-0.684,0.175c-0.658,0.543-1.279,1.134-2.061,1.832
					c1.405,0.544,2.603,1.009,3.843,1.49C-358.208,213.166-357.924,212.668-357.695,212.148z"/>
				<path style="fill:#FF5151;" d="M-357.715,211.588c0.099,0.087,0.09,0.398,0.021,0.561c-0.229,0.52-0.514,1.018-0.773,1.525
					c-1.241-0.481-2.438-0.946-3.843-1.49c0.781-0.698,1.402-1.289,2.061-1.832c0.168-0.145,0.549-0.262,0.684-0.175
					C-358.915,210.604-358.304,211.086-357.715,211.588z"/>
			</g>
			<g>
			</g>
		</g>
		<g id="XMLID_27_">
			<g>
				<path style="fill:#FF5151;" d="M-393.179,225.326c-0.093,0.908-0.15,1.572-0.239,2.226c-0.062,0.462-0.259,0.705-0.809,0.523
					c-0.322-0.108-0.695-0.052-1.048-0.057c-0.602-0.005-1.204,0.005-1.805-0.011c-1.308-0.025-1.614-0.467-1.095-1.654
					c0.291-0.659,0.627-1.303,1.001-1.92c0.291-0.487,0.763-0.695,1.333-0.529c0.674,0.203,1.37,0.354,1.997,0.654
					C-393.516,224.719-393.319,225.155-393.179,225.326z M-394.149,225.726c0.005-0.14-0.072-0.373-0.171-0.41
					c-0.581-0.202-1.178-0.384-1.779-0.514c-0.13-0.025-0.374,0.172-0.457,0.327c-0.337,0.592-0.628,1.204-1.001,1.95
					c1.193,0,2.22,0,3.279,0C-394.232,226.628-394.17,226.177-394.149,225.726z"/>
				<path style="fill:#FF5151;" d="M-394.32,225.315c0.099,0.037,0.176,0.271,0.171,0.41c-0.021,0.451-0.083,0.902-0.129,1.354
					c-1.059,0-2.085,0-3.279,0c0.374-0.746,0.664-1.358,1.001-1.95c0.083-0.155,0.327-0.353,0.457-0.327
					C-395.498,224.932-394.901,225.113-394.32,225.315z"/>
			</g>
			<g>
			</g>
		</g>
		<g id="XMLID_8_">
			<g>
				<path style="fill:#FF5151;" d="M-375.474,57.229c-0.083,0.259-0.125,0.42-0.187,0.57c-0.27,0.648-0.534,1.297-0.825,1.94
					c-0.27,0.597-0.405,0.591-1.012,0.316c-0.612-0.28-1.281-0.446-1.919-0.685c-0.882-0.332-1.022-0.716-0.545-1.509
					c0.395-0.654,0.81-1.297,1.225-1.94c0.275-0.431,0.653-0.565,1.121-0.321c0.544,0.28,1.105,0.555,1.608,0.902
					C-375.759,56.674-375.629,57.006-375.474,57.229z M-376.849,58.292c0.482-1.131,0.431-1.245-0.763-1.717
					c-0.021-0.01-0.042-0.036-0.057-0.031c-0.166,0.052-0.415,0.052-0.493,0.171c-0.389,0.55-0.726,1.131-1.125,1.764
					c0.716,0.239,1.354,0.457,2.049,0.69C-377.082,58.821-376.963,58.557-376.849,58.292z"/>
				<path style="fill:#FF5151;" d="M-377.611,56.575c1.193,0.472,1.245,0.586,0.763,1.717c-0.114,0.264-0.233,0.529-0.389,0.876
					c-0.695-0.233-1.333-0.451-2.049-0.69c0.399-0.633,0.736-1.214,1.125-1.764c0.078-0.12,0.327-0.12,0.493-0.171
					C-377.653,56.539-377.632,56.565-377.611,56.575z"/>
			</g>
			<g>
			</g>
		</g>
		<g id="XMLID_32_">
			<g>
				<path style="fill:#FF5151;" d="M-367.627,5.819c-0.083,0.259-0.125,0.42-0.187,0.57c-0.27,0.648-0.535,1.297-0.825,1.94
					c-0.27,0.597-0.41,0.591-1.011,0.316c-0.612-0.28-1.281-0.446-1.919-0.685c-0.882-0.332-1.022-0.716-0.545-1.51
					c0.395-0.654,0.81-1.297,1.225-1.94c0.275-0.431,0.653-0.565,1.12-0.321c0.545,0.28,1.105,0.555,1.608,0.902
					C-367.912,5.264-367.782,5.596-367.627,5.819z M-369.001,6.887c0.482-1.136,0.431-1.25-0.763-1.722
					c-0.021-0.01-0.042-0.036-0.052-0.031c-0.171,0.052-0.42,0.052-0.498,0.171c-0.389,0.55-0.727,1.131-1.126,1.764
					c0.716,0.239,1.354,0.457,2.049,0.695C-369.235,7.411-369.116,7.147-369.001,6.887z"/>
				<path style="fill:#FF5151;" d="M-369.764,5.165c1.193,0.472,1.245,0.586,0.763,1.722c-0.114,0.26-0.233,0.524-0.389,0.877
					c-0.695-0.239-1.333-0.457-2.049-0.695c0.399-0.633,0.737-1.214,1.126-1.764c0.078-0.12,0.327-0.12,0.498-0.171
					C-369.806,5.129-369.785,5.155-369.764,5.165z"/>
			</g>
			<g>
			</g>
		</g>
	</g>
</g>
</svg>
