<?xml version="1.0" encoding="iso-8859-1"?>
<!-- Generator: Adobe Illustrator 16.0.0, SVG Export Plug-In . SVG Version: 6.00 Build 0)  -->
<!DOCTYPE svg PUBLIC "-//W3C//DTD SVG 1.1//EN" "http://www.w3.org/Graphics/SVG/1.1/DTD/svg11.dtd">
<svg version="1.1" id="Layer_1" xmlns="http://www.w3.org/2000/svg" xmlns:xlink="http://www.w3.org/1999/xlink" x="0px" y="0px"
	 width="30px" height="30px" viewBox="0 0 30 30" style="enable-background:new 0 0 30 30;" xml:space="preserve">
<g>
	<path style="fill-rule:evenodd;clip-rule:evenodd;fill:#757575;" d="M15.613,15.053c-0.499,0.47-0.988,0.914-1.457,1.379
		c-0.471,0.466-0.912,0.961-1.381,1.428c-0.656,0.653-1.332,1.287-1.99,1.938c-0.83,0.82-1.652,1.65-2.478,2.476
		c-0.84,0.839-1.679,1.679-2.519,2.518c-1.247,1.248-2.495,2.494-3.742,3.741c-0.255,0.255-0.258,0.255-0.412-0.058
		c-0.249-0.505-0.387-1.036-0.387-1.604C1.25,18.924,1.25,10.976,1.25,3.029c0-0.579,0.189-1.106,0.441-1.618
		c0.063-0.126,0.132-0.161,0.24-0.057C1.988,1.409,2.043,1.464,2.099,1.52c2.53,2.53,5.06,5.06,7.589,7.589
		c0.75,0.75,1.499,1.5,2.249,2.249c0.77,0.77,1.542,1.539,2.31,2.311C14.691,14.114,15.131,14.563,15.613,15.053z"/>
	<path style="fill-rule:evenodd;clip-rule:evenodd;fill:#757575;" d="M21.459,9.241c-1.586,1.518-3.131,2.997-4.597,4.401
		C12.466,9.255,8.008,4.808,3.566,0.376c0.697-0.115,1.411,0.027,2.073,0.357C6.712,1.27,7.765,1.847,8.825,2.41
		c0.881,0.468,1.763,0.936,2.641,1.409c0.533,0.287,1.056,0.591,1.588,0.878c0.701,0.377,1.41,0.74,2.11,1.118
		c0.719,0.387,1.43,0.789,2.147,1.177c0.726,0.393,1.456,0.775,2.182,1.167C20.125,8.501,20.752,8.852,21.459,9.241z"/>
	<path style="fill-rule:evenodd;clip-rule:evenodd;fill:#757575;" d="M3.548,29.625c4.445-4.447,8.892-8.896,13.294-13.3
		c1.483,1.433,3.03,2.927,4.604,4.446c-0.734,0.4-1.407,0.767-2.078,1.134c-1.71,0.936-3.416,1.876-5.127,2.806
		c-0.741,0.403-1.499,0.777-2.239,1.181c-0.801,0.437-1.587,0.899-2.387,1.336c-0.546,0.299-1.106,0.574-1.661,0.858
		c-0.769,0.396-1.529,0.807-2.308,1.181C4.978,29.587,4.268,29.739,3.548,29.625z"/>
	<path style="fill-rule:evenodd;clip-rule:evenodd;fill:#757575;" d="M22.966,10.041c0.925,0.499,1.81,1.002,2.718,1.46
		c0.841,0.424,1.597,0.951,2.265,1.613c0.762,0.754,0.951,1.67,0.696,2.662c-0.166,0.641-0.631,1.132-1.144,1.536
		c-0.465,0.367-0.964,0.692-1.465,1.01c-0.298,0.188-0.633,0.318-0.944,0.485c-0.701,0.378-1.398,0.763-2.125,1.16
		c-0.356-0.384-0.703-0.777-1.071-1.15c-0.354-0.359-0.739-0.689-1.096-1.047c-0.46-0.462-0.898-0.946-1.358-1.408
		c-0.384-0.386-0.772-0.769-1.187-1.122c-0.228-0.194-0.151-0.322,0.011-0.478c0.52-0.499,1.044-0.993,1.555-1.5
		c0.379-0.376,0.735-0.775,1.111-1.154c0.26-0.261,0.546-0.497,0.803-0.76C22.155,10.916,22.562,10.472,22.966,10.041z"/>
</g>
</svg>
