<?xml version="1.0"?>
<svg xmlns="http://www.w3.org/2000/svg" height="512px" viewBox="-104 0 496 496" width="512px" class=""><g><path d="m81.503906 14.023438 14.785156-6.125 24.492188 59.132812-14.785156 6.121094zm0 0" data-original="#000000" class="active-path" style="fill:#3F3A34" data-old_color="#000000"/><path d="m7.902344 96.285156 6.121094-14.785156 59.128906 24.496094-6.121094 14.78125zm0 0" data-original="#000000" class="active-path" style="fill:#3F3A34" data-old_color="#000000"/><path d="m7.894531 191.710938 59.125-24.5 6.125 14.78125-59.125 24.5zm0 0" data-original="#000000" class="active-path" style="fill:#3F3A34" data-old_color="#000000"/><path d="m214.859375 181.988281 6.121094-14.78125 59.132812 24.492188-6.125 14.785156zm0 0" data-original="#000000" class="active-path" style="fill:#3F3A34" data-old_color="#000000"/><path d="m214.847656 106.003906 59.121094-24.5 6.125 14.78125-59.121094 24.5zm0 0" data-original="#000000" class="active-path" style="fill:#3F3A34" data-old_color="#000000"/><path d="m167.222656 67.03125 24.496094-59.121094 14.78125 6.125-24.5 59.121094zm0 0" data-original="#000000" class="active-path" style="fill:#3F3A34" data-old_color="#000000"/><path d="m136 0h16v16h-16zm0 0" data-original="#000000" class="active-path" style="fill:#3F3A34" data-old_color="#000000"/><path d="m136 32h16v32h-16zm0 0" data-original="#000000" class="active-path" style="fill:#3F3A34" data-old_color="#000000"/><path d="m36.519531 47.824219 11.316407-11.3125 11.3125 11.316406-11.316407 11.3125zm0 0" data-original="#000000" class="active-path" style="fill:#3F3A34" data-old_color="#000000"/><path d="m59.148438 70.460938 11.3125-11.3125 22.628906 22.625-11.3125 11.316406zm0 0" data-original="#000000" class="active-path" style="fill:#3F3A34" data-old_color="#000000"/><path d="m0 136h16v16h-16zm0 0" data-original="#000000" class="active-path" style="fill:#3F3A34" data-old_color="#000000"/><path d="m32 136h32v16h-32zm0 0" data-original="#000000" class="active-path" style="fill:#3F3A34" data-old_color="#000000"/><path d="m272 136h16v16h-16zm0 0" data-original="#000000" class="active-path" style="fill:#3F3A34" data-old_color="#000000"/><path d="m224 136h32v16h-32zm0 0" data-original="#000000" class="active-path" style="fill:#3F3A34" data-old_color="#000000"/><path d="m228.84375 47.835938 11.3125-11.3125 11.3125 11.3125-11.3125 11.316406zm0 0" data-original="#000000" class="active-path" style="fill:#3F3A34" data-old_color="#000000"/><path d="m194.914062 81.773438 22.628907-22.628907 11.3125 11.316407-22.625 22.625zm0 0" data-original="#000000" class="active-path" style="fill:#3F3A34" data-old_color="#000000"/><path d="m144 232c-48.519531 0-88-39.480469-88-88s39.480469-88 88-88 88 39.480469 88 88-39.480469 88-88 88zm0 0" fill="#f0bc5e" data-original="#F0BC5E" class="" style="fill:#F0BC5E"/><path d="m252.128906 330.054688.527344-.320313c21.800781-13.085937 35.34375-37 35.34375-62.421875 0-10.648438-8.664062-19.3125-19.3125-19.3125-5.085938 0-10.0625 2.0625-13.65625 5.65625l-7.03125 7.03125c-4.28125 4.265625-11.71875 4.265625-16 0l-4.6875-4.6875c-10.3125-10.320312-28.3125-10.320312-38.625 0l-4.6875 4.6875c-4.28125 4.265625-11.71875 4.265625-16 0l-4.6875-4.6875c-10.3125-10.320312-28.3125-10.320312-38.625 0l-4.6875 4.6875c-4.28125 4.265625-11.71875 4.265625-16 0l-4.6875-4.6875c-10.3125-10.320312-28.3125-10.320312-38.625 0l-4.6875 4.6875c-4.28125 4.265625-11.71875 4.265625-16 0l-7.03125-7.03125c-3.59375-3.59375-8.570312-5.65625-13.65625-5.65625-10.648438 0-19.3125 8.664062-19.3125 19.3125 0 25.421875 13.542969 49.335938 35.34375 62.421875l.535156.320313-14.949218 17.953124c-13.496094 16.175782-20.929688 36.6875-20.929688 57.769532 0 49.742187 40.480469 90.222656 90.222656 90.222656h107.546875c49.75 0 90.230469-40.480469 90.230469-90.222656 0-21.082032-7.433594-41.585938-20.910156-57.761719zm-236.128906-62.742188c0-2.703125 3.761719-4.25 5.65625-2.34375l7.03125 7.03125c10.3125 10.3125 28.3125 10.3125 38.625 0l4.6875-4.6875c4.28125-4.265625 11.71875-4.265625 16 0l4.6875 4.6875c10.3125 10.3125 28.3125 10.3125 38.625 0l4.6875-4.6875c4.28125-4.265625 11.71875-4.265625 16 0l4.6875 4.6875c10.3125 10.3125 28.3125 10.3125 38.625 0l4.6875-4.6875c4.28125-4.265625 11.71875-4.265625 16 0l4.6875 4.6875c10.3125 10.3125 28.3125 10.3125 38.625 0l7.03125-7.03125c1.902344-1.90625 5.65625-.359375 5.65625 2.34375 0 19.832031-10.566406 38.496094-27.574219 48.703125l-6.640625 3.984375h-30.441406c-2.238281-9.160156-10.457031-16-20.289062-16-3.230469 0-6.480469.769531-9.367188 2.207031l-9.6875 4.847657-9.6875-4.839844c-2.886719-1.445313-6.136719-2.214844-9.367188-2.214844-9.832031 0-18.058593 6.839844-20.289062 16h-78.441406l-6.640625-3.984375c-17.007813-10.207031-27.574219-28.863281-27.574219-48.703125zm135.160156 68.167969c-3.097656 1.582031-7.160156-.9375-7.160156-4.425781v-6.109376c0-2.730468 2.214844-4.945312 4.945312-4.945312.765626 0 1.527344.175781 2.207032.519531l14.960937 7.480469zm18.726563-7.480469 14.953125-7.480469c3.113281-1.558593 7.160156.9375 7.160156 4.425781v6.109376c0 3.496093-4.0625 5.984374-7.160156 4.425781zm27.890625 152h-107.554688c-40.925781 0-74.222656-33.296875-74.222656-74.222656 0-17.335938 6.113281-34.210938 17.207031-47.519532l18.546875-22.257812h76.902344c2.238281 9.160156 10.457031 16 20.289062 16 1.238282 0 2.460938-.207031 3.679688-.433594l-15.976562 37.28125 14.703124 6.296875 15.320313-35.746093 17.664063 58.890624 15.328124-4.59375-18.832031-62.773437c2.023438.636719 4.105469 1.078125 6.222657 1.078125 9.832031 0 18.058593-6.839844 20.289062-16h28.902344l18.546875 22.257812c11.09375 13.300782 17.199219 30.175782 17.199219 47.511719.007812 40.933594-33.289063 74.230469-74.214844 74.230469zm0 0" data-original="#000000" class="active-path" style="fill:#3F3A34" data-old_color="#000000"/><path d="m48 405.777344c0-5.074219.902344-10.066406 2.695312-14.832032l-14.984374-5.609374c-2.464844 6.558593-3.710938 13.449218-3.710938 20.441406 0 32.101562 26.121094 58.222656 58.222656 58.222656v-16c-23.277344 0-42.222656-18.945312-42.222656-42.222656zm0 0" data-original="#000000" class="active-path" style="fill:#3F3A34" data-old_color="#000000"/><path d="m45.492188 368.507812 11.335937-13.621093 12.296875 10.234375-11.335938 13.621094zm0 0" data-original="#000000" class="active-path" style="fill:#3F3A34" data-old_color="#000000"/><path d="m152 136h-16c-4.414062 0-8-3.59375-8-8s3.585938-8 8-8h16c4.414062 0 8 3.59375 8 8h16c0-13.230469-10.769531-24-24-24v-16h-16v16c-13.230469 0-24 10.769531-24 24s10.769531 24 24 24h16c4.414062 0 8 3.59375 8 8s-3.585938 8-8 8h-16c-4.414062 0-8-3.59375-8-8h-16c0 13.230469 10.769531 24 24 24v16h16v-16c13.230469 0 24-10.769531 24-24s-10.769531-24-24-24zm0 0" data-original="#000000" class="active-path" style="fill:#3F3A34" data-old_color="#000000"/></g> </svg>
