<?xml version="1.0"?>
<svg xmlns="http://www.w3.org/2000/svg" viewBox="0 0 64 64" width="60" height="60"><path d="m11 27h48v34h-48z" fill="#a3740c"/><path d="m42 54v-19h-4v9a2 2 0 0 1 -4 0v-3a2 2 0 0 1 -4 0v-6h-5v19a2 2 0 0 0 0 4h17a2 2 0 0 0 0-4z" fill="#f4c734"/><g fill="#a3740c"><path d="m3 9a4 4 0 0 1 4 4v10a4 4 0 0 1 -4 4 0 0 0 0 1 0 0v-18a0 0 0 0 1 0 0z"/><path d="m7 17h54v4h-54"/><path d="m20 21v8h-4v-8"/><path d="m55 21v8h-4v-8"/></g><rect fill="#e0b730" height="8" rx="1" width="2" x="27" y="45"/><rect fill="#e0b730" height="5" rx="1" width="2" x="36" y="48"/><path d="m30 40.893a2.075 2.075 0 0 0 1.664 2.08 2 2 0 0 0 2.336-1.973v2.893a2.075 2.075 0 0 0 1.664 2.08 2 2 0 0 0 2.336-1.973v-9h1v-.312a4.63 4.63 0 0 0 -3.928-4.652 4.459 4.459 0 0 0 -3.987 1.564 3.982 3.982 0 0 0 -6.085 3.4h4a1 1 0 0 1 1 1z" fill="#f9f2cc"/><path d="m61 16h-9.74a20.272 20.272 0 0 0 4.615-2.825c2.457-2.029 3.538-4.515 2.966-6.819a5.786 5.786 0 0 0 -5.541-4.356 6.306 6.306 0 0 0 -6.3 6.3v.7h2v-.7a4.3 4.3 0 0 1 4.3-4.3 3.761 3.761 0 0 1 3.6 2.839c.539 2.168-1.427 4.075-2.3 4.8a20.3 20.3 0 0 1 -12.4 4.361 18.684 18.684 0 0 1 -13.3-5.508l-5.5-5.507a10.186 10.186 0 0 0 -16.992 4.377 4.972 4.972 0 0 0 -3.408-1.362 1 1 0 0 0 -1 1v18a1 1 0 0 0 1 1 5.006 5.006 0 0 0 5-5v-1h7v4h-4a1 1 0 0 0 -1 1v34a1 1 0 0 0 1 1h48a1 1 0 0 0 1-1v-34a1 1 0 0 0 -1-1h-3v-4h5a1 1 0 0 0 1-1v-4a1 1 0 0 0 -1-1zm-53-3.808a8.193 8.193 0 0 1 13.985-5.792l5.507 5.507a20.769 20.769 0 0 0 5.844 4.093h-25.336zm-2 10.808a3.006 3.006 0 0 1 -2 2.829v-15.658a3.006 3.006 0 0 1 2 2.829zm13-1v6h-2v-6zm31 4h-29v-4h29zm8 2v6h-6v2h6v18h-6v2h6v4h-46v-20h9v-2h-9v-3h5v-2h-5v-5h3v1a1 1 0 0 0 1 1h4a1 1 0 0 0 1-1v-1h29v1a1 1 0 0 0 1 1h4a1 1 0 0 0 1-1v-1zm-4 0h-2v-6h2zm6-8h-52v-2h52z"/><path d="m28 46h2v8h-2z"/><path d="m37 49h2v5h-2z"/><path d="m43 36.08v-1.08a1 1 0 0 0 -1-1h-2.025a5.476 5.476 0 0 0 -9.089-3.621 4.935 4.935 0 0 0 -1.886-.379 5.006 5.006 0 0 0 -5 5v18.171a3 3 0 0 0 1 5.829h17a3 3 0 0 0 1-5.829v-1.251a7 7 0 0 0 6-6.92v-2a7 7 0 0 0 -6-6.92zm-14-4.08a2.945 2.945 0 0 1 1.562.453 1 1 0 0 0 1.285-.205 3.469 3.469 0 0 1 6.1 1.762 1 1 0 0 0 -.947.99v9a1 1 0 0 1 -2 0v-3a1 1 0 0 0 -2 0 1 1 0 0 1 -2 0v-6a1 1 0 0 0 -1-1h-3.816a3 3 0 0 1 2.816-2zm13 25h-17a1 1 0 0 1 0-2 1 1 0 0 0 1-1v-18h3v5a3 3 0 0 0 4 2.829v.171a3 3 0 0 0 6 0v-8h2v18a1 1 0 0 0 1 1 1 1 0 0 1 0 2zm5-12a5.009 5.009 0 0 1 -4 4.9v-11.8a5.009 5.009 0 0 1 4 4.9z"/></svg>
