<?xml version="1.0" encoding="iso-8859-1"?>
<!-- Generator: Adobe Illustrator 19.0.0, SVG Export Plug-In . SVG Version: 6.00 Build 0)  -->
<svg version="1.1" id="Capa_1" xmlns="http://www.w3.org/2000/svg" xmlns:xlink="http://www.w3.org/1999/xlink" x="0px" y="0px"
	 viewBox="0 0 496 496" style="enable-background:new 0 0 496 496;" xml:space="preserve">
<polygon style="fill:#FFCB57;" points="440,440 440,392 424,392 424,344 264,344 264,392 280,392 280,440 216,440 216,392 232,392 
	232,344 72,344 72,392 56,392 56,440 8,440 8,488 168,488 168,440 200,440 200,488 488,488 488,440 "/>
<g>
	<path style="fill:#3F3A34;" d="M448,432v-48h-16v-48H256v64h16v32h-48v-32h16v-64H64v48H48v48H0v64h176v-48h16v48h304v-64H448z
		 M448,480h-16v-32h16V480z M272,448h16v32h-16V448z M256,480h-16v-32h16V480z M368,400v32h-16v-32H368z M384,432v-32h16v32H384z
		 M368,384v-32h16v32H368z M352,384h-16v-32h16V384z M320,384h-16v-32h16V384z M336,400v32h-16v-32H336z M304,448h16v32h-16V448z
		 M336,448h16v32h-16V448z M368,448h16v32h-16V448z M400,448h16v32h-16V448z M432,432h-16v-32h16V432z M416,384h-16v-32h16V384z
		 M272,352h16v32h-16V352z M288,400h16v32h-16V400z M208,432h-16v-32h16V432z M144,400v32h-16v-32H144z M176,384v-32h16v32H176z
		 M160,384h-16v-32h16V384z M128,384h-16v-32h16V384z M112,400v32H96v-32H112z M80,448h16v32H80V448z M64,480H48v-32h16V480z
		 M112,448h16v32h-16V448z M160,400h16v32h-16V400z M224,384h-16v-32h16V384z M80,352h16v32H80V352z M64,400h16v32H64V400z M16,448
		h16v32H16V448z M160,480h-16v-32h16V480z M208,448h16v32h-16V448z M480,480h-16v-32h16V480z"/>
	<path style="fill:#3F3A34;" d="M176,288h8h8h112h8h8v32h16v-48h-16.08c-0.848-43.968-8.752-65.688-16.4-86.736
		c-7.648-21.024-14.88-40.92-15.48-83.512l31.552-10.512C329.408,87.96,336,78.816,336,68.472V0h-48v32h-16V0h-48v32h-16V0h-48
		v68.472c0,10.344,6.592,19.496,16.408,22.768l31.552,10.512c-0.6,42.592-7.832,62.496-15.48,83.512
		c-7.656,21.048-15.552,42.768-16.4,86.736H160v48h16V288z M192.08,272c0.112-5.728,0.352-11.048,0.696-16h110.448
		c0.344,4.952,0.576,10.272,0.696,16H192.08z M181.472,76.064C178.2,74.968,176,71.912,176,68.472V16h16v32h48V16h16v32h48V16h16
		v52.472c0,3.448-2.2,6.496-5.472,7.592L278.704,88h-61.408L181.472,76.064z M223.912,104h48.168
		c0.856,43.944,8.744,65.696,16.392,86.736c5.232,14.384,10.256,28.296,13.112,49.264H194.408
		c2.856-20.968,7.88-34.88,13.112-49.264C215.168,169.696,223.056,147.944,223.912,104z"/>
</g>
<g>
	<rect x="384" y="16" style="fill:#E56565;" width="16" height="16"/>
	<rect x="384" y="48" style="fill:#E56565;" width="16" height="16"/>
	<rect x="400" y="32" style="fill:#E56565;" width="16" height="16"/>
	<rect x="368" y="32" style="fill:#E56565;" width="16" height="16"/>
	<rect x="88" style="fill:#E56565;" width="16" height="16"/>
	<rect x="88" y="32" style="fill:#E56565;" width="16" height="16"/>
	<rect x="104" y="16" style="fill:#E56565;" width="16" height="16"/>
	<rect x="72" y="16" style="fill:#E56565;" width="16" height="16"/>
	<rect x="344" y="136" style="fill:#E56565;" width="16" height="16"/>
	<rect x="344" y="168" style="fill:#E56565;" width="16" height="16"/>
	<rect x="360" y="152" style="fill:#E56565;" width="16" height="16"/>
	<rect x="328" y="152" style="fill:#E56565;" width="16" height="16"/>
	<rect x="136" y="104" style="fill:#E56565;" width="16" height="16"/>
	<rect x="136" y="136" style="fill:#E56565;" width="16" height="16"/>
	<rect x="152" y="120" style="fill:#E56565;" width="16" height="16"/>
	<rect x="120" y="120" style="fill:#E56565;" width="16" height="16"/>
</g>
<g>
</g>
<g>
</g>
<g>
</g>
<g>
</g>
<g>
</g>
<g>
</g>
<g>
</g>
<g>
</g>
<g>
</g>
<g>
</g>
<g>
</g>
<g>
</g>
<g>
</g>
<g>
</g>
<g>
</g>
</svg>
