<svg height="25px" viewBox="-46 0 512 512" width="25px" xmlns="http://www.w3.org/2000/svg">
    <path d="m389.179688 302.683594c0 90.183594-73.109376 163.292968-163.292969 163.292968-90.1875 0-163.296875-73.109374-163.296875-163.292968 0-90.1875 73.109375-163.296875 163.296875-163.296875 90.183593 0 163.292969 73.109375 163.292969 163.296875zm0 0" fill="#fff5f5"/>
    <path d="m327 174.453125c21.957031 27.808594 35.066406 62.929687 35.066406 101.113281 0 90.1875-73.109375 163.296875-163.296875 163.296875-38.183593 0-73.304687-13.109375-101.113281-35.066406 29.90625 37.871094 76.226562 62.179687 128.230469 62.179687 90.183593 0 163.292969-73.109374 163.292969-163.292968 0-52.003906-24.308594-98.324219-62.179688-128.230469zm0 0" fill="#efe2dd"/>
    <path d="m302.230469 223.882812c-19.558594-12.210937-31.0625-33.996093-31.0625-57.054687v-90.671875c0-1.285156.625-2.480469 1.660156-3.25 5.90625-4.394531 9.390625-11.792969 8.308594-19.742188l-5.242188-38.414062c-.558593-4.117188-4.078125-7.191406-8.234375-7.191406h-84.722656c-4.25 0-7.816406 3.210937-8.265625 7.4375l-4.113281 38.792968c-.820313 7.726563 2.640625 14.835938 8.378906 19.109376 1.035156.769531 1.664062 1.964843 1.664062 3.253906v90.675781c0 23.058594-11.503906 44.84375-31.0625 57.054687-18.167968 11.339844-30.257812 31.507813-30.257812 54.503907v209.355469c0 9.222656 7.476562 16.699218 16.695312 16.699218h179.816407c9.21875 0 16.695312-7.476562 16.695312-16.699218v-209.355469c0-22.996094-12.089843-43.164063-30.257812-54.503907zm0 0" fill="#b9abab"/>
    <path d="m302.230469 223.882812c-19.558594-12.210937-31.0625-33.996093-31.0625-57.054687v-90.671875c0-1.285156.625-2.480469 1.660156-3.25 5.90625-4.394531 9.390625-11.792969 8.308594-19.742188l-5.242188-38.414062c-.558593-4.117188-4.078125-7.191406-8.234375-7.191406h-28.894531c4.15625 0 7.671875 3.070312 8.234375 7.191406l5.238281 38.414062c1.085938 7.949219-2.398437 15.347657-8.308593 19.742188-1.03125.769531-1.65625 1.964844-1.65625 3.25v90.675781c0 23.054688 11.503906 44.839844 31.0625 57.050781 18.167968 11.339844 30.257812 31.507813 30.257812 54.507813v209.351563c0 9.222656-7.476562 16.699218-16.699219 16.699218h28.898438c9.21875 0 16.695312-7.476562 16.695312-16.699218v-209.355469c0-22.996094-12.089843-43.164063-30.257812-54.503907zm0 0" fill="#9e9797"/>
    <path d="m225.886719 139.386719c-15.714844 0-30.90625 2.222656-45.285157 6.367187v21.074219c0 23.058594-11.503906 44.84375-31.0625 57.054687-18.167968 11.339844-30.257812 31.507813-30.257812 54.503907v147.992187c28.605469 24.675782 65.859375 39.597656 106.605469 39.597656 40.742187 0 77.996093-14.921874 106.601562-39.597656v-147.992187c0-22.996094-12.089843-43.164063-30.257812-54.503907-19.558594-12.210937-31.0625-33.996093-31.0625-57.054687v-21.074219c-14.378907-4.144531-29.570313-6.367187-45.28125-6.367187zm0 0" fill="#e1d3ce"/>
    <path d="m175.605469 322.804688h-28.203125c-5.84375 0-8.542969-4.15625-8.542969-7.753907 0-2.921875.675781-4.71875 2.136719-6.628906l34.609375-44.386719c1.6875-2.25 4.160156-3.148437 7.304687-3.148437 6.070313 0 8.429688 3.257812 8.429688 8.089843v41.015626h5.617187c3.820313 0 6.292969 2.699218 6.292969 6.40625 0 3.710937-2.472656 6.40625-6.292969 6.40625h-5.617187v11.574218c0 4.71875-2.023438 7.867188-7.867188 7.867188s-7.867187-3.148438-7.867187-7.867188zm0-41.914063h-.222657l-21.6875 29.101563h21.910157zm0 0" fill="#766e6e"/>
    <path d="m210.054688 281.339844c0-11.574219 5.394531-20.453125 19.441406-20.453125s19.328125 8.878906 19.328125 20.453125v5.394531c0 10.449219-6.066407 19.777344-19.328125 19.777344-13.371094 0-19.441406-9.328125-19.441406-19.777344zm19.441406-11.015625c-5.394532 0-5.957032 5.957031-5.957032 13.375 0 7.414062.5625 13.371093 5.957032 13.371093 5.28125 0 5.84375-5.957031 5.84375-13.371093 0-7.417969-.5625-13.375-5.84375-13.375zm42.589844-5.167969c3.371093-6.851562 5.054687-7.527344 8.089843-7.527344 2.921875 0 5.394531 3.035156 5.394531 4.71875 0 1.011719-.449218 2.472656-1.460937 4.496094l-35.171875 71.132812c-3.371094 6.855469-5.058594 7.527344-8.089844 7.527344-2.921875 0-5.394531-3.03125-5.394531-4.71875 0-1.011718.449219-2.472656 1.460937-4.496094zm.113281 51.917969c0-11.574219 5.394531-20.453125 19.4375-20.453125 14.046875 0 19.332031 8.878906 19.332031 20.453125v5.394531c0 10.449219-6.070312 19.777344-19.332031 19.777344-13.371094 0-19.4375-9.328125-19.4375-19.777344zm19.4375-11.011719c-5.390625 0-5.953125 5.953125-5.953125 13.371094 0 7.417968.5625 13.371094 5.953125 13.371094 5.285156 0 5.84375-5.953126 5.84375-13.371094 0-7.417969-.558594-13.371094-5.84375-13.371094zm0 0" fill="#766e6e"/>
    <path d="m198.773438 438.863281c-28.859376 0-55.964844-7.496093-79.492188-20.632812v8.148437c28.605469 24.675782 65.863281 39.597656 106.605469 39.597656 40.742187 0 77.996093-14.921874 106.601562-39.597656v-57.070312c-29.539062 42.058594-78.414062 69.554687-133.714843 69.554687zm0 0" fill="#cdbfba"/>
    <g fill="#efe2dd">
        <path d="m346.042969 90.410156c-6.550781-1.785156-13.308594 2.078125-15.09375 8.628906-1.785157 6.550782 2.078125 13.308594 8.628906 15.09375 6.550781 1.785157 13.308594-2.078124 15.09375-8.628906 1.785156-6.550781-2.078125-13.308594-8.628906-15.09375zm0 0"/>
        <path d="m404.035156 441.828125c-6.550781-1.785156-13.308594 2.082031-15.09375 8.632813-1.785156 6.550781 2.078125 13.308593 8.628906 15.09375 6.554688 1.785156 13.3125-2.078126 15.097657-8.628907 1.785156-6.554687-2.078125-13.3125-8.632813-15.097656zm0 0"/>
        <path d="m23.085938 186.253906c-6.550782-1.785156-13.308594 2.078125-15.09375 8.628906-1.785157 6.550782 2.078124 13.308594 8.628906 15.09375 6.550781 1.785157 13.308594-2.078124 15.09375-8.628906 1.785156-6.550781-2.078125-13.308594-8.628906-15.09375zm0 0"/>
    </g>
    <path d="m396.742188 302.683594c0-3.425782-.105469-6.890625-.308594-10.296875-.246094-4.167969-3.847656-7.355469-7.992188-7.097657-4.167968.25-7.347656 3.828126-7.097656 7.996094.183594 3.109375.277344 6.269532.277344 9.398438 0 40.8125-15.789063 78.003906-41.570313 105.800781v-130.09375c0-24.929687-12.640625-47.707031-33.816406-60.921875-16.964844-10.589844-27.503906-29.992188-27.503906-50.636719v-10.648437c47.105469 17.007812 84.429687 56.195312 97.746093 106.636718 1.066407 4.035157 5.199219 6.441407 9.238282 5.378907 4.035156-1.066407 6.445312-5.203125 5.378906-9.238281-15.089844-57.164063-58.273438-101.15625-112.363281-118.761719v-62.328125c7.453125-6.296875 11.222656-15.992188 9.898437-25.726563l-5.238281-38.417969c-1.070313-7.824218-7.832031-13.726562-15.730469-13.726562h-84.722656c-8.136719 0-14.921875 6.105469-15.78125 14.199219l-4.113281 38.792969c-1 9.417968 2.808593 18.789062 10 24.871093v62.335938c-68.425781 22.308593-118.015625 86.707031-118.015625 162.484375 0 48.816406 20.863281 94.894531 56.695312 127.097656v57.960938c0 13.375 10.878906 24.257812 24.253906 24.257812h179.816407c13.375 0 24.253906-10.882812 24.253906-24.257812v-58.058594c34.785156-31.300782 56.695313-76.636719 56.695313-127zm-213.289063-235.851563c-3.875-2.882812-5.882813-7.460937-5.375-12.246093l4.113281-38.792969c.039063-.382813.363282-.671875.746094-.671875h84.722656c.375 0 .695313.277344.746094.648437l5.238281 38.417969c.664063 4.867188-1.378906 9.714844-5.332031 12.65625-2.945312 2.191406-4.703125 5.675781-4.703125 9.3125v59.882812c-12.191406-2.757812-24.824219-4.214843-37.722656-4.214843-12.960938 0-25.582031 1.460937-37.722657 4.207031v-59.878906c0-3.636719-1.761718-7.121094-4.710937-9.320313zm141.476563 420.910157c0 5.039062-4.097657 9.136718-9.136719 9.136718h-179.816407c-5.035156 0-9.136718-4.097656-9.136718-9.136718v-45.847657c.808594.574219 1.605468 1.15625 2.425781 1.71875 1.304687.898438 2.796875 1.328125 4.273437 1.328125 2.40625 0 4.769532-1.148437 6.238282-3.28125 2.363281-3.441406 1.488281-8.148437-1.953125-10.511718-3.800781-2.613282-7.460938-5.382813-10.984375-8.285157v-144.472656c0-19.679687 9.984375-37.660156 26.703125-48.09375 16.925781-10.566406 28.976562-28.101563 33.066406-48.109375.835937-4.089844-1.800781-8.085938-5.890625-8.921875-4.09375-.84375-8.085938 1.800781-8.921875 5.894531-3.261719 15.96875-12.835937 29.929688-26.257813 38.308594-21.175781 13.214844-33.816406 35.992188-33.816406 60.921875v130.195313c-26.441406-28.515626-41.574218-66.214844-41.574218-105.902344 0-85.875 69.863281-155.738282 155.738281-155.738282 12.941406 0 25.585937 1.605469 37.722656 4.636719v15.25c0 25.816407 13.265625 50.136719 34.617187 63.464844 16.722657 10.433594 26.703126 28.414063 26.703126 48.09375v144.390625c-26.9375 22.253906-61.457032 35.636719-99.042969 35.636719-21 0-41.367188-4.105469-60.542969-12.199219-3.84375-1.625-8.28125.175781-9.90625 4.019531-1.621094 3.847657.179688 8.285157 4.023438 9.90625 21.046874 8.886719 43.394531 13.394531 66.425781 13.394531 36.890625 0 71.085937-11.753906 99.042969-31.710937zm0 0"/>
    <path d="m218.652344 230.109375c0 4.3125-3.496094 7.804687-7.804688 7.804687-4.3125 0-7.804687-3.492187-7.804687-7.804687 0-4.308594 3.492187-7.804687 7.804687-7.804687 4.308594 0 7.804688 3.496093 7.804688 7.804687zm0 0"/>
    <path d="m239.765625 205.917969c0 4.3125-3.496094 7.804687-7.804687 7.804687-4.3125 0-7.808594-3.492187-7.808594-7.804687s3.496094-7.804688 7.808594-7.804688c4.308593 0 7.804687 3.492188 7.804687 7.804688zm0 0"/>
    <path d="m229.207031 117.15625c0 4.308594-3.492187 7.804688-7.804687 7.804688-4.308594 0-7.804688-3.496094-7.804688-7.804688 0-4.3125 3.496094-7.804688 7.804688-7.804688 4.3125 0 7.804687 3.492188 7.804687 7.804688zm0 0"/>
    <path d="m147.402344 322.804688h28.203125v11.574218c0 4.71875 2.023437 7.867188 7.867187 7.867188s7.867188-3.148438 7.867188-7.867188v-11.574218h5.621094c3.816406 0 6.292968-2.695313 6.292968-6.40625 0-3.707032-2.476562-6.40625-6.292968-6.40625h-5.621094v-41.015626c0-4.832031-2.359375-8.089843-8.425782-8.089843-3.148437 0-5.621093.898437-7.308593 3.148437l-34.609375 44.386719c-1.460938 1.910156-2.132813 3.707031-2.132813 6.628906-.003906 3.597657 2.695313 7.753907 8.539063 7.753907zm27.980468-41.914063h.222657v29.101563h-21.910157zm0 0"/>
    <path d="m210.054688 281.339844v5.394531c0 10.449219 6.070312 19.777344 19.441406 19.777344 13.261718 0 19.328125-9.328125 19.328125-19.777344v-5.394531c0-11.574219-5.28125-20.453125-19.328125-20.453125s-19.441406 8.878906-19.441406 20.453125zm25.285156 2.359375c0 7.414062-.5625 13.371093-5.84375 13.371093-5.394532 0-5.957032-5.957031-5.957032-13.371093 0-7.417969.5625-13.375 5.957032-13.375 5.28125 0 5.84375 5.957031 5.84375 13.375zm0 0"/>
    <path d="m272.199219 317.074219v5.394531c0 10.449219 6.066406 19.777344 19.4375 19.777344 13.261719 0 19.328125-9.328125 19.328125-19.777344v-5.394531c0-11.574219-5.28125-20.453125-19.328125-20.453125-14.042969 0-19.4375 8.878906-19.4375 20.453125zm19.4375-11.011719c5.285156 0 5.84375 5.953125 5.84375 13.371094 0 7.417968-.558594 13.371094-5.84375 13.371094-5.390625 0-5.953125-5.953126-5.953125-13.371094 0-7.417969.5625-13.371094 5.953125-13.371094zm0 0"/>
    <path d="m235.453125 340.785156c0 1.683594 2.472656 4.71875 5.394531 4.71875 3.03125 0 4.71875-.675781 8.089844-7.527344l35.171875-71.132812c1.011719-2.023438 1.460937-3.484375 1.460937-4.496094 0-1.6875-2.472656-4.71875-5.394531-4.71875-3.035156 0-4.71875.671875-8.089843 7.527344l-35.171876 71.132812c-1.011718 2.023438-1.460937 3.484376-1.460937 4.496094zm0 0"/>
    <path d="m310.144531 366.878906c0-4.175781-3.382812-7.558594-7.558593-7.558594h-155.660157c-4.175781 0-7.558593 3.382813-7.558593 7.558594 0 4.175782 3.382812 7.5625 7.558593 7.5625h155.660157c4.175781 0 7.558593-3.386718 7.558593-7.5625zm0 0"/>
    <path d="m388.515625 139.386719c0 4.511719-3.65625 8.167969-8.167969 8.167969-4.511718 0-8.171875-3.65625-8.171875-8.167969s3.660157-8.167969 8.171875-8.167969c4.511719 0 8.167969 3.65625 8.167969 8.167969zm0 0"/>
    <path d="m105.828125 15.730469c0 4.511719-3.660156 8.167969-8.167969 8.167969-4.511718 0-8.171875-3.65625-8.171875-8.167969s3.660157-8.171875 8.171875-8.171875c4.507813 0 8.167969 3.660156 8.167969 8.171875zm0 0"/>
    <path d="m41.316406 255.796875c-4.355468-1.1875-8.84375 1.378906-10.03125 5.734375-1.1875 4.351562 1.382813 8.84375 5.734375 10.027344 4.351563 1.1875 8.84375-1.378906 10.027344-5.734375 1.1875-4.351563-1.378906-8.839844-5.730469-10.027344zm0 0"/>
    <path d="m149.070312 94.386719c-4.351562-1.1875-8.84375 1.378906-10.027343 5.730469-1.1875 4.355468 1.378906 8.84375 5.734375 10.03125 4.351562 1.1875 8.839844-1.382813 10.027344-5.734376 1.1875-4.351562-1.378907-8.84375-5.734376-10.027343zm0 0"/>
    <path d="m337.59375 121.417969c1.742188.472656 3.492188.699219 5.210938.699219 8.734374 0 16.761718-5.816407 19.164062-14.636719 2.878906-10.5625-3.371094-21.496094-13.9375-24.375-10.5625-2.882813-21.496094 3.375-24.375 13.9375s3.375 21.496093 13.9375 24.375zm.652344-20.402344c.570312-2.105469 2.484375-3.492187 4.566406-3.492187.410156 0 .828125.054687 1.242188.167968 2.519531.6875 4.011718 3.292969 3.324218 5.8125-.683594 2.519532-3.292968 4.015625-5.8125 3.324219-2.515625-.683594-4.007812-3.292969-3.320312-5.8125zm0 0"/>
    <path d="m406.03125 434.523438c-10.5625-2.882813-21.496094 3.375-24.375 13.9375s3.375 21.496093 13.9375 24.375c1.742188.476562 3.492188.699218 5.210938.699218 8.734374 0 16.761718-5.8125 19.164062-14.636718 2.878906-10.5625-3.371094-21.496094-13.9375-24.375zm-.648438 20.402343c-.6875 2.515625-3.292968 4.011719-5.8125 3.320313-2.519531-.683594-4.011718-3.292969-3.324218-5.8125.570312-2.105469 2.484375-3.492188 4.570312-3.492188.410156 0 .828125.054688 1.242188.167969 2.519531.6875 4.007812 3.296875 3.324218 5.816406zm0 0"/>
    <path d="m39.015625 203.332031c2.875-10.5625-3.375-21.496093-13.9375-24.375-10.558594-2.878906-21.496094 3.375-24.378906 13.9375-2.875 10.5625 3.375 21.5 13.9375 24.375 1.742187.472657 3.492187.703125 5.214843.703125 8.734376 0 16.757813-5.816406 19.164063-14.640625zm-14.589844-3.972656c-.332031 1.21875-1.121093 2.238281-2.21875 2.863281-1.097656.628906-2.375.792969-3.597656.460938-2.515625-.6875-4.007813-3.296875-3.320313-5.8125.570313-2.105469 2.484376-3.492188 4.570313-3.492188.410156 0 .828125.054688 1.242187.167969 2.519532.683594 4.007813 3.292969 3.324219 5.8125zm0 0"/>
</svg>