<?xml version="1.0" encoding="iso-8859-1"?>
<!-- Generator: Adobe Illustrator 16.0.0, SVG Export Plug-In . SVG Version: 6.00 Build 0)  -->
<!DOCTYPE svg PUBLIC "-//W3C//DTD SVG 1.1//EN" "http://www.w3.org/Graphics/SVG/1.1/DTD/svg11.dtd">
<svg version="1.1" id="Layer_1" xmlns="http://www.w3.org/2000/svg" xmlns:xlink="http://www.w3.org/1999/xlink" x="0px" y="0px"
	 width="30px" height="30px" viewBox="0 0 30 30" style="enable-background:new 0 0 30 30;" xml:space="preserve">
<g>
	<path style="fill:#454545;" d="M7.251,5.267c0-2.081,1.687-3.767,3.767-3.767c2.079,0,3.766,1.686,3.766,3.767V7.65h0.893V5.267
		c0-2.573-2.086-4.659-4.658-4.659c-2.573,0-4.659,2.086-4.659,4.659V7.65h0.893V5.267z"/>
	<path style="fill:#454545;" d="M26.424,13.444c-0.048-0.303-0.31-0.524-0.616-0.523H15.344c-0.306-0.001-0.566,0.221-0.614,0.523
		l-1.991,14.285c0.017,0.923,0.769,1.661,1.691,1.663h12.293c0.923-0.001,1.675-0.74,1.691-1.663L26.424,13.444z M24.555,17.073
		c0,2.198-1.781,3.979-3.979,3.979s-3.979-1.781-3.979-3.979v-2.045c0-0.247,0.199-0.446,0.445-0.446s0.446,0.199,0.446,0.446v2.045
		c0,1.705,1.382,3.087,3.087,3.087s3.087-1.382,3.087-3.087v-2.045c0-0.247,0.199-0.446,0.445-0.446
		c0.247,0,0.446,0.199,0.446,0.446V17.073z"/>
	<path style="fill:#454545;" d="M13.848,13.31c0.112-0.739,0.749-1.284,1.496-1.281h3.243l-0.514-3.682
		c-0.063-0.402-0.411-0.698-0.818-0.696h-1.579v2.334c0,0.246-0.2,0.446-0.446,0.446s-0.446-0.2-0.446-0.446V7.65H7.251v2.334
		c0,0.246-0.2,0.446-0.446,0.446c-0.247,0-0.446-0.2-0.446-0.446V7.65h-1.58C4.371,7.648,4.024,7.944,3.961,8.347l-2.375,17.04
		c0.018,1.148,0.953,2.071,2.103,2.073h8.187l1.971-14.143L13.848,13.31z"/>
</g>
</svg>
