<?xml version="1.0" encoding="utf-8"?>
<!-- Generator: Adobe Illustrator 16.0.0, SVG Export Plug-In . SVG Version: 6.00 Build 0)  -->
<!DOCTYPE svg PUBLIC "-//W3C//DTD SVG 1.1//EN" "http://www.w3.org/Graphics/SVG/1.1/DTD/svg11.dtd">
<svg version="1.1" id="Capa_1" xmlns="http://www.w3.org/2000/svg" xmlns:xlink="http://www.w3.org/1999/xlink" x="0px" y="0px"
	 width="289.833px" height="109px" viewBox="0 0 289.833 109" enable-background="new 0 0 289.833 109" xml:space="preserve">
<path style="fill:#171717" d="M58.823,2.418c-1.213-1.213-2.777-1.816-4.394-1.816s-3.183,0.604-4.394,1.816L2.323,50.131
	c-2.424,2.426-2.424,6.313,0,8.734l47.714,47.716c2.424,2.423,6.311,2.423,8.733,0c2.424-2.424,2.424-6.313,0-8.734l-37.16-37.161
	h261.505c3.434,0,6.211-2.777,6.211-6.211s-2.777-6.209-6.211-6.209H21.661l37.162-37.111C61.247,8.73,61.247,4.791,58.823,2.418z"
	/>
</svg>
