<?xml version="1.0" encoding="iso-8859-1"?>
<!-- Generator: Adobe Illustrator 16.0.0, SVG Export Plug-In . SVG Version: 6.00 Build 0)  -->
<!DOCTYPE svg PUBLIC "-//W3C//DTD SVG 1.1//EN" "http://www.w3.org/Graphics/SVG/1.1/DTD/svg11.dtd">
<svg version="1.1" id="Layer_1" xmlns="http://www.w3.org/2000/svg" xmlns:xlink="http://www.w3.org/1999/xlink" x="0px" y="0px"
	 width="30px" height="30px" viewBox="0 0 30 30" style="enable-background:new 0 0 30 30;" xml:space="preserve">
<g>
	<path style="fill:#454545;" d="M28.807,25.393H2.195c-0.552,0-1-0.447-1-1.002c0-0.551,0.448-0.998,1-0.998h26.612
		c0.551,0,0.998,0.447,0.998,0.998C29.805,24.945,29.357,25.393,28.807,25.393z"/>
	<path style="fill:#454545;" d="M29.002,16H11c-0.552,0-1-0.449-1-1.001C10,14.448,10.448,14,11,14h18.002
		C29.553,14,30,14.448,30,14.999C30,15.551,29.553,16,29.002,16z"/>
	<path style="fill:#454545;" d="M28.807,6.607H4.611c-0.552,0-1-0.449-1-1c0-0.552,0.447-1,1-1h24.195c0.551,0,0.998,0.448,0.998,1
		C29.805,6.158,29.357,6.607,28.807,6.607z"/>
</g>
</svg>
