<?xml version="1.0" encoding="utf-8"?>
<!-- Generator: Adobe Illustrator 16.0.0, SVG Export Plug-In . SVG Version: 6.00 Build 0)  -->
<!DOCTYPE svg PUBLIC "-//W3C//DTD SVG 1.1//EN" "http://www.w3.org/Graphics/SVG/1.1/DTD/svg11.dtd">
<svg version="1.1" id="Capa_1" xmlns="http://www.w3.org/2000/svg" xmlns:xlink="http://www.w3.org/1999/xlink" x="0px" y="0px"
     width="289.833px" height="109px" viewBox="78.5 0 289.833 109" enable-background="new 78.5 0 289.833 109" xml:space="preserve">
<path style="fill:#171717" d="M309.511,106.581c1.212,1.213,2.777,1.818,4.393,1.818s3.182-0.605,4.393-1.818l47.714-47.713
	c2.423-2.424,2.423-6.312,0-8.734L318.296,2.418c-2.424-2.423-6.311-2.423-8.734,0c-2.424,2.424-2.424,6.313,0,8.735l37.16,37.161
	H85.217c-3.434,0-6.211,2.777-6.211,6.211s2.777,6.21,6.211,6.21h261.455l-37.161,37.11
	C307.087,100.27,307.087,104.208,309.511,106.581z"/>
</svg>
