<svg width="auto" xmlns="http://www.w3.org/2000/svg" viewBox="0 0 200 143.4"><style>.st0{fill:#fff}.st2{fill:#6f76dd}.st4{fill:#222221}.st5{fill:#b3b3b3}.st6{fill:#3e3e3d}.st8{fill:none;stroke:#425973;stroke-width:3.3;stroke-linecap:round;stroke-linejoin:round;stroke-miterlimit:10}.st12{fill:#e9c2d0}.st13{fill:#db9022}</style><path class="st0" d="M-150-175.7h500v500h-500z" id="BACKGROUND"/><g id="OBJECTS"><path class="st2" d="M106.6 23.9c-19.7 6.3-82-24.7-77.1 17.6.8 6.3 4.8 15.2 1.4 21-2.5 4.4-7 7-11.4 8.7C8 75.9 3.7 84.7 6.6 97.1c7.8 33.6 50 25.7 72.2 15.7 15.8-7.4 34.4-8.7 50.7-2.4 12.8 5.1 20.8 15.8 35.8 12.7 13.3-2.7 15.3-15.3 11.4-27-2.2-7.2-3.8-10.3.6-17.3 3.7-6.9 10.2-12.2 10.7-20.3.1-8.8-3.9-17.7-11.8-21-6.4-2.7-12.2-1.6-18.6-3.3-14.1-4-23.2-25.9-40.7-18.4-4.4 2.1-6.8 6.8-11.6 8.2" opacity=".22"/><g opacity=".3"><path class="st2" d="M99.4 22.3c3.5 0 3.5-5.5 0-5.5s-3.5 5.5 0 5.5zM17.6 66.1c7.1 0 7.1-11 0-11s-7.1 11 0 11zM183.7 88.2c7.1 0 7.1-11 0-11-7 0-7 11 0 11zM90.1 22.3c7.1 0 7.1-11 0-11s-7.1 11 0 11z"/><path class="st2" d="M189.3 80.2c9.2 0 9.2-14.3 0-14.3s-9.2 14.3 0 14.3zM8.2 76.1c9.2 0 9.2-14.3 0-14.3s-9.2 14.3 0 14.3zM161.6 32.9c9.2 0 9.2-14.3 0-14.3s-9.2 14.3 0 14.3zM98.1 19.1c10.6 0 10.6-16.5 0-16.5-10.7 0-10.7 16.5 0 16.5z"/><path class="st2" d="M192.2 85.2c5.3 0 5.3-8.2 0-8.2s-5.3 8.2 0 8.2zM7.3 63c5.3 0 5.3-8.2 0-8.2S2 63 7.3 63zM170.3 35.4c5.3 0 5.3-8.3 0-8.3s-5.3 8.3 0 8.3z"/><path class="st2" d="M169.6 27.1c3.5 0 3.5-5.5 0-5.5-3.6 0-3.6 5.5 0 5.5zM29.6 23.7c7.1 0 7.1-11 0-11s-7.1 11 0 11zM186.8 119c7.1 0 7.1-11 0-11-7 0-7 11 0 11zM7.2 121.4c7.1 0 7.1-11 0-11s-7.1 11 0 11z"/><path class="st2" d="M37.9 18.2c3.5 0 3.5-5.5 0-5.5-3.6 0-3.6 5.5 0 5.5zM187.2 106.6c3.5 0 3.5-5.5 0-5.5s-3.5 5.5 0 5.5zM15.5 123.5c3.5 0 3.5-5.5 0-5.5s-3.5 5.5 0 5.5z"/></g><g><path class="st4" d="M54.7 74.6c-3.5 1.1-3.9-3.6-5.7-5.8-1.8-2.1-3.5-2.7-6.1-2.5-3.4.2-7.7.7-8.3-3.5-.4-2.6-.5-4.9-1.6-7.3-1.1-2.4-4.6-.3-3.6 2.1 1.3 2.9.5 6.2 1.9 9s4.6 3.7 7.5 4c1.6.2 4.2-.7 5.7-.2 2.1.7 2.8 3.9 3.7 5.6 1.7 3.3 4.2 3.8 7.6 2.7 2.5-.9 1.4-4.9-1.1-4.1z"/><path class="st4" d="M32.3 52.7c.1-.2-.2.2-.2.2s-.1.1-.1.2l-.3.3c-.2.2.1-.1 0 0-.4.3-.8.5-1.3.7-.8.4-1.1 1.5-.6 2.3.5.8 1.4 1 2.3.6 1.3-.7 2.3-1.5 3.2-2.7.5-.7.1-1.9-.6-2.3-1-.4-1.8-.1-2.4.7z"/><path class="st4" d="M29.3 50.9c0 1.8.3 3.5.3 5.3 0 2.1 3.3 2.1 3.3 0 0-1.8-.3-3.5-.3-5.3 0-2.1-3.3-2.1-3.3 0z"/><path class="st4" d="M26.7 53.2c1.2 1.4 2.3 2.9 3.9 3.9 1.8 1.1 3.5-1.7 1.7-2.8-1.3-1-2.3-2.3-3.3-3.5-.6-.7-1.8-.6-2.3 0-.7.7-.6 1.7 0 2.4z"/><path class="st4" d="M25.3 55.6c1.7 1.7 4 2.2 6.3 1.5 2-.6 1.2-3.8-.9-3.2-1.2.4-2.2.2-3.1-.7-1.5-1.3-3.8 1-2.3 2.4z"/><g><path class="st4" d="M140.8 80.7c.3-4.7 6-2 8.9-3.6 2.5-1.4 1.9-4.7 3.7-6.5 2.1-2.1 5.7-1.4 8.2-2.8 2.7-1.4 3.5-3.8 3.7-6.7.2-2.6-3.9-2.6-4.1 0-.4 4.4-5 3.4-8.1 4.7-3.1 1.3-3.6 3.4-5.1 6.2-1 1.8-1.2 1.5-3.6 1.7-1.4.1-2.9.1-4.3.6-2.8 1.1-3.4 3.6-3.6 6.4 0 2.7 4.1 2.7 4.3 0z"/><path class="st4" d="M158.7 58.8c.8 2 2.2 3.4 4.2 4.2.8.3 1.8-.4 2-1.2.3-1-.3-1.7-1.2-2 .2.1-.3-.1-.2-.1-.1-.1-.2-.1-.3-.2-.3-.2-.3-.2-.6-.5-.2-.2-.3-.3-.4-.5-.1-.1-.2-.2-.2-.4 0 0-.2-.5-.1-.2-.3-.8-1.1-1.4-2-1.2-.9.3-1.6 1.3-1.2 2.1z"/><path class="st4" d="M161.1 56.4v4.1c0 2.1 3.3 2.1 3.3 0v-4.1c0-2.1-3.3-2.1-3.3 0z"/><path class="st4" d="M163.9 56.5c-.5 1.3-1.3 2.3-2.3 3.1-.7.6-.6 1.7 0 2.3.7.7 1.6.6 2.3 0 1.5-1.2 2.5-2.8 3.2-4.6.3-.8-.3-1.8-1.2-2-.9-.2-1.7.4-2 1.2z"/><path class="st4" d="M166 58.1c-.6 1-1.6 1.6-2.6 2-.8.3-1.4 1.1-1.2 2 .2.8 1.2 1.5 2 1.2 1.9-.8 3.5-1.8 4.6-3.5 1.2-1.9-1.7-3.5-2.8-1.7z"/></g><g><path class="st5" d="M149.6 110.8c0 1.5-10.9 1.9-12 1.9H56.3c-1.2 0-12-.4-12-1.9L54.2 96c0-1.5 1-2.6 2.1-2.6h81.2c1.2 0 2.1 1.2 2.1 2.6l10 14.8z"/><path class="st6" d="M80.3 107.5H59.4l3.6-8.9h18.9zM113.7 107.5h20.8l-3.6-8.9H112zM136.9 107.5h7.3l-6-8.9h-5.5zM57.1 107.5h-7.4l6-8.9h5.6zM111.8 107.5H82.1l1.6-8.9h26.5z"/><g><path class="st5" d="M51.5 100.2h90.9v1.4H51.5zM50.5 103.5h92.9v1.4H50.5z"/></g><g><path class="st6" d="M150.2 114.2c0 1.2-.2 2.1-1.4 2.1H45.2c-1.2 0-1.4-1-1.4-2.1v-1.8c0-1.2.2-2.1 1.4-2.1h103.6c1.2 0 1.4 1 1.4 2.1v1.8z"/><path d="M116.4 113.3c0 .6-.5 1.1-1.1 1.1H78.6c-.6 0-1.1-.5-1.1-1.1 0-.6.5-1.1 1.1-1.1h36.6c.7 0 1.2.5 1.2 1.1z" fill="#6f6f6f"/></g><g><path class="st6" d="M140.8 93.9c0 1.2-1 2.1-2.1 2.1H55.3c-1.2 0-2.1-1-2.1-2.1V39.5c0-1.2 1-2.1 2.1-2.1h83.4c1.2 0 2.1 1 2.1 2.1v54.4z"/><path class="st0" d="M97 41.2c2.3 0 2.3-3.5 0-3.5s-2.3 3.5 0 3.5zM134.6 90.5c0 1-.8 1.8-1.8 1.8H61.1c-1 0-1.8-.8-1.8-1.8V43.7c0-1 .8-1.8 1.8-1.8h71.7c1 0 1.8.8 1.8 1.8v46.8z"/><path class="st8" d="M86 60.9l-6.3 6.2M86 67.1l-6.3-6.2M114.2 60.9l-6.3 6.2M114.2 67.1l-6.3-6.2"/><g><path d="M111.4 74.7v6.2c0 1.2-1 2.2-2.2 2.2H108c-1.2 0-2.2-1-2.2-2.2v-6.2" fill="#dd9ab2"/><path fill="#d6819f" d="M110.5 75l-1.9 7.2-2-7.2z"/><path fill="none" stroke="#425973" stroke-width="2.75" stroke-linecap="round" stroke-linejoin="round" stroke-miterlimit="10" d="M78.2 74.6h37.5"/></g><g><path class="st12" d="M72.1 76.5c7.1 0 7.1-11 0-11s-7.1 11 0 11zM121.8 76.5c7.1 0 7.1-11 0-11-7 0-7.1 11 0 11z"/></g></g></g><g><path class="st13" d="M125.2 30.2v18.2c0 3.5 5.5 3.5 5.5 0V30.2c0-3.6-5.5-3.6-5.5 0z"/><path class="st13" d="M127.9 57.5c5.3 0 5.3-8.2 0-8.2-5.3-.1-5.3 8.2 0 8.2z"/></g></g><g><path class="st2" d="M133.9 139c0 2.4-2 4.4-4.4 4.4H64.8c-2.4 0-4.4-2-4.4-4.4v-8.8c0-2.4 2-4.4 4.4-4.4h64.7c2.4 0 4.4 2 4.4 4.4v8.8z"/><path class="st0" d="M68.4 138.9v-.9-.9h-4.2v-1l.9-1.5.9-1.5.9-1.5c.3-.5.6-.9.9-1.4h1.5v5.8h1.2v1h-1.2v1.8h-.9zm-3.1-2.8l3.1.1v-4.9h-.1c-.2.4-.5.7-.7 1.1-.3.4-.5.8-.8 1.2-.3.4-.5.8-.8 1.2s-.4.9-.7 1.3zM73 137.9c-.5-.8-.8-1.9-.8-3.3s.3-2.5.8-3.3c.5-.8 1.3-1.2 2.2-1.2 1 0 1.7.4 2.2 1.2.5.8.8 1.9.8 3.3s-.3 2.5-.8 3.3-1.3 1.2-2.2 1.2c-1 0-1.7-.4-2.2-1.2zm3.7-.7c.3-.6.5-1.5.5-2.6s-.2-2-.5-2.6c-.3-.6-.8-.9-1.4-.9s-1.1.3-1.5.9c-.3.6-.5 1.5-.5 2.6s.2 2 .5 2.6c.3.6.8.9 1.5.9s1-.3 1.4-.9zM83.9 138.9v-.9-.9h-4.2v-1l.9-1.5.9-1.5.9-1.5c.3-.5.6-.9.9-1.4h1.5v5.8H86v1h-1.2v1.8h-.9zm-3.1-2.8l3.1.1v-4.9h-.1c-.2.4-.5.7-.7 1.1-.3.4-.5.8-.8 1.2-.3.4-.5.8-.8 1.2s-.5.9-.7 1.3zM96.7 137.9v1h-5.3v-8.6h5.3v1h-4.2v2.7h4v1h-4v2.9h4.2zM99.7 135.5v3.4h-1.1v-8.6h3.3c.8 0 1.5.2 2 .7.5.5.7 1.1.7 1.9 0 .6-.2 1.1-.5 1.5s-.7.7-1.3.9l2 3.6h-1.3l-1.8-3.4h-2zm0-4.2V134.7h2.1c.6 0 1-.1 1.3-.4.3-.3.4-.7.4-1.2s-.2-.9-.5-1.2c-.3-.3-.7-.4-1.3-.4h-2zM107.6 135.5v3.4h-1.1v-8.6h3.3c.8 0 1.5.2 2 .7.5.5.7 1.1.7 1.9 0 .6-.2 1.1-.5 1.5-.3.4-.7.7-1.3.9l2 3.6h-1.3l-1.8-3.4h-2zm0-4.2V134.7h2.1c.5 0 1-.1 1.3-.4.3-.3.4-.7.4-1.2s-.2-.9-.5-1.2c-.3-.3-.7-.4-1.3-.4h-2zM121 131.3c.7.8 1 1.9 1 3.3s-.3 2.5-1 3.3c-.7.8-1.7 1.2-2.9 1.2s-2.2-.4-2.9-1.2c-.7-.8-1-1.9-1-3.3s.4-2.5 1.1-3.3c.7-.8 1.7-1.2 2.9-1.2 1.1 0 2.1.4 2.8 1.2zm-5 .7c-.5.6-.8 1.5-.8 2.6s.2 1.9.8 2.5c.5.6 1.2 1 2.1 1 .9 0 1.6-.3 2.1-1 .5-.6.8-1.5.8-2.5 0-1.1-.3-1.9-.8-2.6-.5-.6-1.2-.9-2.1-.9-.9 0-1.5.3-2.1.9zM125 135.5v3.4h-1.1v-8.6h3.3c.8 0 1.5.2 2 .7.5.5.7 1.1.7 1.9 0 .6-.2 1.1-.5 1.5-.3.4-.7.7-1.3.9l2 3.6h-1.3l-1.8-3.4h-2zm0-4.2V134.7h2.1c.5 0 1-.1 1.3-.4.3-.3.4-.7.4-1.2s-.2-.9-.5-1.2c-.3-.3-.7-.4-1.3-.4h-2z"/></g></g></svg>